%TF.GenerationSoftware,KiCad,Pcbnew,8.0.6-1.fc40*%
%TF.CreationDate,2024-12-02T14:58:13+01:00*%
%TF.ProjectId,PeltierDriver,50656c74-6965-4724-9472-697665722e6b,rev?*%
%TF.SameCoordinates,Original*%
%TF.FileFunction,Copper,L1,Top*%
%TF.FilePolarity,Positive*%
%FSLAX46Y46*%
G04 Gerber Fmt 4.6, Leading zero omitted, Abs format (unit mm)*
G04 Created by KiCad (PCBNEW 8.0.6-1.fc40) date 2024-12-02 14:58:13*
%MOMM*%
%LPD*%
G01*
G04 APERTURE LIST*
G04 Aperture macros list*
%AMRoundRect*
0 Rectangle with rounded corners*
0 $1 Rounding radius*
0 $2 $3 $4 $5 $6 $7 $8 $9 X,Y pos of 4 corners*
0 Add a 4 corners polygon primitive as box body*
4,1,4,$2,$3,$4,$5,$6,$7,$8,$9,$2,$3,0*
0 Add four circle primitives for the rounded corners*
1,1,$1+$1,$2,$3*
1,1,$1+$1,$4,$5*
1,1,$1+$1,$6,$7*
1,1,$1+$1,$8,$9*
0 Add four rect primitives between the rounded corners*
20,1,$1+$1,$2,$3,$4,$5,0*
20,1,$1+$1,$4,$5,$6,$7,0*
20,1,$1+$1,$6,$7,$8,$9,0*
20,1,$1+$1,$8,$9,$2,$3,0*%
G04 Aperture macros list end*
%TA.AperFunction,ComponentPad*%
%ADD10R,1.700000X1.700000*%
%TD*%
%TA.AperFunction,ComponentPad*%
%ADD11O,1.700000X1.700000*%
%TD*%
%TA.AperFunction,ComponentPad*%
%ADD12C,3.200000*%
%TD*%
%TA.AperFunction,SMDPad,CuDef*%
%ADD13R,1.475000X0.450000*%
%TD*%
%TA.AperFunction,SMDPad,CuDef*%
%ADD14RoundRect,0.250000X-0.337500X-0.475000X0.337500X-0.475000X0.337500X0.475000X-0.337500X0.475000X0*%
%TD*%
%TA.AperFunction,SMDPad,CuDef*%
%ADD15RoundRect,0.250000X0.450000X-0.350000X0.450000X0.350000X-0.450000X0.350000X-0.450000X-0.350000X0*%
%TD*%
%TA.AperFunction,SMDPad,CuDef*%
%ADD16R,5.100000X2.050000*%
%TD*%
%TA.AperFunction,SMDPad,CuDef*%
%ADD17RoundRect,0.250000X0.400000X0.625000X-0.400000X0.625000X-0.400000X-0.625000X0.400000X-0.625000X0*%
%TD*%
%TA.AperFunction,ViaPad*%
%ADD18C,0.600000*%
%TD*%
%TA.AperFunction,Conductor*%
%ADD19C,0.340000*%
%TD*%
%TA.AperFunction,Conductor*%
%ADD20C,0.520000*%
%TD*%
%TA.AperFunction,Conductor*%
%ADD21C,0.200000*%
%TD*%
G04 APERTURE END LIST*
D10*
%TO.P,VIBR1,1,VIN*%
%TO.N,PVDD1*%
X129050000Y-94430000D03*
D11*
%TO.P,VIBR1,2,GND*%
%TO.N,GND*%
X129050000Y-91890000D03*
%TO.P,VIBR1,3,SCL*%
%TO.N,VIBR1_SCL*%
X129050000Y-89350000D03*
%TO.P,VIBR1,4,SDA*%
%TO.N,VIBR1_SDA*%
X129050000Y-86810000D03*
%TO.P,VIBR1,5,INT*%
%TO.N,VIBR1_INT*%
X129050000Y-84270000D03*
%TO.P,VIBR1,6,OUT-*%
%TO.N,Net-(J2-Pin_2)*%
X116350000Y-91890000D03*
%TO.P,VIBR1,7,OUT+*%
%TO.N,Net-(J2-Pin_1)*%
X116350000Y-86810000D03*
%TD*%
D12*
%TO.P,REF\u002A\u002A,*%
%TO.N,*%
X117900000Y-79900000D03*
%TD*%
D13*
%TO.P,IC1,1,VDD*%
%TO.N,PVDD1*%
X137162000Y-99575000D03*
%TO.P,IC1,2,GND*%
%TO.N,GND*%
X137162000Y-100225000D03*
%TO.P,IC1,3,CTLI*%
%TO.N,TEMP_IN*%
X137162000Y-100875000D03*
%TO.P,IC1,4,REF*%
%TO.N,REF*%
X137162000Y-101525000D03*
%TO.P,IC1,5,PGND2_1*%
%TO.N,GND*%
X137162000Y-102175000D03*
%TO.P,IC1,6,LX2_1*%
%TO.N,/LX2*%
X137162000Y-102825000D03*
%TO.P,IC1,7,PGND2_2*%
%TO.N,GND*%
X137162000Y-103475000D03*
%TO.P,IC1,8,LX2_2*%
%TO.N,/LX2*%
X137162000Y-104125000D03*
%TO.P,IC1,9,PVDD2_1*%
%TO.N,PVDD1*%
X137162000Y-104775000D03*
%TO.P,IC1,10,LX2_3*%
%TO.N,/LX2*%
X137162000Y-105425000D03*
%TO.P,IC1,11,PVDD2_2*%
%TO.N,PVDD1*%
X137162000Y-106075000D03*
%TO.P,IC1,12,FREQ*%
%TO.N,GND*%
X137162000Y-106725000D03*
%TO.P,IC1,13,ITEC*%
%TO.N,ITEC_OUT*%
X137162000Y-107375000D03*
%TO.P,IC1,14,OS2*%
%TO.N,/OS2*%
X137162000Y-108025000D03*
%TO.P,IC1,15,OS1*%
%TO.N,/OS1*%
X143038000Y-108025000D03*
%TO.P,IC1,16,CS*%
%TO.N,/CS*%
X143038000Y-107375000D03*
%TO.P,IC1,17,~{SHDN}*%
%TO.N,PVDD1*%
X143038000Y-106725000D03*
%TO.P,IC1,18,PVDD1_1*%
X143038000Y-106075000D03*
%TO.P,IC1,19,LX1_1*%
%TO.N,/LX1*%
X143038000Y-105425000D03*
%TO.P,IC1,20,PVDD1_2*%
%TO.N,PVDD1*%
X143038000Y-104775000D03*
%TO.P,IC1,21,LX1_2*%
%TO.N,/LX1*%
X143038000Y-104125000D03*
%TO.P,IC1,22,PGND1_1*%
%TO.N,GND*%
X143038000Y-103475000D03*
%TO.P,IC1,23,LX1_3*%
%TO.N,/LX1*%
X143038000Y-102825000D03*
%TO.P,IC1,24,PGND1_2*%
%TO.N,GND*%
X143038000Y-102175000D03*
%TO.P,IC1,25,COMP*%
%TO.N,COMP*%
X143038000Y-101525000D03*
%TO.P,IC1,26,MAXIN*%
%TO.N,REF*%
X143038000Y-100875000D03*
%TO.P,IC1,27,MAXIP*%
X143038000Y-100225000D03*
%TO.P,IC1,28,MAXV*%
%TO.N,MAXV*%
X143038000Y-99575000D03*
%TD*%
D14*
%TO.P,C8,1*%
%TO.N,/OS2*%
X135412500Y-116100000D03*
%TO.P,C8,2*%
%TO.N,/CS*%
X137487500Y-116100000D03*
%TD*%
D10*
%TO.P,J2,1,Pin_1*%
%TO.N,Net-(J2-Pin_1)*%
X115700000Y-106875000D03*
D11*
%TO.P,J2,2,Pin_2*%
%TO.N,Net-(J2-Pin_2)*%
X115700000Y-104335000D03*
%TD*%
D15*
%TO.P,R1,1*%
%TO.N,REF*%
X145100000Y-100300000D03*
%TO.P,R1,2*%
%TO.N,MAXV*%
X145100000Y-98300000D03*
%TD*%
D10*
%TO.P,Flex1,1*%
%TO.N,PVDD1*%
X152675000Y-115600000D03*
D11*
%TO.P,Flex1,2*%
%TO.N,Net-(U1A-+)*%
X155215000Y-115600000D03*
%TD*%
D10*
%TO.P,TH1,1*%
%TO.N,GND*%
X143675000Y-115600000D03*
D11*
%TO.P,TH1,2*%
%TO.N,Net-(U1B-+)*%
X146215000Y-115600000D03*
%TD*%
D10*
%TO.P,J4,1,Pin_1*%
%TO.N,ITEC_OUT*%
X134825000Y-82525000D03*
D11*
%TO.P,J4,2,Pin_2*%
%TO.N,FLEX_OUT*%
X137365000Y-82525000D03*
%TO.P,J4,3,Pin_3*%
%TO.N,TEMP_IN*%
X134825000Y-85065000D03*
%TO.P,J4,4,Pin_4*%
%TO.N,TEMP_OUT*%
X137365000Y-85065000D03*
%TD*%
D16*
%TO.P,L2,1,1*%
%TO.N,/LX2*%
X130788000Y-105850000D03*
%TO.P,L2,2,2*%
%TO.N,/OS2*%
X130788000Y-110200000D03*
%TD*%
D14*
%TO.P,C7,1*%
%TO.N,/OS2*%
X136250500Y-110275000D03*
%TO.P,C7,2*%
%TO.N,GND*%
X138325500Y-110275000D03*
%TD*%
D10*
%TO.P,J6,1,Pin_1*%
%TO.N,VIBR1_INT*%
X142075000Y-77775000D03*
D11*
%TO.P,J6,2,Pin_2*%
%TO.N,VIBR2_INT*%
X144615000Y-77775000D03*
%TO.P,J6,3,Pin_3*%
%TO.N,VIBR1_SDA*%
X142075000Y-80315000D03*
%TO.P,J6,4,Pin_4*%
%TO.N,VIBR2_SDA*%
X144615000Y-80315000D03*
%TO.P,J6,5,Pin_5*%
%TO.N,VIBR1_SCL*%
X142075000Y-82855000D03*
%TO.P,J6,6,Pin_6*%
%TO.N,VIBR2_SCL*%
X144615000Y-82855000D03*
%TD*%
D10*
%TO.P,PE1,1*%
%TO.N,/OS1*%
X132575000Y-115400000D03*
D11*
%TO.P,PE1,2*%
%TO.N,/OS2*%
X130035000Y-115400000D03*
%TD*%
D10*
%TO.P,VIBR2,1,VIN*%
%TO.N,PVDD1*%
X150350000Y-84270000D03*
D11*
%TO.P,VIBR2,2,GND*%
%TO.N,GND*%
X150350000Y-86810000D03*
%TO.P,VIBR2,3,SCL*%
%TO.N,VIBR2_SCL*%
X150350000Y-89350000D03*
%TO.P,VIBR2,4,SDA*%
%TO.N,VIBR2_SDA*%
X150350000Y-91890000D03*
%TO.P,VIBR2,5,INT*%
%TO.N,VIBR2_INT*%
X150350000Y-94430000D03*
%TO.P,VIBR2,6,OUT-*%
%TO.N,Net-(J3-Pin_2)*%
X163050000Y-86810000D03*
%TO.P,VIBR2,7,OUT+*%
%TO.N,Net-(J3-Pin_1)*%
X163050000Y-91890000D03*
%TD*%
D10*
%TO.P,J1,1,Pin_1*%
%TO.N,GND*%
X138575000Y-89050000D03*
D11*
%TO.P,J1,2,Pin_2*%
%TO.N,PVDD1*%
X141115000Y-89050000D03*
%TD*%
D17*
%TO.P,R3,1*%
%TO.N,/CS*%
X140450000Y-112550000D03*
%TO.P,R3,2*%
%TO.N,/OS1*%
X137350000Y-112550000D03*
%TD*%
D15*
%TO.P,R2,1*%
%TO.N,MAXV*%
X143086863Y-97639693D03*
%TO.P,R2,2*%
%TO.N,GND*%
X143086863Y-95639693D03*
%TD*%
D10*
%TO.P,J3,1,Pin_1*%
%TO.N,Net-(J3-Pin_1)*%
X163700000Y-104325000D03*
D11*
%TO.P,J3,2,Pin_2*%
%TO.N,Net-(J3-Pin_2)*%
X163700000Y-106865000D03*
%TD*%
D12*
%TO.P,REF\u002A\u002A,*%
%TO.N,*%
X161450000Y-113500000D03*
%TD*%
%TO.P,REF\u002A\u002A,*%
%TO.N,*%
X117900000Y-113500000D03*
%TD*%
D16*
%TO.P,L1,1,1*%
%TO.N,/LX1*%
X149100000Y-105375000D03*
%TO.P,L1,2,2*%
%TO.N,/CS*%
X149100000Y-109725000D03*
%TD*%
D12*
%TO.P,REF\u002A\u002A,*%
%TO.N,*%
X161500000Y-79900000D03*
%TD*%
D18*
%TO.N,PVDD1*%
X148851238Y-114501238D03*
X141300000Y-105500000D03*
X136800000Y-98500000D03*
X138900000Y-105400000D03*
%TO.N,GND*%
X138399502Y-104105000D03*
X138600000Y-108800000D03*
X144200000Y-95100000D03*
X141770000Y-101850000D03*
X141700000Y-107600000D03*
X146350000Y-98550000D03*
X149950000Y-100350000D03*
X154200000Y-108850000D03*
X140500000Y-108200000D03*
X135600000Y-100050000D03*
X138450000Y-107600000D03*
X138344511Y-102199317D03*
X154450000Y-100350000D03*
X138822257Y-106877902D03*
X138350000Y-103300000D03*
X138300000Y-98600000D03*
X155975002Y-107350000D03*
X141770000Y-103300000D03*
%TO.N,REF*%
X141770000Y-100550000D03*
X138315739Y-101377031D03*
%TO.N,COMP*%
X144350000Y-101800000D03*
%TO.N,ITEC_OUT*%
X135325000Y-97725000D03*
X135850000Y-107050000D03*
%TO.N,/CS*%
X141500000Y-110600000D03*
%TD*%
D19*
%TO.N,PVDD1*%
X138875000Y-104775000D02*
X139100000Y-104550000D01*
X140775000Y-106725000D02*
X140600000Y-106550000D01*
X139075000Y-99575000D02*
X139100000Y-99550000D01*
X140825000Y-104775000D02*
X140600000Y-104550000D01*
X140875000Y-106075000D02*
X140600000Y-105800000D01*
D20*
X141115000Y-89050000D02*
X144950000Y-89050000D01*
D19*
X137162000Y-99575000D02*
X139075000Y-99575000D01*
X149950000Y-115600000D02*
X152675000Y-115600000D01*
X136800000Y-99213000D02*
X137162000Y-99575000D01*
X143038000Y-104775000D02*
X140825000Y-104775000D01*
X143038000Y-106725000D02*
X140775000Y-106725000D01*
X143038000Y-106075000D02*
X140875000Y-106075000D01*
X138825000Y-106075000D02*
X139100000Y-105800000D01*
X137162000Y-106075000D02*
X138825000Y-106075000D01*
D20*
X149780000Y-84220000D02*
X150250000Y-84220000D01*
D19*
X137162000Y-104775000D02*
X138875000Y-104775000D01*
D20*
X144950000Y-89050000D02*
X149780000Y-84220000D01*
D19*
X136800000Y-98500000D02*
X136800000Y-99213000D01*
X148851238Y-114501238D02*
X149950000Y-115600000D01*
%TO.N,GND*%
X141770000Y-101850000D02*
X142095000Y-102175000D01*
X135775000Y-100225000D02*
X137162000Y-100225000D01*
X138320194Y-102175000D02*
X137162000Y-102175000D01*
X138175000Y-103475000D02*
X137162000Y-103475000D01*
X142095000Y-102175000D02*
X143038000Y-102175000D01*
X138325500Y-109074500D02*
X138600000Y-108800000D01*
X138325500Y-110275000D02*
X138325500Y-109074500D01*
X141945000Y-103475000D02*
X143038000Y-103475000D01*
X138344511Y-102199317D02*
X138320194Y-102175000D01*
X138669355Y-106725000D02*
X137162000Y-106725000D01*
X138822257Y-106877902D02*
X138669355Y-106725000D01*
X141770000Y-103300000D02*
X141945000Y-103475000D01*
X135775000Y-100225000D02*
X135600000Y-100050000D01*
X143660307Y-95639693D02*
X144200000Y-95100000D01*
X138350000Y-103300000D02*
X138175000Y-103475000D01*
X143086863Y-95639693D02*
X143660307Y-95639693D01*
%TO.N,REF*%
X143038000Y-100875000D02*
X143038000Y-100225000D01*
X138167770Y-101525000D02*
X137162000Y-101525000D01*
X143363000Y-100550000D02*
X143038000Y-100875000D01*
X141770000Y-100550000D02*
X142713000Y-100550000D01*
X142713000Y-100550000D02*
X143038000Y-100875000D01*
X138315739Y-101377031D02*
X138167770Y-101525000D01*
X145100000Y-100550000D02*
X143363000Y-100550000D01*
%TO.N,COMP*%
X143038000Y-101525000D02*
X144075000Y-101525000D01*
X144075000Y-101525000D02*
X144350000Y-101800000D01*
%TO.N,/LX2*%
X136175000Y-104125000D02*
X136171497Y-104128503D01*
X137162000Y-104125000D02*
X136175000Y-104125000D01*
X135876654Y-105425000D02*
X135872058Y-105420404D01*
X137162000Y-105425000D02*
X135876654Y-105425000D01*
X136171497Y-104128503D02*
X135872058Y-104128503D01*
X136075000Y-102825000D02*
X135850000Y-103050000D01*
X137162000Y-102825000D02*
X136075000Y-102825000D01*
%TO.N,MAXV*%
X144350000Y-99300000D02*
X143313000Y-99300000D01*
X145100000Y-98550000D02*
X144350000Y-99300000D01*
X143313000Y-99300000D02*
X143038000Y-99575000D01*
X144600000Y-98050000D02*
X143497170Y-98050000D01*
X145100000Y-98550000D02*
X144600000Y-98050000D01*
D21*
X142588000Y-99575000D02*
X143038000Y-99575000D01*
D19*
X143497170Y-98050000D02*
X143086863Y-97639693D01*
%TO.N,TEMP_IN*%
X134825000Y-85065000D02*
X133600000Y-86290000D01*
X134925000Y-100875000D02*
X133600000Y-99550000D01*
X133600000Y-87300000D02*
X133600000Y-99300000D01*
X133600000Y-99550000D02*
X133600000Y-99300000D01*
X133600000Y-86290000D02*
X133600000Y-87300000D01*
X137162000Y-100875000D02*
X134925000Y-100875000D01*
%TO.N,ITEC_OUT*%
X136045000Y-97005000D02*
X136045000Y-83745000D01*
X136045000Y-83745000D02*
X134825000Y-82525000D01*
X136175000Y-107375000D02*
X137162000Y-107375000D01*
X135325000Y-97725000D02*
X136045000Y-97005000D01*
X135850000Y-107050000D02*
X136175000Y-107375000D01*
%TO.N,/LX1*%
X144125000Y-102825000D02*
X144350000Y-103050000D01*
X143038000Y-104125000D02*
X144175000Y-104125000D01*
X144175000Y-104125000D02*
X144350000Y-104300000D01*
X143038000Y-105425000D02*
X144225000Y-105425000D01*
X143038000Y-102825000D02*
X144125000Y-102825000D01*
X144225000Y-105425000D02*
X144350000Y-105550000D01*
%TO.N,/OS2*%
X136250500Y-108899500D02*
X136250500Y-110275000D01*
X137125000Y-108025000D02*
X136250500Y-108899500D01*
X130035000Y-115735000D02*
X131500000Y-117200000D01*
X137162000Y-108025000D02*
X137125000Y-108025000D01*
X131500000Y-117200000D02*
X134312500Y-117200000D01*
X134312500Y-117200000D02*
X135412500Y-116100000D01*
X130035000Y-115400000D02*
X130035000Y-115735000D01*
%TO.N,/OS1*%
X138040750Y-112550000D02*
X137350000Y-112550000D01*
X142565750Y-108025000D02*
X138040750Y-112550000D01*
X143038000Y-108025000D02*
X142825000Y-108025000D01*
X143038000Y-108025000D02*
X142565750Y-108025000D01*
%TO.N,/CS*%
X143038000Y-107375000D02*
X143925000Y-107375000D01*
X143925000Y-107375000D02*
X144600000Y-108050000D01*
D20*
%TO.N,Net-(J2-Pin_2)*%
X116500000Y-103535000D02*
X115700000Y-104335000D01*
X116500000Y-91840000D02*
X116500000Y-103535000D01*
%TO.N,Net-(J2-Pin_1)*%
X116675000Y-106875000D02*
X115700000Y-106875000D01*
X118700000Y-88960000D02*
X118700000Y-104850000D01*
X118700000Y-104850000D02*
X116675000Y-106875000D01*
X116500000Y-86760000D02*
X118700000Y-88960000D01*
%TO.N,Net-(J3-Pin_2)*%
X162965000Y-106865000D02*
X163700000Y-106865000D01*
X162950000Y-86760000D02*
X160700000Y-89010000D01*
X160700000Y-104600000D02*
X162965000Y-106865000D01*
X160700000Y-89010000D02*
X160700000Y-104600000D01*
%TO.N,Net-(J3-Pin_1)*%
X162950000Y-103575000D02*
X163700000Y-104325000D01*
X162950000Y-91840000D02*
X162950000Y-103575000D01*
D19*
%TO.N,VIBR1_INT*%
X142075000Y-77775000D02*
X141100000Y-76800000D01*
X129200000Y-79450000D02*
X129200000Y-84220000D01*
X131850000Y-76800000D02*
X129200000Y-79450000D01*
X141100000Y-76800000D02*
X131850000Y-76800000D01*
%TO.N,VIBR2_SDA*%
X151350000Y-80300000D02*
X153950000Y-82900000D01*
X144600000Y-80300000D02*
X151350000Y-80300000D01*
X153950000Y-82900000D02*
X153950000Y-88140000D01*
X144615000Y-80315000D02*
X144600000Y-80300000D01*
X153950000Y-88140000D02*
X150250000Y-91840000D01*
%TO.N,VIBR1_SDA*%
X130600000Y-80300000D02*
X130600000Y-85360000D01*
X141365000Y-80315000D02*
X139600000Y-78550000D01*
X142075000Y-80315000D02*
X141365000Y-80315000D01*
X132350000Y-78550000D02*
X130600000Y-80300000D01*
X130600000Y-85360000D02*
X129200000Y-86760000D01*
X139600000Y-78550000D02*
X132350000Y-78550000D01*
%TO.N,VIBR1_SCL*%
X131950000Y-86550000D02*
X129200000Y-89300000D01*
X133350000Y-80050000D02*
X131950000Y-81450000D01*
X131950000Y-81450000D02*
X131950000Y-86550000D01*
X141405000Y-82855000D02*
X138600000Y-80050000D01*
X138600000Y-80050000D02*
X133350000Y-80050000D01*
X142075000Y-82855000D02*
X141405000Y-82855000D01*
%TO.N,VIBR2_INT*%
X144615000Y-77775000D02*
X151075000Y-77775000D01*
X151075000Y-77775000D02*
X155600000Y-82300000D01*
X155600000Y-89030000D02*
X150250000Y-94380000D01*
X155600000Y-82300000D02*
X155600000Y-89030000D01*
%TO.N,VIBR2_SCL*%
X150300000Y-89300000D02*
X150250000Y-89300000D01*
X152350000Y-87250000D02*
X150300000Y-89300000D01*
X152350000Y-83300000D02*
X152350000Y-87250000D01*
X144615000Y-82855000D02*
X145420000Y-82050000D01*
X145420000Y-82050000D02*
X151100000Y-82050000D01*
X151100000Y-82050000D02*
X152350000Y-83300000D01*
%TD*%
%TA.AperFunction,Conductor*%
%TO.N,/LX1*%
G36*
X152543039Y-102569685D02*
G01*
X152588794Y-102622489D01*
X152600000Y-102674000D01*
X152600000Y-106926000D01*
X152580315Y-106993039D01*
X152527511Y-107038794D01*
X152476000Y-107050000D01*
X146382131Y-107050000D01*
X146321911Y-107034395D01*
X144339779Y-105933210D01*
X144290736Y-105883446D01*
X144275999Y-105824815D01*
X144275999Y-105802129D01*
X144275998Y-105802123D01*
X144269591Y-105742516D01*
X144219297Y-105607671D01*
X144219295Y-105607668D01*
X144138178Y-105499309D01*
X144113761Y-105433848D01*
X144128612Y-105365574D01*
X144138173Y-105350696D01*
X144219296Y-105242331D01*
X144269591Y-105107483D01*
X144276000Y-105047873D01*
X144275999Y-104502128D01*
X144269591Y-104442517D01*
X144219296Y-104307669D01*
X144138178Y-104199309D01*
X144113761Y-104133848D01*
X144128612Y-104065574D01*
X144138173Y-104050696D01*
X144219296Y-103942331D01*
X144269591Y-103807483D01*
X144276000Y-103747873D01*
X144275999Y-103202128D01*
X144269591Y-103142517D01*
X144219296Y-103007669D01*
X144138178Y-102899309D01*
X144113761Y-102833848D01*
X144128612Y-102765574D01*
X144138179Y-102750689D01*
X144212279Y-102651705D01*
X144268213Y-102609834D01*
X144325429Y-102602796D01*
X144350000Y-102605565D01*
X144350001Y-102605564D01*
X144350002Y-102605565D01*
X144350003Y-102605565D01*
X144529249Y-102585369D01*
X144529252Y-102585368D01*
X144529255Y-102585368D01*
X144610446Y-102556957D01*
X144651401Y-102550000D01*
X152476000Y-102550000D01*
X152543039Y-102569685D01*
G37*
%TD.AperFunction*%
%TD*%
%TA.AperFunction,Conductor*%
%TO.N,/OS2*%
G36*
X137043039Y-108569685D02*
G01*
X137088794Y-108622489D01*
X137100000Y-108674000D01*
X137100000Y-110726792D01*
X137080315Y-110793831D01*
X137035902Y-110835364D01*
X131300000Y-114000000D01*
X131300000Y-114241598D01*
X131284832Y-114301026D01*
X131281202Y-114307672D01*
X131230909Y-114442515D01*
X131230908Y-114442523D01*
X131226637Y-114482242D01*
X131222326Y-114503914D01*
X131214982Y-114528928D01*
X131214975Y-114528953D01*
X131194500Y-114671369D01*
X131194500Y-116076000D01*
X131174815Y-116143039D01*
X131122011Y-116188794D01*
X131070500Y-116200000D01*
X128786347Y-116200000D01*
X128719308Y-116180315D01*
X128673553Y-116127511D01*
X128670047Y-116119015D01*
X127357700Y-112570818D01*
X127350000Y-112527803D01*
X127350000Y-108674000D01*
X127369685Y-108606961D01*
X127422489Y-108561206D01*
X127474000Y-108550000D01*
X136976000Y-108550000D01*
X137043039Y-108569685D01*
G37*
%TD.AperFunction*%
%TD*%
%TA.AperFunction,Conductor*%
%TO.N,PVDD1*%
G36*
X142368379Y-87423390D02*
G01*
X142414134Y-87476194D01*
X142425323Y-87529771D01*
X142350172Y-92039658D01*
X142348116Y-92060171D01*
X141126602Y-98656352D01*
X141100000Y-98800001D01*
X141100000Y-100075965D01*
X141080994Y-100141936D01*
X141044213Y-100200472D01*
X141044209Y-100200481D01*
X140984633Y-100370737D01*
X140984630Y-100370750D01*
X140964435Y-100549996D01*
X140964435Y-100550003D01*
X140984630Y-100729249D01*
X140984631Y-100729254D01*
X141044211Y-100899524D01*
X141080993Y-100958060D01*
X141100000Y-101024033D01*
X141100000Y-101375965D01*
X141080994Y-101441936D01*
X141044213Y-101500472D01*
X141044209Y-101500481D01*
X140984633Y-101670737D01*
X140984630Y-101670750D01*
X140964435Y-101849996D01*
X140964435Y-101850003D01*
X140984630Y-102029249D01*
X140984631Y-102029254D01*
X141044211Y-102199524D01*
X141080993Y-102258060D01*
X141100000Y-102324033D01*
X141100000Y-102825965D01*
X141080994Y-102891936D01*
X141044213Y-102950472D01*
X141044209Y-102950481D01*
X140984633Y-103120737D01*
X140984630Y-103120750D01*
X140964435Y-103299996D01*
X140964435Y-103300003D01*
X140984630Y-103479249D01*
X140984631Y-103479254D01*
X141044211Y-103649524D01*
X141080993Y-103708060D01*
X141100000Y-103774033D01*
X141100000Y-104550000D01*
X141472828Y-105016035D01*
X141499336Y-105080681D01*
X141500000Y-105093497D01*
X141500000Y-105780642D01*
X141494101Y-105818434D01*
X141139693Y-106925957D01*
X141100512Y-106983808D01*
X141036276Y-107011293D01*
X140978053Y-107004270D01*
X139537613Y-106464104D01*
X139481753Y-106422133D01*
X139476159Y-106413972D01*
X139452074Y-106375641D01*
X139324519Y-106248086D01*
X139171780Y-106152113D01*
X139001511Y-106092533D01*
X139001507Y-106092532D01*
X138978267Y-106089914D01*
X138913853Y-106062846D01*
X138895328Y-106044160D01*
X138727172Y-105833965D01*
X138700664Y-105769319D01*
X138700000Y-105756503D01*
X138700000Y-105093497D01*
X138719685Y-105026458D01*
X138727172Y-105016035D01*
X139100000Y-104550000D01*
X139100000Y-104530496D01*
X139119008Y-104464521D01*
X139123430Y-104457483D01*
X139125291Y-104454522D01*
X139184870Y-104284255D01*
X139205067Y-104105000D01*
X139204175Y-104097086D01*
X139184871Y-103925750D01*
X139184870Y-103925745D01*
X139138281Y-103792601D01*
X139125291Y-103755478D01*
X139119006Y-103745475D01*
X139100000Y-103679503D01*
X139100000Y-103601397D01*
X139106959Y-103560442D01*
X139113749Y-103541038D01*
X139135368Y-103479255D01*
X139143288Y-103408962D01*
X139155565Y-103300003D01*
X139155565Y-103299996D01*
X139135369Y-103120750D01*
X139135367Y-103120742D01*
X139106958Y-103039552D01*
X139100000Y-102998598D01*
X139100000Y-102485028D01*
X139106959Y-102444073D01*
X139129878Y-102378574D01*
X139129879Y-102378572D01*
X139138260Y-102304189D01*
X139150076Y-102199320D01*
X139150076Y-102199313D01*
X139130915Y-102029255D01*
X139129879Y-102020062D01*
X139116948Y-101983109D01*
X139106958Y-101954556D01*
X139100000Y-101913602D01*
X139100000Y-101573070D01*
X139100780Y-101559186D01*
X139121304Y-101377033D01*
X139121304Y-101377027D01*
X139100780Y-101194868D01*
X139100000Y-101180985D01*
X139100000Y-98656352D01*
X139100780Y-98642468D01*
X139105565Y-98600002D01*
X139105565Y-98599998D01*
X139100780Y-98557531D01*
X139100000Y-98543647D01*
X139100000Y-96809731D01*
X139101517Y-96790392D01*
X139850000Y-92050000D01*
X139882041Y-90127162D01*
X139889839Y-90085910D01*
X139919091Y-90007483D01*
X139925500Y-89947873D01*
X139925499Y-88152128D01*
X139919091Y-88092517D01*
X139919089Y-88092513D01*
X139918261Y-88084805D01*
X139918593Y-88084769D01*
X139916411Y-88064596D01*
X139925392Y-87525638D01*
X139946191Y-87458937D01*
X139999750Y-87414068D01*
X140049375Y-87403705D01*
X142301340Y-87403705D01*
X142368379Y-87423390D01*
G37*
%TD.AperFunction*%
%TD*%
%TA.AperFunction,Conductor*%
%TO.N,/LX2*%
G36*
X135927210Y-102569685D02*
G01*
X135972965Y-102622489D01*
X135976353Y-102630666D01*
X135980703Y-102642329D01*
X135980703Y-102642330D01*
X136061821Y-102750689D01*
X136086238Y-102816153D01*
X136071387Y-102884426D01*
X136061821Y-102899311D01*
X135980703Y-103007669D01*
X135980702Y-103007671D01*
X135930410Y-103142513D01*
X135930409Y-103142517D01*
X135924000Y-103202127D01*
X135924000Y-103202134D01*
X135924000Y-103202135D01*
X135924000Y-103747870D01*
X135924001Y-103747876D01*
X135930408Y-103807483D01*
X135980702Y-103942328D01*
X135980703Y-103942330D01*
X136061821Y-104050689D01*
X136086238Y-104116153D01*
X136071387Y-104184426D01*
X136061821Y-104199311D01*
X135980703Y-104307669D01*
X135980702Y-104307671D01*
X135930410Y-104442513D01*
X135930409Y-104442517D01*
X135924000Y-104502127D01*
X135924000Y-104502134D01*
X135924000Y-104502135D01*
X135924000Y-105047870D01*
X135924001Y-105047876D01*
X135930408Y-105107483D01*
X135980702Y-105242328D01*
X135980703Y-105242330D01*
X136061821Y-105350689D01*
X136086238Y-105416153D01*
X136071387Y-105484426D01*
X136061821Y-105499311D01*
X135980703Y-105607669D01*
X135980702Y-105607671D01*
X135930408Y-105742517D01*
X135924001Y-105802116D01*
X135924000Y-105802135D01*
X135924000Y-105843930D01*
X135904315Y-105910969D01*
X135866573Y-105948544D01*
X134090780Y-107078594D01*
X133463912Y-107477511D01*
X133380464Y-107530614D01*
X133313891Y-107550000D01*
X127474000Y-107550000D01*
X127406961Y-107530315D01*
X127361206Y-107477511D01*
X127350000Y-107426000D01*
X127350000Y-102674000D01*
X127369685Y-102606961D01*
X127422489Y-102561206D01*
X127474000Y-102550000D01*
X135860171Y-102550000D01*
X135927210Y-102569685D01*
G37*
%TD.AperFunction*%
%TD*%
%TA.AperFunction,Conductor*%
%TO.N,/CS*%
G36*
X142600000Y-113800000D02*
G01*
X142599999Y-113800000D01*
X138226989Y-116085892D01*
X138169545Y-116100000D01*
X137074000Y-116100000D01*
X137006961Y-116080315D01*
X136961206Y-116027511D01*
X136950000Y-115976000D01*
X136950000Y-115167697D01*
X136969685Y-115100658D01*
X137006943Y-115063393D01*
X139750000Y-113300000D01*
X139750000Y-111840342D01*
X139769685Y-111773303D01*
X139786319Y-111752661D01*
X140738972Y-110800008D01*
X141693129Y-109845850D01*
X141699009Y-109840342D01*
X142564909Y-109080782D01*
X142600000Y-109064498D01*
X142600000Y-113800000D01*
G37*
%TD.AperFunction*%
%TD*%
%TA.AperFunction,Conductor*%
%TO.N,/CS*%
G36*
X152540955Y-107819685D02*
G01*
X152586710Y-107872489D01*
X152597899Y-107926066D01*
X152502032Y-113678066D01*
X152481233Y-113744769D01*
X152427674Y-113789637D01*
X152378049Y-113800000D01*
X149275557Y-113800000D01*
X149209587Y-113780995D01*
X149200758Y-113775447D01*
X149030500Y-113715871D01*
X149030487Y-113715868D01*
X148851242Y-113695673D01*
X148851234Y-113695673D01*
X148671988Y-113715868D01*
X148671975Y-113715871D01*
X148501717Y-113775447D01*
X148492889Y-113780995D01*
X148426919Y-113800000D01*
X142600000Y-113800000D01*
X142600000Y-109064497D01*
X142628286Y-109051372D01*
X142646678Y-109050000D01*
X144100000Y-109050000D01*
X144100000Y-108691954D01*
X144119685Y-108624915D01*
X144127874Y-108614753D01*
X144127731Y-108614646D01*
X144133046Y-108607546D01*
X144219296Y-108492331D01*
X144269591Y-108357483D01*
X144276000Y-108297873D01*
X144275999Y-107923998D01*
X144295683Y-107856961D01*
X144348487Y-107811206D01*
X144399999Y-107800000D01*
X152473916Y-107800000D01*
X152540955Y-107819685D01*
G37*
%TD.AperFunction*%
%TD*%
%TA.AperFunction,Conductor*%
%TO.N,/OS1*%
G36*
X137981388Y-111594842D02*
G01*
X138047507Y-111617420D01*
X138090925Y-111672162D01*
X138100000Y-111718725D01*
X138100000Y-113134465D01*
X138080315Y-113201504D01*
X138045854Y-113236917D01*
X135675669Y-114852952D01*
X135609190Y-114874454D01*
X135605815Y-114874500D01*
X135024998Y-114874500D01*
X135024980Y-114874501D01*
X134922203Y-114885000D01*
X134922200Y-114885001D01*
X134755668Y-114940185D01*
X134755663Y-114940187D01*
X134606342Y-115032289D01*
X134482289Y-115156342D01*
X134390187Y-115305663D01*
X134390186Y-115305666D01*
X134335001Y-115472203D01*
X134335001Y-115472204D01*
X134335000Y-115472204D01*
X134324500Y-115574983D01*
X134324500Y-115708669D01*
X134304815Y-115775708D01*
X134270354Y-115811121D01*
X133728821Y-116180349D01*
X133665159Y-116201742D01*
X131830192Y-116293490D01*
X131762253Y-116277178D01*
X131713919Y-116226725D01*
X131700000Y-116169645D01*
X131700000Y-114671368D01*
X131719685Y-114604329D01*
X131761708Y-114564150D01*
X136918604Y-111568239D01*
X136986276Y-111551577D01*
X137981388Y-111594842D01*
G37*
%TD.AperFunction*%
%TD*%
M02*
