%TF.GenerationSoftware,KiCad,Pcbnew,8.0.6-1.fc40*%
%TF.CreationDate,2024-12-02T14:58:13+01:00*%
%TF.ProjectId,PeltierDriver,50656c74-6965-4724-9472-697665722e6b,rev?*%
%TF.SameCoordinates,Original*%
%TF.FileFunction,Soldermask,Top*%
%TF.FilePolarity,Negative*%
%FSLAX46Y46*%
G04 Gerber Fmt 4.6, Leading zero omitted, Abs format (unit mm)*
G04 Created by KiCad (PCBNEW 8.0.6-1.fc40) date 2024-12-02 14:58:13*
%MOMM*%
%LPD*%
G01*
G04 APERTURE LIST*
G04 Aperture macros list*
%AMRoundRect*
0 Rectangle with rounded corners*
0 $1 Rounding radius*
0 $2 $3 $4 $5 $6 $7 $8 $9 X,Y pos of 4 corners*
0 Add a 4 corners polygon primitive as box body*
4,1,4,$2,$3,$4,$5,$6,$7,$8,$9,$2,$3,0*
0 Add four circle primitives for the rounded corners*
1,1,$1+$1,$2,$3*
1,1,$1+$1,$4,$5*
1,1,$1+$1,$6,$7*
1,1,$1+$1,$8,$9*
0 Add four rect primitives between the rounded corners*
20,1,$1+$1,$2,$3,$4,$5,0*
20,1,$1+$1,$4,$5,$6,$7,0*
20,1,$1+$1,$6,$7,$8,$9,0*
20,1,$1+$1,$8,$9,$2,$3,0*%
G04 Aperture macros list end*
%ADD10R,1.700000X1.700000*%
%ADD11O,1.700000X1.700000*%
%ADD12C,3.200000*%
%ADD13R,1.475000X0.450000*%
%ADD14RoundRect,0.250000X-0.337500X-0.475000X0.337500X-0.475000X0.337500X0.475000X-0.337500X0.475000X0*%
%ADD15RoundRect,0.250000X0.450000X-0.350000X0.450000X0.350000X-0.450000X0.350000X-0.450000X-0.350000X0*%
%ADD16R,5.100000X2.050000*%
%ADD17RoundRect,0.250000X0.400000X0.625000X-0.400000X0.625000X-0.400000X-0.625000X0.400000X-0.625000X0*%
G04 APERTURE END LIST*
D10*
%TO.C,VIBR1*%
X129050000Y-94430000D03*
D11*
X129050000Y-91890000D03*
X129050000Y-89350000D03*
X129050000Y-86810000D03*
X129050000Y-84270000D03*
X116350000Y-91890000D03*
X116350000Y-86810000D03*
%TD*%
D12*
%TO.C,REF\u002A\u002A*%
X117900000Y-79900000D03*
%TD*%
D13*
%TO.C,IC1*%
X137162000Y-99575000D03*
X137162000Y-100225000D03*
X137162000Y-100875000D03*
X137162000Y-101525000D03*
X137162000Y-102175000D03*
X137162000Y-102825000D03*
X137162000Y-103475000D03*
X137162000Y-104125000D03*
X137162000Y-104775000D03*
X137162000Y-105425000D03*
X137162000Y-106075000D03*
X137162000Y-106725000D03*
X137162000Y-107375000D03*
X137162000Y-108025000D03*
X143038000Y-108025000D03*
X143038000Y-107375000D03*
X143038000Y-106725000D03*
X143038000Y-106075000D03*
X143038000Y-105425000D03*
X143038000Y-104775000D03*
X143038000Y-104125000D03*
X143038000Y-103475000D03*
X143038000Y-102825000D03*
X143038000Y-102175000D03*
X143038000Y-101525000D03*
X143038000Y-100875000D03*
X143038000Y-100225000D03*
X143038000Y-99575000D03*
%TD*%
D14*
%TO.C,C8*%
X135412500Y-116100000D03*
X137487500Y-116100000D03*
%TD*%
D10*
%TO.C,J2*%
X115700000Y-106875000D03*
D11*
X115700000Y-104335000D03*
%TD*%
D15*
%TO.C,R1*%
X145100000Y-100300000D03*
X145100000Y-98300000D03*
%TD*%
D10*
%TO.C,Flex1*%
X152675000Y-115600000D03*
D11*
X155215000Y-115600000D03*
%TD*%
D10*
%TO.C,TH1*%
X143675000Y-115600000D03*
D11*
X146215000Y-115600000D03*
%TD*%
D10*
%TO.C,J4*%
X134825000Y-82525000D03*
D11*
X137365000Y-82525000D03*
X134825000Y-85065000D03*
X137365000Y-85065000D03*
%TD*%
D16*
%TO.C,L2*%
X130788000Y-105850000D03*
X130788000Y-110200000D03*
%TD*%
D14*
%TO.C,C7*%
X136250500Y-110275000D03*
X138325500Y-110275000D03*
%TD*%
D10*
%TO.C,J6*%
X142075000Y-77775000D03*
D11*
X144615000Y-77775000D03*
X142075000Y-80315000D03*
X144615000Y-80315000D03*
X142075000Y-82855000D03*
X144615000Y-82855000D03*
%TD*%
D10*
%TO.C,PE1*%
X132575000Y-115400000D03*
D11*
X130035000Y-115400000D03*
%TD*%
D10*
%TO.C,VIBR2*%
X150350000Y-84270000D03*
D11*
X150350000Y-86810000D03*
X150350000Y-89350000D03*
X150350000Y-91890000D03*
X150350000Y-94430000D03*
X163050000Y-86810000D03*
X163050000Y-91890000D03*
%TD*%
D10*
%TO.C,J1*%
X138575000Y-89050000D03*
D11*
X141115000Y-89050000D03*
%TD*%
D17*
%TO.C,R3*%
X140450000Y-112550000D03*
X137350000Y-112550000D03*
%TD*%
D15*
%TO.C,R2*%
X143086863Y-97639693D03*
X143086863Y-95639693D03*
%TD*%
D10*
%TO.C,J3*%
X163700000Y-104325000D03*
D11*
X163700000Y-106865000D03*
%TD*%
D12*
%TO.C,REF\u002A\u002A*%
X161450000Y-113500000D03*
%TD*%
%TO.C,REF\u002A\u002A*%
X117900000Y-113500000D03*
%TD*%
D16*
%TO.C,L1*%
X149100000Y-105375000D03*
X149100000Y-109725000D03*
%TD*%
D12*
%TO.C,REF\u002A\u002A*%
X161500000Y-79900000D03*
%TD*%
M02*
