%TF.GenerationSoftware,KiCad,Pcbnew,8.0.6-1.fc40*%
%TF.CreationDate,2024-12-02T14:58:13+01:00*%
%TF.ProjectId,PeltierDriver,50656c74-6965-4724-9472-697665722e6b,rev?*%
%TF.SameCoordinates,Original*%
%TF.FileFunction,Copper,L3,Inr*%
%TF.FilePolarity,Positive*%
%FSLAX46Y46*%
G04 Gerber Fmt 4.6, Leading zero omitted, Abs format (unit mm)*
G04 Created by KiCad (PCBNEW 8.0.6-1.fc40) date 2024-12-02 14:58:13*
%MOMM*%
%LPD*%
G01*
G04 APERTURE LIST*
%TA.AperFunction,ComponentPad*%
%ADD10R,1.700000X1.700000*%
%TD*%
%TA.AperFunction,ComponentPad*%
%ADD11O,1.700000X1.700000*%
%TD*%
%TA.AperFunction,ComponentPad*%
%ADD12C,3.200000*%
%TD*%
%TA.AperFunction,ViaPad*%
%ADD13C,0.600000*%
%TD*%
G04 APERTURE END LIST*
D10*
%TO.N,PVDD1*%
%TO.C,VIBR1*%
X129050000Y-94430000D03*
D11*
%TO.N,GND*%
X129050000Y-91890000D03*
%TO.N,VIBR1_SCL*%
X129050000Y-89350000D03*
%TO.N,VIBR1_SDA*%
X129050000Y-86810000D03*
%TO.N,VIBR1_INT*%
X129050000Y-84270000D03*
%TO.N,Net-(J2-Pin_2)*%
X116350000Y-91890000D03*
%TO.N,Net-(J2-Pin_1)*%
X116350000Y-86810000D03*
%TD*%
D12*
%TO.N,*%
%TO.C,REF\u002A\u002A*%
X117900000Y-79900000D03*
%TD*%
D10*
%TO.N,Net-(J2-Pin_1)*%
%TO.C,J2*%
X115700000Y-106875000D03*
D11*
%TO.N,Net-(J2-Pin_2)*%
X115700000Y-104335000D03*
%TD*%
D10*
%TO.N,PVDD1*%
%TO.C,Flex1*%
X152675000Y-115600000D03*
D11*
%TO.N,Net-(U1A-+)*%
X155215000Y-115600000D03*
%TD*%
D10*
%TO.N,GND*%
%TO.C,TH1*%
X143675000Y-115600000D03*
D11*
%TO.N,Net-(U1B-+)*%
X146215000Y-115600000D03*
%TD*%
D10*
%TO.N,ITEC_OUT*%
%TO.C,J4*%
X134825000Y-82525000D03*
D11*
%TO.N,FLEX_OUT*%
X137365000Y-82525000D03*
%TO.N,TEMP_IN*%
X134825000Y-85065000D03*
%TO.N,TEMP_OUT*%
X137365000Y-85065000D03*
%TD*%
D10*
%TO.N,VIBR1_INT*%
%TO.C,J6*%
X142075000Y-77775000D03*
D11*
%TO.N,VIBR2_INT*%
X144615000Y-77775000D03*
%TO.N,VIBR1_SDA*%
X142075000Y-80315000D03*
%TO.N,VIBR2_SDA*%
X144615000Y-80315000D03*
%TO.N,VIBR1_SCL*%
X142075000Y-82855000D03*
%TO.N,VIBR2_SCL*%
X144615000Y-82855000D03*
%TD*%
D10*
%TO.N,/OS1*%
%TO.C,PE1*%
X132575000Y-115400000D03*
D11*
%TO.N,/OS2*%
X130035000Y-115400000D03*
%TD*%
D10*
%TO.N,PVDD1*%
%TO.C,VIBR2*%
X150350000Y-84270000D03*
D11*
%TO.N,GND*%
X150350000Y-86810000D03*
%TO.N,VIBR2_SCL*%
X150350000Y-89350000D03*
%TO.N,VIBR2_SDA*%
X150350000Y-91890000D03*
%TO.N,VIBR2_INT*%
X150350000Y-94430000D03*
%TO.N,Net-(J3-Pin_2)*%
X163050000Y-86810000D03*
%TO.N,Net-(J3-Pin_1)*%
X163050000Y-91890000D03*
%TD*%
D10*
%TO.N,GND*%
%TO.C,J1*%
X138575000Y-89050000D03*
D11*
%TO.N,PVDD1*%
X141115000Y-89050000D03*
%TD*%
D10*
%TO.N,Net-(J3-Pin_1)*%
%TO.C,J3*%
X163700000Y-104325000D03*
D11*
%TO.N,Net-(J3-Pin_2)*%
X163700000Y-106865000D03*
%TD*%
D12*
%TO.N,*%
%TO.C,REF\u002A\u002A*%
X161450000Y-113500000D03*
%TD*%
%TO.N,*%
%TO.C,REF\u002A\u002A*%
X117900000Y-113500000D03*
%TD*%
%TO.N,*%
%TO.C,REF\u002A\u002A*%
X161500000Y-79900000D03*
%TD*%
D13*
%TO.N,PVDD1*%
X148851238Y-114501238D03*
X141300000Y-105500000D03*
X136800000Y-98500000D03*
X138900000Y-105400000D03*
%TO.N,GND*%
X138399502Y-104105000D03*
X138600000Y-108800000D03*
X144200000Y-95100000D03*
X141770000Y-101850000D03*
X141700000Y-107600000D03*
X146350000Y-98550000D03*
X149950000Y-100350000D03*
X154200000Y-108850000D03*
X140500000Y-108200000D03*
X135600000Y-100050000D03*
X138450000Y-107600000D03*
X138344511Y-102199317D03*
X154450000Y-100350000D03*
X138822257Y-106877902D03*
X138350000Y-103300000D03*
X138300000Y-98600000D03*
X155975002Y-107350000D03*
X141770000Y-103300000D03*
%TO.N,REF*%
X141770000Y-100550000D03*
X138315739Y-101377031D03*
%TO.N,COMP*%
X144350000Y-101800000D03*
%TO.N,ITEC_OUT*%
X135325000Y-97725000D03*
X135850000Y-107050000D03*
%TO.N,/CS*%
X141500000Y-110600000D03*
%TD*%
%TA.AperFunction,Conductor*%
%TO.N,GND*%
G36*
X163503472Y-75700695D02*
G01*
X163795306Y-75717084D01*
X163809103Y-75718638D01*
X164093827Y-75767015D01*
X164107384Y-75770109D01*
X164384899Y-75850060D01*
X164398025Y-75854653D01*
X164664841Y-75965172D01*
X164677355Y-75971198D01*
X164843444Y-76062992D01*
X164930125Y-76110899D01*
X164941899Y-76118297D01*
X165177430Y-76285415D01*
X165188302Y-76294085D01*
X165397686Y-76481202D01*
X165403642Y-76486524D01*
X165413475Y-76496357D01*
X165605914Y-76711697D01*
X165614584Y-76722569D01*
X165781702Y-76958100D01*
X165789100Y-76969874D01*
X165928797Y-77222637D01*
X165934830Y-77235165D01*
X166045346Y-77501975D01*
X166049939Y-77515100D01*
X166129890Y-77792615D01*
X166132984Y-77806172D01*
X166181359Y-78090885D01*
X166182916Y-78104703D01*
X166199305Y-78396527D01*
X166199500Y-78403480D01*
X166199500Y-114996519D01*
X166199305Y-115003472D01*
X166182916Y-115295296D01*
X166181359Y-115309114D01*
X166132984Y-115593827D01*
X166129890Y-115607384D01*
X166049939Y-115884899D01*
X166045346Y-115898024D01*
X165934830Y-116164834D01*
X165928797Y-116177362D01*
X165789100Y-116430125D01*
X165781702Y-116441899D01*
X165614584Y-116677430D01*
X165605914Y-116688302D01*
X165413475Y-116903642D01*
X165403642Y-116913475D01*
X165188302Y-117105914D01*
X165177430Y-117114584D01*
X164941899Y-117281702D01*
X164930125Y-117289100D01*
X164677362Y-117428797D01*
X164664834Y-117434830D01*
X164398024Y-117545346D01*
X164384899Y-117549939D01*
X164107384Y-117629890D01*
X164093827Y-117632984D01*
X163809114Y-117681359D01*
X163795296Y-117682916D01*
X163503472Y-117699305D01*
X163496519Y-117699500D01*
X115903481Y-117699500D01*
X115896528Y-117699305D01*
X115604703Y-117682916D01*
X115590885Y-117681359D01*
X115306172Y-117632984D01*
X115292615Y-117629890D01*
X115015100Y-117549939D01*
X115001975Y-117545346D01*
X114735165Y-117434830D01*
X114722637Y-117428797D01*
X114469874Y-117289100D01*
X114458100Y-117281702D01*
X114222569Y-117114584D01*
X114211697Y-117105914D01*
X114037786Y-116950498D01*
X113996355Y-116913473D01*
X113986524Y-116903642D01*
X113977722Y-116893793D01*
X113797689Y-116692335D01*
X113794085Y-116688302D01*
X113785415Y-116677430D01*
X113782912Y-116673903D01*
X113663058Y-116504984D01*
X113618297Y-116441899D01*
X113610899Y-116430125D01*
X113537806Y-116297873D01*
X113471198Y-116177355D01*
X113465172Y-116164841D01*
X113354653Y-115898024D01*
X113350060Y-115884899D01*
X113270109Y-115607384D01*
X113267015Y-115593827D01*
X113218638Y-115309103D01*
X113217084Y-115295306D01*
X113200695Y-115003472D01*
X113200500Y-114996519D01*
X113200500Y-113499999D01*
X115794592Y-113499999D01*
X115799211Y-113567525D01*
X115799500Y-113575987D01*
X115799500Y-113637676D01*
X115808377Y-113705110D01*
X115809149Y-113712830D01*
X115814201Y-113786683D01*
X115814202Y-113786687D01*
X115826683Y-113846756D01*
X115828215Y-113855793D01*
X115835440Y-113910666D01*
X115854687Y-113982497D01*
X115856314Y-113989343D01*
X115867743Y-114044341D01*
X115872665Y-114068028D01*
X115872667Y-114068036D01*
X115891083Y-114119853D01*
X115894016Y-114129278D01*
X115906705Y-114176632D01*
X115906706Y-114176636D01*
X115906708Y-114176641D01*
X115937585Y-114251186D01*
X115939864Y-114257112D01*
X115968894Y-114338792D01*
X115968896Y-114338798D01*
X115991287Y-114382011D01*
X115995749Y-114391604D01*
X116009982Y-114425965D01*
X116012077Y-114431021D01*
X116055598Y-114506402D01*
X116058297Y-114511333D01*
X116084295Y-114561505D01*
X116101098Y-114593934D01*
X116125507Y-114628515D01*
X116131587Y-114638019D01*
X116149751Y-114669479D01*
X116195113Y-114728597D01*
X116206586Y-114743548D01*
X116209483Y-114747482D01*
X116266811Y-114828698D01*
X116291378Y-114855003D01*
X116299120Y-114864141D01*
X116317372Y-114887928D01*
X116387877Y-114958433D01*
X116390791Y-114961449D01*
X116462939Y-115038700D01*
X116462958Y-115038718D01*
X116485932Y-115057408D01*
X116495362Y-115065918D01*
X116512073Y-115082629D01*
X116596189Y-115147173D01*
X116598958Y-115149361D01*
X116617679Y-115164592D01*
X116685853Y-115220055D01*
X116705760Y-115232161D01*
X116716804Y-115239724D01*
X116730521Y-115250249D01*
X116827843Y-115306437D01*
X116830192Y-115307829D01*
X116931375Y-115369361D01*
X116946915Y-115376110D01*
X116959515Y-115382459D01*
X116968967Y-115387917D01*
X116968972Y-115387919D01*
X116968979Y-115387923D01*
X117078624Y-115433340D01*
X117078646Y-115433349D01*
X117080546Y-115434155D01*
X117194942Y-115483844D01*
X117205143Y-115486702D01*
X117219128Y-115491538D01*
X117223368Y-115493295D01*
X117344255Y-115525686D01*
X117345435Y-115526010D01*
X117471642Y-115561371D01*
X117475832Y-115561946D01*
X117485329Y-115563864D01*
X117485349Y-115563767D01*
X117489319Y-115564556D01*
X117489334Y-115564560D01*
X117619708Y-115581723D01*
X117620127Y-115581779D01*
X117720712Y-115595605D01*
X117756321Y-115600500D01*
X117756322Y-115600500D01*
X118043679Y-115600500D01*
X118092224Y-115593827D01*
X118179908Y-115581774D01*
X118180230Y-115581731D01*
X118310666Y-115564560D01*
X118310683Y-115564555D01*
X118314649Y-115563767D01*
X118314668Y-115563865D01*
X118324183Y-115561944D01*
X118328358Y-115561371D01*
X118454595Y-115526001D01*
X118455748Y-115525685D01*
X118576632Y-115493295D01*
X118580867Y-115491540D01*
X118594865Y-115486699D01*
X118605058Y-115483844D01*
X118719502Y-115434133D01*
X118721353Y-115433349D01*
X118801867Y-115399999D01*
X128679341Y-115399999D01*
X128679341Y-115400000D01*
X128699936Y-115635403D01*
X128699938Y-115635413D01*
X128761094Y-115863655D01*
X128761096Y-115863659D01*
X128761097Y-115863663D01*
X128771000Y-115884899D01*
X128860965Y-116077830D01*
X128860967Y-116077834D01*
X128930658Y-116177362D01*
X128996505Y-116271401D01*
X129163599Y-116438495D01*
X129248404Y-116497876D01*
X129357165Y-116574032D01*
X129357167Y-116574033D01*
X129357170Y-116574035D01*
X129571337Y-116673903D01*
X129799592Y-116735063D01*
X129976034Y-116750500D01*
X130034999Y-116755659D01*
X130035000Y-116755659D01*
X130035001Y-116755659D01*
X130093966Y-116750500D01*
X130270408Y-116735063D01*
X130498663Y-116673903D01*
X130712830Y-116574035D01*
X130906401Y-116438495D01*
X131028329Y-116316566D01*
X131089648Y-116283084D01*
X131159340Y-116288068D01*
X131215274Y-116329939D01*
X131232189Y-116360917D01*
X131281202Y-116492328D01*
X131281206Y-116492335D01*
X131367452Y-116607544D01*
X131367455Y-116607547D01*
X131482664Y-116693793D01*
X131482671Y-116693797D01*
X131617517Y-116744091D01*
X131617516Y-116744091D01*
X131624444Y-116744835D01*
X131677127Y-116750500D01*
X133472872Y-116750499D01*
X133532483Y-116744091D01*
X133667331Y-116693796D01*
X133782546Y-116607546D01*
X133868796Y-116492331D01*
X133919091Y-116357483D01*
X133925500Y-116297873D01*
X133925500Y-115599999D01*
X144859341Y-115599999D01*
X144859341Y-115600000D01*
X144879936Y-115835403D01*
X144879938Y-115835413D01*
X144941094Y-116063655D01*
X144941096Y-116063659D01*
X144941097Y-116063663D01*
X144988274Y-116164834D01*
X145040965Y-116277830D01*
X145040967Y-116277834D01*
X145099143Y-116360917D01*
X145176505Y-116471401D01*
X145343599Y-116638495D01*
X145422573Y-116693793D01*
X145537165Y-116774032D01*
X145537167Y-116774033D01*
X145537170Y-116774035D01*
X145751337Y-116873903D01*
X145979592Y-116935063D01*
X146156034Y-116950500D01*
X146214999Y-116955659D01*
X146215000Y-116955659D01*
X146215001Y-116955659D01*
X146273966Y-116950500D01*
X146450408Y-116935063D01*
X146678663Y-116873903D01*
X146892830Y-116774035D01*
X147086401Y-116638495D01*
X147253495Y-116471401D01*
X147389035Y-116277830D01*
X147488903Y-116063663D01*
X147550063Y-115835408D01*
X147570659Y-115600000D01*
X147550063Y-115364592D01*
X147492095Y-115148248D01*
X147488905Y-115136344D01*
X147488904Y-115136343D01*
X147488903Y-115136337D01*
X147389035Y-114922171D01*
X147365062Y-114887933D01*
X147253494Y-114728597D01*
X147086402Y-114561506D01*
X147086395Y-114561501D01*
X147000326Y-114501234D01*
X148045673Y-114501234D01*
X148045673Y-114501241D01*
X148065868Y-114680487D01*
X148065869Y-114680492D01*
X148125449Y-114850761D01*
X148195018Y-114961479D01*
X148221422Y-115003500D01*
X148348976Y-115131054D01*
X148402358Y-115164596D01*
X148490605Y-115220046D01*
X148501716Y-115227027D01*
X148538031Y-115239734D01*
X148671983Y-115286606D01*
X148671988Y-115286607D01*
X148851234Y-115306803D01*
X148851238Y-115306803D01*
X148851242Y-115306803D01*
X149030487Y-115286607D01*
X149030490Y-115286606D01*
X149030493Y-115286606D01*
X149200760Y-115227027D01*
X149353500Y-115131054D01*
X149481054Y-115003500D01*
X149577027Y-114850760D01*
X149629033Y-114702135D01*
X151324500Y-114702135D01*
X151324500Y-116497870D01*
X151324501Y-116497876D01*
X151330908Y-116557483D01*
X151381202Y-116692328D01*
X151381206Y-116692335D01*
X151467452Y-116807544D01*
X151467455Y-116807547D01*
X151582664Y-116893793D01*
X151582671Y-116893797D01*
X151717517Y-116944091D01*
X151717516Y-116944091D01*
X151724444Y-116944835D01*
X151777127Y-116950500D01*
X153572872Y-116950499D01*
X153632483Y-116944091D01*
X153767331Y-116893796D01*
X153882546Y-116807546D01*
X153968796Y-116692331D01*
X154017810Y-116560916D01*
X154059681Y-116504984D01*
X154125145Y-116480566D01*
X154193418Y-116495417D01*
X154221673Y-116516569D01*
X154343599Y-116638495D01*
X154422573Y-116693793D01*
X154537165Y-116774032D01*
X154537167Y-116774033D01*
X154537170Y-116774035D01*
X154751337Y-116873903D01*
X154979592Y-116935063D01*
X155156034Y-116950500D01*
X155214999Y-116955659D01*
X155215000Y-116955659D01*
X155215001Y-116955659D01*
X155273966Y-116950500D01*
X155450408Y-116935063D01*
X155678663Y-116873903D01*
X155892830Y-116774035D01*
X156086401Y-116638495D01*
X156253495Y-116471401D01*
X156389035Y-116277830D01*
X156488903Y-116063663D01*
X156550063Y-115835408D01*
X156570659Y-115600000D01*
X156550063Y-115364592D01*
X156492095Y-115148248D01*
X156488905Y-115136344D01*
X156488904Y-115136343D01*
X156488903Y-115136337D01*
X156389035Y-114922171D01*
X156365062Y-114887933D01*
X156253494Y-114728597D01*
X156086402Y-114561506D01*
X156086395Y-114561501D01*
X155892834Y-114425967D01*
X155892830Y-114425965D01*
X155892828Y-114425964D01*
X155678663Y-114326097D01*
X155678659Y-114326096D01*
X155678655Y-114326094D01*
X155450413Y-114264938D01*
X155450403Y-114264936D01*
X155215001Y-114244341D01*
X155214999Y-114244341D01*
X154979596Y-114264936D01*
X154979586Y-114264938D01*
X154751344Y-114326094D01*
X154751335Y-114326098D01*
X154537171Y-114425964D01*
X154537169Y-114425965D01*
X154343600Y-114561503D01*
X154221673Y-114683430D01*
X154160350Y-114716914D01*
X154090658Y-114711930D01*
X154034725Y-114670058D01*
X154017810Y-114639081D01*
X153968797Y-114507671D01*
X153968793Y-114507664D01*
X153882547Y-114392455D01*
X153882544Y-114392452D01*
X153767335Y-114306206D01*
X153767328Y-114306202D01*
X153632482Y-114255908D01*
X153632483Y-114255908D01*
X153572883Y-114249501D01*
X153572881Y-114249500D01*
X153572873Y-114249500D01*
X153572864Y-114249500D01*
X151777129Y-114249500D01*
X151777123Y-114249501D01*
X151717516Y-114255908D01*
X151582671Y-114306202D01*
X151582664Y-114306206D01*
X151467455Y-114392452D01*
X151467452Y-114392455D01*
X151381206Y-114507664D01*
X151381202Y-114507671D01*
X151330908Y-114642517D01*
X151324501Y-114702116D01*
X151324500Y-114702135D01*
X149629033Y-114702135D01*
X149636606Y-114680493D01*
X149637846Y-114669487D01*
X149656803Y-114501241D01*
X149656803Y-114501234D01*
X149636607Y-114321988D01*
X149636606Y-114321983D01*
X149609438Y-114244341D01*
X149577027Y-114151716D01*
X149562931Y-114129283D01*
X149481053Y-113998975D01*
X149353500Y-113871422D01*
X149200761Y-113775449D01*
X149030492Y-113715869D01*
X149030487Y-113715868D01*
X148851242Y-113695673D01*
X148851234Y-113695673D01*
X148671988Y-113715868D01*
X148671983Y-113715869D01*
X148501714Y-113775449D01*
X148348975Y-113871422D01*
X148221422Y-113998975D01*
X148125449Y-114151714D01*
X148065869Y-114321983D01*
X148065868Y-114321988D01*
X148045673Y-114501234D01*
X147000326Y-114501234D01*
X146892834Y-114425967D01*
X146892830Y-114425965D01*
X146892828Y-114425964D01*
X146678663Y-114326097D01*
X146678659Y-114326096D01*
X146678655Y-114326094D01*
X146450413Y-114264938D01*
X146450403Y-114264936D01*
X146215001Y-114244341D01*
X146214999Y-114244341D01*
X145979596Y-114264936D01*
X145979586Y-114264938D01*
X145751344Y-114326094D01*
X145751335Y-114326098D01*
X145537171Y-114425964D01*
X145537169Y-114425965D01*
X145343597Y-114561505D01*
X145176505Y-114728597D01*
X145040965Y-114922169D01*
X145040964Y-114922171D01*
X144941098Y-115136335D01*
X144941094Y-115136344D01*
X144879938Y-115364586D01*
X144879936Y-115364596D01*
X144859341Y-115599999D01*
X133925500Y-115599999D01*
X133925499Y-114502128D01*
X133919091Y-114442517D01*
X133917810Y-114439083D01*
X133868797Y-114307671D01*
X133868793Y-114307664D01*
X133782547Y-114192455D01*
X133782544Y-114192452D01*
X133667335Y-114106206D01*
X133667328Y-114106202D01*
X133532482Y-114055908D01*
X133532483Y-114055908D01*
X133472883Y-114049501D01*
X133472881Y-114049500D01*
X133472873Y-114049500D01*
X133472864Y-114049500D01*
X131677129Y-114049500D01*
X131677123Y-114049501D01*
X131617516Y-114055908D01*
X131482671Y-114106202D01*
X131482664Y-114106206D01*
X131367455Y-114192452D01*
X131367452Y-114192455D01*
X131281206Y-114307664D01*
X131281203Y-114307669D01*
X131232189Y-114439083D01*
X131190317Y-114495016D01*
X131124853Y-114519433D01*
X131056580Y-114504581D01*
X131028326Y-114483430D01*
X130906402Y-114361506D01*
X130906395Y-114361501D01*
X130873973Y-114338799D01*
X130829518Y-114307671D01*
X130712834Y-114225967D01*
X130712830Y-114225965D01*
X130712828Y-114225964D01*
X130498663Y-114126097D01*
X130498659Y-114126096D01*
X130498655Y-114126094D01*
X130270413Y-114064938D01*
X130270403Y-114064936D01*
X130035001Y-114044341D01*
X130034999Y-114044341D01*
X129799596Y-114064936D01*
X129799586Y-114064938D01*
X129571344Y-114126094D01*
X129571335Y-114126098D01*
X129357171Y-114225964D01*
X129357169Y-114225965D01*
X129163597Y-114361505D01*
X128996505Y-114528597D01*
X128860965Y-114722169D01*
X128860964Y-114722171D01*
X128761098Y-114936335D01*
X128761094Y-114936344D01*
X128699938Y-115164586D01*
X128699936Y-115164596D01*
X128679341Y-115399999D01*
X118801867Y-115399999D01*
X118831021Y-115387923D01*
X118840488Y-115382456D01*
X118853082Y-115376111D01*
X118868625Y-115369361D01*
X118969797Y-115307834D01*
X118972138Y-115306447D01*
X119069479Y-115250249D01*
X119083202Y-115239717D01*
X119094233Y-115232164D01*
X119114147Y-115220055D01*
X119201064Y-115149342D01*
X119203766Y-115147206D01*
X119287928Y-115082628D01*
X119304653Y-115065901D01*
X119314050Y-115057421D01*
X119337053Y-115038708D01*
X119409208Y-114961447D01*
X119412122Y-114958433D01*
X119482623Y-114887933D01*
X119482623Y-114887932D01*
X119482628Y-114887928D01*
X119500878Y-114864141D01*
X119508618Y-114855006D01*
X119533189Y-114828698D01*
X119590501Y-114747502D01*
X119593409Y-114743554D01*
X119609818Y-114722169D01*
X119650249Y-114669479D01*
X119668425Y-114637995D01*
X119674485Y-114628524D01*
X119698901Y-114593936D01*
X119741700Y-114511336D01*
X119744401Y-114506402D01*
X119757664Y-114483430D01*
X119787923Y-114431021D01*
X119804261Y-114391575D01*
X119808705Y-114382023D01*
X119831104Y-114338797D01*
X119860143Y-114257085D01*
X119862400Y-114251216D01*
X119893295Y-114176632D01*
X119905981Y-114129281D01*
X119908906Y-114119880D01*
X119927334Y-114068032D01*
X119943688Y-113989322D01*
X119945306Y-113982518D01*
X119964560Y-113910666D01*
X119971789Y-113855745D01*
X119973309Y-113846782D01*
X119985798Y-113786686D01*
X119990850Y-113712830D01*
X119991621Y-113705113D01*
X119991622Y-113705110D01*
X120000500Y-113637674D01*
X120000500Y-113575987D01*
X120000789Y-113567525D01*
X120005408Y-113500000D01*
X120005408Y-113499999D01*
X159344592Y-113499999D01*
X159349211Y-113567525D01*
X159349500Y-113575987D01*
X159349500Y-113637676D01*
X159358377Y-113705110D01*
X159359149Y-113712830D01*
X159364201Y-113786683D01*
X159364202Y-113786687D01*
X159376683Y-113846756D01*
X159378215Y-113855793D01*
X159385440Y-113910666D01*
X159404687Y-113982497D01*
X159406314Y-113989343D01*
X159417743Y-114044341D01*
X159422665Y-114068028D01*
X159422667Y-114068036D01*
X159441083Y-114119853D01*
X159444016Y-114129278D01*
X159456705Y-114176632D01*
X159456706Y-114176636D01*
X159456708Y-114176641D01*
X159487585Y-114251186D01*
X159489864Y-114257112D01*
X159518894Y-114338792D01*
X159518896Y-114338798D01*
X159541287Y-114382011D01*
X159545749Y-114391604D01*
X159559982Y-114425965D01*
X159562077Y-114431021D01*
X159605598Y-114506402D01*
X159608297Y-114511333D01*
X159634295Y-114561505D01*
X159651098Y-114593934D01*
X159675507Y-114628515D01*
X159681587Y-114638019D01*
X159699751Y-114669479D01*
X159745113Y-114728597D01*
X159756586Y-114743548D01*
X159759483Y-114747482D01*
X159816811Y-114828698D01*
X159841378Y-114855003D01*
X159849120Y-114864141D01*
X159867372Y-114887928D01*
X159937877Y-114958433D01*
X159940791Y-114961449D01*
X160012939Y-115038700D01*
X160012958Y-115038718D01*
X160035932Y-115057408D01*
X160045362Y-115065918D01*
X160062073Y-115082629D01*
X160146189Y-115147173D01*
X160148958Y-115149361D01*
X160167679Y-115164592D01*
X160235853Y-115220055D01*
X160255760Y-115232161D01*
X160266804Y-115239724D01*
X160280521Y-115250249D01*
X160377843Y-115306437D01*
X160380192Y-115307829D01*
X160481375Y-115369361D01*
X160496915Y-115376110D01*
X160509515Y-115382459D01*
X160518967Y-115387917D01*
X160518972Y-115387919D01*
X160518979Y-115387923D01*
X160628624Y-115433340D01*
X160628646Y-115433349D01*
X160630546Y-115434155D01*
X160744942Y-115483844D01*
X160755143Y-115486702D01*
X160769128Y-115491538D01*
X160773368Y-115493295D01*
X160894255Y-115525686D01*
X160895435Y-115526010D01*
X161021642Y-115561371D01*
X161025832Y-115561946D01*
X161035329Y-115563864D01*
X161035349Y-115563767D01*
X161039319Y-115564556D01*
X161039334Y-115564560D01*
X161169708Y-115581723D01*
X161170127Y-115581779D01*
X161270712Y-115595605D01*
X161306321Y-115600500D01*
X161306322Y-115600500D01*
X161593679Y-115600500D01*
X161642224Y-115593827D01*
X161729908Y-115581774D01*
X161730230Y-115581731D01*
X161860666Y-115564560D01*
X161860683Y-115564555D01*
X161864649Y-115563767D01*
X161864668Y-115563865D01*
X161874183Y-115561944D01*
X161878358Y-115561371D01*
X162004595Y-115526001D01*
X162005748Y-115525685D01*
X162126632Y-115493295D01*
X162130867Y-115491540D01*
X162144865Y-115486699D01*
X162155058Y-115483844D01*
X162269502Y-115434133D01*
X162271353Y-115433349D01*
X162381021Y-115387923D01*
X162390488Y-115382456D01*
X162403082Y-115376111D01*
X162418625Y-115369361D01*
X162519797Y-115307834D01*
X162522138Y-115306447D01*
X162619479Y-115250249D01*
X162633202Y-115239717D01*
X162644233Y-115232164D01*
X162664147Y-115220055D01*
X162751064Y-115149342D01*
X162753766Y-115147206D01*
X162837928Y-115082628D01*
X162854653Y-115065901D01*
X162864050Y-115057421D01*
X162887053Y-115038708D01*
X162959208Y-114961447D01*
X162962122Y-114958433D01*
X163032623Y-114887933D01*
X163032623Y-114887932D01*
X163032628Y-114887928D01*
X163050878Y-114864141D01*
X163058618Y-114855006D01*
X163083189Y-114828698D01*
X163140501Y-114747502D01*
X163143409Y-114743554D01*
X163159818Y-114722169D01*
X163200249Y-114669479D01*
X163218425Y-114637995D01*
X163224485Y-114628524D01*
X163248901Y-114593936D01*
X163291700Y-114511336D01*
X163294401Y-114506402D01*
X163307664Y-114483430D01*
X163337923Y-114431021D01*
X163354261Y-114391575D01*
X163358705Y-114382023D01*
X163381104Y-114338797D01*
X163410143Y-114257085D01*
X163412400Y-114251216D01*
X163443295Y-114176632D01*
X163455981Y-114129281D01*
X163458906Y-114119880D01*
X163477334Y-114068032D01*
X163493688Y-113989322D01*
X163495306Y-113982518D01*
X163514560Y-113910666D01*
X163521789Y-113855745D01*
X163523309Y-113846782D01*
X163535798Y-113786686D01*
X163540850Y-113712830D01*
X163541621Y-113705113D01*
X163541622Y-113705110D01*
X163550500Y-113637674D01*
X163550500Y-113575987D01*
X163550789Y-113567525D01*
X163555408Y-113500000D01*
X163550789Y-113432473D01*
X163550500Y-113424011D01*
X163550500Y-113362332D01*
X163550499Y-113362323D01*
X163541619Y-113294874D01*
X163540849Y-113287162D01*
X163535798Y-113213314D01*
X163523311Y-113153225D01*
X163521785Y-113144222D01*
X163514560Y-113089334D01*
X163495309Y-113017491D01*
X163493681Y-113010640D01*
X163493680Y-113010636D01*
X163477334Y-112931968D01*
X163458906Y-112880119D01*
X163455977Y-112870701D01*
X163443295Y-112823368D01*
X163412399Y-112748779D01*
X163410136Y-112742893D01*
X163381104Y-112661203D01*
X163358713Y-112617990D01*
X163354252Y-112608401D01*
X163337923Y-112568979D01*
X163337918Y-112568971D01*
X163337915Y-112568963D01*
X163294406Y-112493606D01*
X163291694Y-112488652D01*
X163248904Y-112406070D01*
X163248901Y-112406064D01*
X163224487Y-112371477D01*
X163218412Y-112361979D01*
X163200252Y-112330525D01*
X163200251Y-112330523D01*
X163143425Y-112256466D01*
X163140497Y-112252488D01*
X163083191Y-112171304D01*
X163058630Y-112145006D01*
X163050876Y-112135854D01*
X163032629Y-112112074D01*
X163032628Y-112112072D01*
X162962118Y-112041562D01*
X162959207Y-112038549D01*
X162926823Y-112003875D01*
X162887053Y-111961292D01*
X162864058Y-111942584D01*
X162854636Y-111934080D01*
X162837926Y-111917370D01*
X162753809Y-111852825D01*
X162751040Y-111850637D01*
X162664153Y-111779949D01*
X162664144Y-111779943D01*
X162644244Y-111767841D01*
X162633188Y-111760270D01*
X162619480Y-111749751D01*
X162574294Y-111723663D01*
X162522165Y-111693567D01*
X162519779Y-111692153D01*
X162418620Y-111630636D01*
X162407408Y-111625766D01*
X162403086Y-111623889D01*
X162390496Y-111617547D01*
X162381021Y-111612077D01*
X162381016Y-111612075D01*
X162381007Y-111612070D01*
X162271380Y-111566660D01*
X162269433Y-111565835D01*
X162155056Y-111516155D01*
X162155052Y-111516153D01*
X162144854Y-111513296D01*
X162130862Y-111508457D01*
X162126632Y-111506705D01*
X162126630Y-111506704D01*
X162005810Y-111474329D01*
X162004452Y-111473957D01*
X161878360Y-111438629D01*
X161876237Y-111438337D01*
X161874155Y-111438051D01*
X161864665Y-111436134D01*
X161864646Y-111436231D01*
X161860664Y-111435439D01*
X161730415Y-111418292D01*
X161729715Y-111418198D01*
X161593679Y-111399500D01*
X161593678Y-111399500D01*
X161306322Y-111399500D01*
X161306321Y-111399500D01*
X161170283Y-111418198D01*
X161169583Y-111418292D01*
X161039343Y-111435438D01*
X161035364Y-111436230D01*
X161035345Y-111436134D01*
X161025859Y-111438048D01*
X161021654Y-111438626D01*
X161021638Y-111438629D01*
X160895591Y-111473945D01*
X160894233Y-111474317D01*
X160773368Y-111506703D01*
X160773367Y-111506704D01*
X160769110Y-111508467D01*
X160755146Y-111513296D01*
X160744937Y-111516157D01*
X160744935Y-111516158D01*
X160630564Y-111565835D01*
X160628619Y-111566660D01*
X160518974Y-111612079D01*
X160518966Y-111612083D01*
X160509511Y-111617542D01*
X160496923Y-111623885D01*
X160481376Y-111630638D01*
X160380237Y-111692142D01*
X160377810Y-111693580D01*
X160280523Y-111749749D01*
X160280513Y-111749756D01*
X160266798Y-111760279D01*
X160255751Y-111767844D01*
X160235856Y-111779943D01*
X160235844Y-111779951D01*
X160148948Y-111850645D01*
X160146207Y-111852811D01*
X160109566Y-111880928D01*
X160062071Y-111917372D01*
X160045362Y-111934081D01*
X160035941Y-111942584D01*
X160012950Y-111961289D01*
X160012945Y-111961293D01*
X159940819Y-112038520D01*
X159937879Y-112041562D01*
X159867378Y-112112064D01*
X159867369Y-112112074D01*
X159849117Y-112135860D01*
X159841370Y-112145005D01*
X159816811Y-112171302D01*
X159816810Y-112171303D01*
X159759507Y-112252481D01*
X159756581Y-112256456D01*
X159699751Y-112330520D01*
X159699744Y-112330531D01*
X159681586Y-112361980D01*
X159675508Y-112371481D01*
X159651098Y-112406064D01*
X159608297Y-112488665D01*
X159605587Y-112493616D01*
X159562080Y-112568971D01*
X159562072Y-112568987D01*
X159545747Y-112608397D01*
X159541288Y-112617983D01*
X159518897Y-112661198D01*
X159518894Y-112661207D01*
X159489862Y-112742893D01*
X159487583Y-112748819D01*
X159456706Y-112823363D01*
X159456705Y-112823365D01*
X159444019Y-112870709D01*
X159441086Y-112880136D01*
X159422666Y-112931966D01*
X159422665Y-112931968D01*
X159412320Y-112981753D01*
X159406318Y-113010640D01*
X159404687Y-113017500D01*
X159385440Y-113089334D01*
X159385439Y-113089336D01*
X159378215Y-113144207D01*
X159376683Y-113153246D01*
X159364201Y-113213315D01*
X159364201Y-113213316D01*
X159359149Y-113287168D01*
X159358377Y-113294887D01*
X159349500Y-113362323D01*
X159349500Y-113424011D01*
X159349211Y-113432473D01*
X159344592Y-113499999D01*
X120005408Y-113499999D01*
X120000789Y-113432473D01*
X120000500Y-113424011D01*
X120000500Y-113362332D01*
X120000499Y-113362323D01*
X119991619Y-113294874D01*
X119990849Y-113287162D01*
X119985798Y-113213314D01*
X119973311Y-113153225D01*
X119971785Y-113144222D01*
X119964560Y-113089334D01*
X119945309Y-113017491D01*
X119943681Y-113010640D01*
X119943680Y-113010636D01*
X119927334Y-112931968D01*
X119908906Y-112880119D01*
X119905977Y-112870701D01*
X119893295Y-112823368D01*
X119862399Y-112748779D01*
X119860136Y-112742893D01*
X119831104Y-112661203D01*
X119808713Y-112617990D01*
X119804252Y-112608401D01*
X119787923Y-112568979D01*
X119787918Y-112568971D01*
X119787915Y-112568963D01*
X119744406Y-112493606D01*
X119741694Y-112488652D01*
X119698904Y-112406070D01*
X119698901Y-112406064D01*
X119674487Y-112371477D01*
X119668412Y-112361979D01*
X119650252Y-112330525D01*
X119650251Y-112330523D01*
X119593425Y-112256466D01*
X119590497Y-112252488D01*
X119533191Y-112171304D01*
X119508630Y-112145006D01*
X119500876Y-112135854D01*
X119482629Y-112112074D01*
X119482628Y-112112072D01*
X119412118Y-112041562D01*
X119409207Y-112038549D01*
X119376823Y-112003875D01*
X119337053Y-111961292D01*
X119314058Y-111942584D01*
X119304636Y-111934080D01*
X119287926Y-111917370D01*
X119203809Y-111852825D01*
X119201040Y-111850637D01*
X119114153Y-111779949D01*
X119114144Y-111779943D01*
X119094244Y-111767841D01*
X119083188Y-111760270D01*
X119069480Y-111749751D01*
X119024294Y-111723663D01*
X118972165Y-111693567D01*
X118969779Y-111692153D01*
X118868620Y-111630636D01*
X118857408Y-111625766D01*
X118853086Y-111623889D01*
X118840496Y-111617547D01*
X118831021Y-111612077D01*
X118831016Y-111612075D01*
X118831007Y-111612070D01*
X118721380Y-111566660D01*
X118719433Y-111565835D01*
X118605056Y-111516155D01*
X118605052Y-111516153D01*
X118594854Y-111513296D01*
X118580862Y-111508457D01*
X118576632Y-111506705D01*
X118576630Y-111506704D01*
X118455810Y-111474329D01*
X118454452Y-111473957D01*
X118328360Y-111438629D01*
X118326237Y-111438337D01*
X118324155Y-111438051D01*
X118314665Y-111436134D01*
X118314646Y-111436231D01*
X118310664Y-111435439D01*
X118180415Y-111418292D01*
X118179715Y-111418198D01*
X118043679Y-111399500D01*
X118043678Y-111399500D01*
X117756322Y-111399500D01*
X117756321Y-111399500D01*
X117620283Y-111418198D01*
X117619583Y-111418292D01*
X117489343Y-111435438D01*
X117485364Y-111436230D01*
X117485345Y-111436134D01*
X117475859Y-111438048D01*
X117471654Y-111438626D01*
X117471638Y-111438629D01*
X117345591Y-111473945D01*
X117344233Y-111474317D01*
X117223368Y-111506703D01*
X117223367Y-111506704D01*
X117219110Y-111508467D01*
X117205146Y-111513296D01*
X117194937Y-111516157D01*
X117194935Y-111516158D01*
X117080564Y-111565835D01*
X117078619Y-111566660D01*
X116968974Y-111612079D01*
X116968966Y-111612083D01*
X116959511Y-111617542D01*
X116946923Y-111623885D01*
X116931376Y-111630638D01*
X116830237Y-111692142D01*
X116827810Y-111693580D01*
X116730523Y-111749749D01*
X116730513Y-111749756D01*
X116716798Y-111760279D01*
X116705751Y-111767844D01*
X116685856Y-111779943D01*
X116685844Y-111779951D01*
X116598948Y-111850645D01*
X116596207Y-111852811D01*
X116559566Y-111880928D01*
X116512071Y-111917372D01*
X116495362Y-111934081D01*
X116485941Y-111942584D01*
X116462950Y-111961289D01*
X116462945Y-111961293D01*
X116390819Y-112038520D01*
X116387879Y-112041562D01*
X116317378Y-112112064D01*
X116317369Y-112112074D01*
X116299117Y-112135860D01*
X116291370Y-112145005D01*
X116266811Y-112171302D01*
X116266810Y-112171303D01*
X116209507Y-112252481D01*
X116206581Y-112256456D01*
X116149751Y-112330520D01*
X116149744Y-112330531D01*
X116131586Y-112361980D01*
X116125508Y-112371481D01*
X116101098Y-112406064D01*
X116058297Y-112488665D01*
X116055587Y-112493616D01*
X116012080Y-112568971D01*
X116012072Y-112568987D01*
X115995747Y-112608397D01*
X115991288Y-112617983D01*
X115968897Y-112661198D01*
X115968894Y-112661207D01*
X115939862Y-112742893D01*
X115937583Y-112748819D01*
X115906706Y-112823363D01*
X115906705Y-112823365D01*
X115894019Y-112870709D01*
X115891086Y-112880136D01*
X115872666Y-112931966D01*
X115872665Y-112931968D01*
X115862320Y-112981753D01*
X115856318Y-113010640D01*
X115854687Y-113017500D01*
X115835440Y-113089334D01*
X115835439Y-113089336D01*
X115828215Y-113144207D01*
X115826683Y-113153246D01*
X115814201Y-113213315D01*
X115814201Y-113213316D01*
X115809149Y-113287168D01*
X115808377Y-113294887D01*
X115799500Y-113362323D01*
X115799500Y-113424011D01*
X115799211Y-113432473D01*
X115794592Y-113499999D01*
X113200500Y-113499999D01*
X113200500Y-110599996D01*
X140694435Y-110599996D01*
X140694435Y-110600003D01*
X140714630Y-110779249D01*
X140714631Y-110779254D01*
X140774211Y-110949523D01*
X140870184Y-111102262D01*
X140997738Y-111229816D01*
X141150478Y-111325789D01*
X141320745Y-111385368D01*
X141320750Y-111385369D01*
X141499996Y-111405565D01*
X141500000Y-111405565D01*
X141500004Y-111405565D01*
X141679249Y-111385369D01*
X141679252Y-111385368D01*
X141679255Y-111385368D01*
X141849522Y-111325789D01*
X142002262Y-111229816D01*
X142129816Y-111102262D01*
X142225789Y-110949522D01*
X142285368Y-110779255D01*
X142305565Y-110600000D01*
X142285368Y-110420745D01*
X142225789Y-110250478D01*
X142129816Y-110097738D01*
X142002262Y-109970184D01*
X141849523Y-109874211D01*
X141679254Y-109814631D01*
X141679249Y-109814630D01*
X141500004Y-109794435D01*
X141499996Y-109794435D01*
X141320750Y-109814630D01*
X141320745Y-109814631D01*
X141150476Y-109874211D01*
X140997737Y-109970184D01*
X140870184Y-110097737D01*
X140774211Y-110250476D01*
X140714631Y-110420745D01*
X140714630Y-110420750D01*
X140694435Y-110599996D01*
X113200500Y-110599996D01*
X113200500Y-104334999D01*
X114344341Y-104334999D01*
X114344341Y-104335000D01*
X114364936Y-104570403D01*
X114364938Y-104570413D01*
X114426094Y-104798655D01*
X114426096Y-104798659D01*
X114426097Y-104798663D01*
X114525965Y-105012830D01*
X114525967Y-105012834D01*
X114552326Y-105050478D01*
X114661501Y-105206396D01*
X114661506Y-105206402D01*
X114783430Y-105328326D01*
X114816915Y-105389649D01*
X114811931Y-105459341D01*
X114770059Y-105515274D01*
X114739083Y-105532189D01*
X114607669Y-105581203D01*
X114607664Y-105581206D01*
X114492455Y-105667452D01*
X114492452Y-105667455D01*
X114406206Y-105782664D01*
X114406202Y-105782671D01*
X114355908Y-105917517D01*
X114349501Y-105977116D01*
X114349501Y-105977123D01*
X114349500Y-105977135D01*
X114349500Y-107772870D01*
X114349501Y-107772876D01*
X114355908Y-107832483D01*
X114406202Y-107967328D01*
X114406206Y-107967335D01*
X114492452Y-108082544D01*
X114492455Y-108082547D01*
X114607664Y-108168793D01*
X114607671Y-108168797D01*
X114742517Y-108219091D01*
X114742516Y-108219091D01*
X114749444Y-108219835D01*
X114802127Y-108225500D01*
X116597872Y-108225499D01*
X116657483Y-108219091D01*
X116792331Y-108168796D01*
X116907546Y-108082546D01*
X116993796Y-107967331D01*
X117044091Y-107832483D01*
X117050500Y-107772873D01*
X117050500Y-107049996D01*
X135044435Y-107049996D01*
X135044435Y-107050003D01*
X135064630Y-107229249D01*
X135064631Y-107229254D01*
X135124211Y-107399523D01*
X135214257Y-107542830D01*
X135220184Y-107552262D01*
X135347738Y-107679816D01*
X135437783Y-107736395D01*
X135495835Y-107772872D01*
X135500478Y-107775789D01*
X135662497Y-107832482D01*
X135670745Y-107835368D01*
X135670750Y-107835369D01*
X135849996Y-107855565D01*
X135850000Y-107855565D01*
X135850004Y-107855565D01*
X136029249Y-107835369D01*
X136029252Y-107835368D01*
X136029255Y-107835368D01*
X136199522Y-107775789D01*
X136352262Y-107679816D01*
X136479816Y-107552262D01*
X136575789Y-107399522D01*
X136635368Y-107229255D01*
X136649885Y-107100413D01*
X136655565Y-107050003D01*
X136655565Y-107049996D01*
X136635369Y-106870750D01*
X136635368Y-106870745D01*
X136633357Y-106864999D01*
X162344341Y-106864999D01*
X162344341Y-106865000D01*
X162364936Y-107100403D01*
X162364938Y-107100413D01*
X162426094Y-107328655D01*
X162426096Y-107328659D01*
X162426097Y-107328663D01*
X162459140Y-107399523D01*
X162525965Y-107542830D01*
X162525967Y-107542834D01*
X162532569Y-107552262D01*
X162661505Y-107736401D01*
X162828599Y-107903495D01*
X162919762Y-107967328D01*
X163022165Y-108039032D01*
X163022167Y-108039033D01*
X163022170Y-108039035D01*
X163236337Y-108138903D01*
X163464592Y-108200063D01*
X163652918Y-108216539D01*
X163699999Y-108220659D01*
X163700000Y-108220659D01*
X163700001Y-108220659D01*
X163739234Y-108217226D01*
X163935408Y-108200063D01*
X164163663Y-108138903D01*
X164377830Y-108039035D01*
X164571401Y-107903495D01*
X164738495Y-107736401D01*
X164874035Y-107542830D01*
X164973903Y-107328663D01*
X165035063Y-107100408D01*
X165055659Y-106865000D01*
X165035063Y-106629592D01*
X164973903Y-106401337D01*
X164874035Y-106187171D01*
X164872773Y-106185369D01*
X164738496Y-105993600D01*
X164722012Y-105977116D01*
X164616567Y-105871671D01*
X164583084Y-105810351D01*
X164588068Y-105740659D01*
X164629939Y-105684725D01*
X164660915Y-105667810D01*
X164792331Y-105618796D01*
X164907546Y-105532546D01*
X164993796Y-105417331D01*
X165044091Y-105282483D01*
X165050500Y-105222873D01*
X165050499Y-103427128D01*
X165044091Y-103367517D01*
X165017605Y-103296505D01*
X164993797Y-103232671D01*
X164993793Y-103232664D01*
X164907547Y-103117455D01*
X164907544Y-103117452D01*
X164792335Y-103031206D01*
X164792328Y-103031202D01*
X164657482Y-102980908D01*
X164657483Y-102980908D01*
X164597883Y-102974501D01*
X164597881Y-102974500D01*
X164597873Y-102974500D01*
X164597864Y-102974500D01*
X162802129Y-102974500D01*
X162802123Y-102974501D01*
X162742516Y-102980908D01*
X162607671Y-103031202D01*
X162607664Y-103031206D01*
X162492455Y-103117452D01*
X162492452Y-103117455D01*
X162406206Y-103232664D01*
X162406202Y-103232671D01*
X162355908Y-103367517D01*
X162349501Y-103427116D01*
X162349501Y-103427123D01*
X162349500Y-103427135D01*
X162349500Y-105222870D01*
X162349501Y-105222876D01*
X162355908Y-105282483D01*
X162406202Y-105417328D01*
X162406206Y-105417335D01*
X162492452Y-105532544D01*
X162492455Y-105532547D01*
X162607664Y-105618793D01*
X162607671Y-105618797D01*
X162739081Y-105667810D01*
X162795015Y-105709681D01*
X162819432Y-105775145D01*
X162804580Y-105843418D01*
X162783430Y-105871673D01*
X162661503Y-105993600D01*
X162525965Y-106187169D01*
X162525964Y-106187171D01*
X162426098Y-106401335D01*
X162426094Y-106401344D01*
X162364938Y-106629586D01*
X162364936Y-106629596D01*
X162344341Y-106864999D01*
X136633357Y-106864999D01*
X136575788Y-106700476D01*
X136479815Y-106547737D01*
X136352262Y-106420184D01*
X136199523Y-106324211D01*
X136029254Y-106264631D01*
X136029249Y-106264630D01*
X135850004Y-106244435D01*
X135849996Y-106244435D01*
X135670750Y-106264630D01*
X135670745Y-106264631D01*
X135500476Y-106324211D01*
X135347737Y-106420184D01*
X135220184Y-106547737D01*
X135124211Y-106700476D01*
X135064631Y-106870745D01*
X135064630Y-106870750D01*
X135044435Y-107049996D01*
X117050500Y-107049996D01*
X117050499Y-105977128D01*
X117044091Y-105917517D01*
X117038401Y-105902262D01*
X116993797Y-105782671D01*
X116993793Y-105782664D01*
X116907547Y-105667455D01*
X116907544Y-105667452D01*
X116792335Y-105581206D01*
X116792328Y-105581202D01*
X116660917Y-105532189D01*
X116604983Y-105490318D01*
X116580566Y-105424853D01*
X116585973Y-105399996D01*
X138094435Y-105399996D01*
X138094435Y-105400003D01*
X138114630Y-105579249D01*
X138114631Y-105579254D01*
X138174211Y-105749523D01*
X138233210Y-105843418D01*
X138270184Y-105902262D01*
X138397738Y-106029816D01*
X138550478Y-106125789D01*
X138561984Y-106129815D01*
X138720745Y-106185368D01*
X138720750Y-106185369D01*
X138899996Y-106205565D01*
X138900000Y-106205565D01*
X138900004Y-106205565D01*
X139079249Y-106185369D01*
X139079252Y-106185368D01*
X139079255Y-106185368D01*
X139249522Y-106125789D01*
X139402262Y-106029816D01*
X139529816Y-105902262D01*
X139625789Y-105749522D01*
X139685368Y-105579255D01*
X139690671Y-105532189D01*
X139694298Y-105499996D01*
X140494435Y-105499996D01*
X140494435Y-105500003D01*
X140514630Y-105679249D01*
X140514631Y-105679254D01*
X140574211Y-105849523D01*
X140616935Y-105917517D01*
X140670184Y-106002262D01*
X140797738Y-106129816D01*
X140950478Y-106225789D01*
X141061479Y-106264630D01*
X141120745Y-106285368D01*
X141120750Y-106285369D01*
X141299996Y-106305565D01*
X141300000Y-106305565D01*
X141300004Y-106305565D01*
X141479249Y-106285369D01*
X141479252Y-106285368D01*
X141479255Y-106285368D01*
X141649522Y-106225789D01*
X141802262Y-106129816D01*
X141929816Y-106002262D01*
X142025789Y-105849522D01*
X142085368Y-105679255D01*
X142085791Y-105675500D01*
X142105565Y-105500003D01*
X142105565Y-105499996D01*
X142085369Y-105320750D01*
X142085368Y-105320745D01*
X142025789Y-105150478D01*
X141929816Y-104997738D01*
X141802262Y-104870184D01*
X141688439Y-104798664D01*
X141649523Y-104774211D01*
X141479254Y-104714631D01*
X141479249Y-104714630D01*
X141300004Y-104694435D01*
X141299996Y-104694435D01*
X141120750Y-104714630D01*
X141120745Y-104714631D01*
X140950476Y-104774211D01*
X140797737Y-104870184D01*
X140670184Y-104997737D01*
X140574211Y-105150476D01*
X140514631Y-105320745D01*
X140514630Y-105320750D01*
X140494435Y-105499996D01*
X139694298Y-105499996D01*
X139705565Y-105400003D01*
X139705565Y-105399996D01*
X139685369Y-105220750D01*
X139685368Y-105220745D01*
X139680347Y-105206395D01*
X139625789Y-105050478D01*
X139529816Y-104897738D01*
X139402262Y-104770184D01*
X139313852Y-104714632D01*
X139249523Y-104674211D01*
X139079254Y-104614631D01*
X139079249Y-104614630D01*
X138900004Y-104594435D01*
X138899996Y-104594435D01*
X138720750Y-104614630D01*
X138720745Y-104614631D01*
X138550476Y-104674211D01*
X138397737Y-104770184D01*
X138270184Y-104897737D01*
X138174211Y-105050476D01*
X138114631Y-105220745D01*
X138114630Y-105220750D01*
X138094435Y-105399996D01*
X116585973Y-105399996D01*
X116595418Y-105356580D01*
X116616563Y-105328332D01*
X116738495Y-105206401D01*
X116874035Y-105012830D01*
X116973903Y-104798663D01*
X117035063Y-104570408D01*
X117055659Y-104335000D01*
X117035063Y-104099592D01*
X116973903Y-103871337D01*
X116874035Y-103657171D01*
X116738495Y-103463599D01*
X116738494Y-103463597D01*
X116571402Y-103296506D01*
X116571395Y-103296501D01*
X116377834Y-103160967D01*
X116377830Y-103160965D01*
X116377828Y-103160964D01*
X116163663Y-103061097D01*
X116163659Y-103061096D01*
X116163655Y-103061094D01*
X115935413Y-102999938D01*
X115935403Y-102999936D01*
X115700001Y-102979341D01*
X115699999Y-102979341D01*
X115464596Y-102999936D01*
X115464586Y-102999938D01*
X115236344Y-103061094D01*
X115236335Y-103061098D01*
X115022171Y-103160964D01*
X115022169Y-103160965D01*
X114828597Y-103296505D01*
X114661505Y-103463597D01*
X114525965Y-103657169D01*
X114525964Y-103657171D01*
X114426098Y-103871335D01*
X114426094Y-103871344D01*
X114364938Y-104099586D01*
X114364936Y-104099596D01*
X114344341Y-104334999D01*
X113200500Y-104334999D01*
X113200500Y-101377027D01*
X137510174Y-101377027D01*
X137510174Y-101377034D01*
X137530369Y-101556280D01*
X137530370Y-101556285D01*
X137589950Y-101726554D01*
X137685923Y-101879293D01*
X137813477Y-102006847D01*
X137966217Y-102102820D01*
X138099684Y-102149522D01*
X138136484Y-102162399D01*
X138136489Y-102162400D01*
X138315735Y-102182596D01*
X138315739Y-102182596D01*
X138315743Y-102182596D01*
X138494988Y-102162400D01*
X138494991Y-102162399D01*
X138494994Y-102162399D01*
X138665261Y-102102820D01*
X138818001Y-102006847D01*
X138945555Y-101879293D01*
X138995381Y-101799996D01*
X143544435Y-101799996D01*
X143544435Y-101800003D01*
X143564630Y-101979249D01*
X143564631Y-101979254D01*
X143624211Y-102149523D01*
X143720184Y-102302262D01*
X143847738Y-102429816D01*
X144000478Y-102525789D01*
X144170745Y-102585368D01*
X144170750Y-102585369D01*
X144349996Y-102605565D01*
X144350000Y-102605565D01*
X144350004Y-102605565D01*
X144529249Y-102585369D01*
X144529252Y-102585368D01*
X144529255Y-102585368D01*
X144699522Y-102525789D01*
X144852262Y-102429816D01*
X144979816Y-102302262D01*
X145075789Y-102149522D01*
X145135368Y-101979255D01*
X145155565Y-101800000D01*
X145135368Y-101620745D01*
X145075789Y-101450478D01*
X144979816Y-101297738D01*
X144852262Y-101170184D01*
X144699523Y-101074211D01*
X144529254Y-101014631D01*
X144529249Y-101014630D01*
X144350004Y-100994435D01*
X144349996Y-100994435D01*
X144170750Y-101014630D01*
X144170745Y-101014631D01*
X144000476Y-101074211D01*
X143847737Y-101170184D01*
X143720184Y-101297737D01*
X143624211Y-101450476D01*
X143564631Y-101620745D01*
X143564630Y-101620750D01*
X143544435Y-101799996D01*
X138995381Y-101799996D01*
X139041528Y-101726553D01*
X139101107Y-101556286D01*
X139121304Y-101377031D01*
X139118885Y-101355565D01*
X139101108Y-101197781D01*
X139101107Y-101197776D01*
X139041528Y-101027509D01*
X138945555Y-100874769D01*
X138818001Y-100747215D01*
X138789408Y-100729249D01*
X138665262Y-100651242D01*
X138494993Y-100591662D01*
X138494988Y-100591661D01*
X138315743Y-100571466D01*
X138315735Y-100571466D01*
X138136489Y-100591661D01*
X138136484Y-100591662D01*
X137966215Y-100651242D01*
X137813476Y-100747215D01*
X137685923Y-100874768D01*
X137589950Y-101027507D01*
X137530370Y-101197776D01*
X137530369Y-101197781D01*
X137510174Y-101377027D01*
X113200500Y-101377027D01*
X113200500Y-100549996D01*
X140964435Y-100549996D01*
X140964435Y-100550003D01*
X140984630Y-100729249D01*
X140984631Y-100729254D01*
X141044211Y-100899523D01*
X141103849Y-100994435D01*
X141140184Y-101052262D01*
X141267738Y-101179816D01*
X141420478Y-101275789D01*
X141483202Y-101297737D01*
X141590745Y-101335368D01*
X141590750Y-101335369D01*
X141769996Y-101355565D01*
X141770000Y-101355565D01*
X141770004Y-101355565D01*
X141949249Y-101335369D01*
X141949252Y-101335368D01*
X141949255Y-101335368D01*
X142119522Y-101275789D01*
X142272262Y-101179816D01*
X142399816Y-101052262D01*
X142495789Y-100899522D01*
X142555368Y-100729255D01*
X142570871Y-100591661D01*
X142575565Y-100550003D01*
X142575565Y-100549996D01*
X142555369Y-100370750D01*
X142555368Y-100370745D01*
X142495788Y-100200476D01*
X142399815Y-100047737D01*
X142272262Y-99920184D01*
X142119523Y-99824211D01*
X141949254Y-99764631D01*
X141949249Y-99764630D01*
X141770004Y-99744435D01*
X141769996Y-99744435D01*
X141590750Y-99764630D01*
X141590745Y-99764631D01*
X141420476Y-99824211D01*
X141267737Y-99920184D01*
X141140184Y-100047737D01*
X141044211Y-100200476D01*
X140984631Y-100370745D01*
X140984630Y-100370750D01*
X140964435Y-100549996D01*
X113200500Y-100549996D01*
X113200500Y-97724996D01*
X134519435Y-97724996D01*
X134519435Y-97725003D01*
X134539630Y-97904249D01*
X134539631Y-97904254D01*
X134599211Y-98074523D01*
X134646936Y-98150476D01*
X134695184Y-98227262D01*
X134822738Y-98354816D01*
X134975478Y-98450789D01*
X135116115Y-98500000D01*
X135145745Y-98510368D01*
X135145750Y-98510369D01*
X135324996Y-98530565D01*
X135325000Y-98530565D01*
X135325004Y-98530565D01*
X135504249Y-98510369D01*
X135504252Y-98510368D01*
X135504255Y-98510368D01*
X135674522Y-98450789D01*
X135806754Y-98367701D01*
X135873990Y-98348701D01*
X135940825Y-98369068D01*
X135986040Y-98422336D01*
X135995947Y-98486573D01*
X135994435Y-98499997D01*
X135994435Y-98500003D01*
X136014630Y-98679249D01*
X136014631Y-98679254D01*
X136074211Y-98849523D01*
X136170184Y-99002262D01*
X136297738Y-99129816D01*
X136450478Y-99225789D01*
X136620745Y-99285368D01*
X136620750Y-99285369D01*
X136799996Y-99305565D01*
X136800000Y-99305565D01*
X136800004Y-99305565D01*
X136979249Y-99285369D01*
X136979252Y-99285368D01*
X136979255Y-99285368D01*
X137149522Y-99225789D01*
X137302262Y-99129816D01*
X137429816Y-99002262D01*
X137525789Y-98849522D01*
X137585368Y-98679255D01*
X137585369Y-98679249D01*
X137605565Y-98500003D01*
X137605565Y-98499996D01*
X137585369Y-98320750D01*
X137585368Y-98320745D01*
X137525788Y-98150476D01*
X137429815Y-97997737D01*
X137302262Y-97870184D01*
X137149523Y-97774211D01*
X136979254Y-97714631D01*
X136979249Y-97714630D01*
X136800004Y-97694435D01*
X136799996Y-97694435D01*
X136620750Y-97714630D01*
X136620745Y-97714631D01*
X136450476Y-97774211D01*
X136318245Y-97857298D01*
X136251008Y-97876298D01*
X136184173Y-97855930D01*
X136138959Y-97802662D01*
X136129053Y-97738419D01*
X136130565Y-97725000D01*
X136130565Y-97724996D01*
X136110369Y-97545750D01*
X136110368Y-97545745D01*
X136050788Y-97375476D01*
X135954815Y-97222737D01*
X135827262Y-97095184D01*
X135674523Y-96999211D01*
X135504254Y-96939631D01*
X135504249Y-96939630D01*
X135325004Y-96919435D01*
X135324996Y-96919435D01*
X135145750Y-96939630D01*
X135145745Y-96939631D01*
X134975476Y-96999211D01*
X134822737Y-97095184D01*
X134695184Y-97222737D01*
X134599211Y-97375476D01*
X134539631Y-97545745D01*
X134539630Y-97545750D01*
X134519435Y-97724996D01*
X113200500Y-97724996D01*
X113200500Y-93532135D01*
X127699500Y-93532135D01*
X127699500Y-95327870D01*
X127699501Y-95327876D01*
X127705908Y-95387483D01*
X127756202Y-95522328D01*
X127756206Y-95522335D01*
X127842452Y-95637544D01*
X127842455Y-95637547D01*
X127957664Y-95723793D01*
X127957671Y-95723797D01*
X128092517Y-95774091D01*
X128092516Y-95774091D01*
X128099444Y-95774835D01*
X128152127Y-95780500D01*
X129947872Y-95780499D01*
X130007483Y-95774091D01*
X130142331Y-95723796D01*
X130257546Y-95637546D01*
X130343796Y-95522331D01*
X130394091Y-95387483D01*
X130400500Y-95327873D01*
X130400499Y-93532128D01*
X130394091Y-93472517D01*
X130343796Y-93337669D01*
X130343795Y-93337668D01*
X130343793Y-93337664D01*
X130257547Y-93222455D01*
X130257544Y-93222452D01*
X130142335Y-93136206D01*
X130142328Y-93136202D01*
X130007482Y-93085908D01*
X130007483Y-93085908D01*
X129947883Y-93079501D01*
X129947881Y-93079500D01*
X129947873Y-93079500D01*
X129947864Y-93079500D01*
X128152129Y-93079500D01*
X128152123Y-93079501D01*
X128092516Y-93085908D01*
X127957671Y-93136202D01*
X127957664Y-93136206D01*
X127842455Y-93222452D01*
X127842452Y-93222455D01*
X127756206Y-93337664D01*
X127756202Y-93337671D01*
X127705908Y-93472517D01*
X127699501Y-93532116D01*
X127699501Y-93532123D01*
X127699500Y-93532135D01*
X113200500Y-93532135D01*
X113200500Y-91889999D01*
X114994341Y-91889999D01*
X114994341Y-91890000D01*
X115014936Y-92125403D01*
X115014938Y-92125413D01*
X115076094Y-92353655D01*
X115076096Y-92353659D01*
X115076097Y-92353663D01*
X115175965Y-92567830D01*
X115175967Y-92567834D01*
X115284281Y-92722521D01*
X115311505Y-92761401D01*
X115478599Y-92928495D01*
X115575384Y-92996265D01*
X115672165Y-93064032D01*
X115672167Y-93064033D01*
X115672170Y-93064035D01*
X115886337Y-93163903D01*
X116114592Y-93225063D01*
X116302918Y-93241539D01*
X116349999Y-93245659D01*
X116350000Y-93245659D01*
X116350001Y-93245659D01*
X116389234Y-93242226D01*
X116585408Y-93225063D01*
X116813663Y-93163903D01*
X117027830Y-93064035D01*
X117221401Y-92928495D01*
X117388495Y-92761401D01*
X117524035Y-92567830D01*
X117623903Y-92353663D01*
X117685063Y-92125408D01*
X117705659Y-91890000D01*
X117685063Y-91654592D01*
X117623903Y-91426337D01*
X117524035Y-91212171D01*
X117388495Y-91018599D01*
X117388494Y-91018597D01*
X117221402Y-90851506D01*
X117221395Y-90851501D01*
X117027834Y-90715967D01*
X117027830Y-90715965D01*
X117005729Y-90705659D01*
X116813663Y-90616097D01*
X116813659Y-90616096D01*
X116813655Y-90616094D01*
X116585413Y-90554938D01*
X116585403Y-90554936D01*
X116350001Y-90534341D01*
X116349999Y-90534341D01*
X116114596Y-90554936D01*
X116114586Y-90554938D01*
X115886344Y-90616094D01*
X115886335Y-90616098D01*
X115672171Y-90715964D01*
X115672169Y-90715965D01*
X115478597Y-90851505D01*
X115311505Y-91018597D01*
X115175965Y-91212169D01*
X115175964Y-91212171D01*
X115076098Y-91426335D01*
X115076094Y-91426344D01*
X115014938Y-91654586D01*
X115014936Y-91654596D01*
X114994341Y-91889999D01*
X113200500Y-91889999D01*
X113200500Y-86809999D01*
X114994341Y-86809999D01*
X114994341Y-86810000D01*
X115014936Y-87045403D01*
X115014938Y-87045413D01*
X115076094Y-87273655D01*
X115076096Y-87273659D01*
X115076097Y-87273663D01*
X115175965Y-87487830D01*
X115175967Y-87487834D01*
X115284281Y-87642521D01*
X115311505Y-87681401D01*
X115478599Y-87848495D01*
X115517833Y-87875967D01*
X115672165Y-87984032D01*
X115672167Y-87984033D01*
X115672170Y-87984035D01*
X115886337Y-88083903D01*
X116114592Y-88145063D01*
X116302918Y-88161539D01*
X116349999Y-88165659D01*
X116350000Y-88165659D01*
X116350001Y-88165659D01*
X116389234Y-88162226D01*
X116585408Y-88145063D01*
X116813663Y-88083903D01*
X117027830Y-87984035D01*
X117221401Y-87848495D01*
X117388495Y-87681401D01*
X117524035Y-87487830D01*
X117623903Y-87273663D01*
X117685063Y-87045408D01*
X117705659Y-86810000D01*
X117685063Y-86574592D01*
X117623903Y-86346337D01*
X117524035Y-86132171D01*
X117388495Y-85938599D01*
X117388494Y-85938597D01*
X117221402Y-85771506D01*
X117221395Y-85771501D01*
X117027834Y-85635967D01*
X117027830Y-85635965D01*
X117027828Y-85635964D01*
X116813663Y-85536097D01*
X116813659Y-85536096D01*
X116813655Y-85536094D01*
X116585413Y-85474938D01*
X116585403Y-85474936D01*
X116350001Y-85454341D01*
X116349999Y-85454341D01*
X116114596Y-85474936D01*
X116114586Y-85474938D01*
X115886344Y-85536094D01*
X115886335Y-85536098D01*
X115672171Y-85635964D01*
X115672169Y-85635965D01*
X115478597Y-85771505D01*
X115311505Y-85938597D01*
X115175965Y-86132169D01*
X115175964Y-86132171D01*
X115126133Y-86239035D01*
X115079565Y-86338901D01*
X115076098Y-86346335D01*
X115076094Y-86346344D01*
X115014938Y-86574586D01*
X115014936Y-86574596D01*
X114994341Y-86809999D01*
X113200500Y-86809999D01*
X113200500Y-84269999D01*
X127694341Y-84269999D01*
X127694341Y-84270000D01*
X127714936Y-84505403D01*
X127714938Y-84505413D01*
X127776094Y-84733655D01*
X127776096Y-84733659D01*
X127776097Y-84733663D01*
X127875965Y-84947830D01*
X127875967Y-84947834D01*
X128011501Y-85141395D01*
X128011506Y-85141402D01*
X128178597Y-85308493D01*
X128178603Y-85308498D01*
X128364158Y-85438425D01*
X128407783Y-85493002D01*
X128414977Y-85562500D01*
X128383454Y-85624855D01*
X128364158Y-85641575D01*
X128178597Y-85771505D01*
X128011505Y-85938597D01*
X127875965Y-86132169D01*
X127875964Y-86132171D01*
X127826133Y-86239035D01*
X127779565Y-86338901D01*
X127776098Y-86346335D01*
X127776094Y-86346344D01*
X127714938Y-86574586D01*
X127714936Y-86574596D01*
X127694341Y-86809999D01*
X127694341Y-86810000D01*
X127714936Y-87045403D01*
X127714938Y-87045413D01*
X127776094Y-87273655D01*
X127776096Y-87273659D01*
X127776097Y-87273663D01*
X127875965Y-87487830D01*
X127875967Y-87487834D01*
X128011501Y-87681395D01*
X128011506Y-87681402D01*
X128178597Y-87848493D01*
X128178603Y-87848498D01*
X128364158Y-87978425D01*
X128407783Y-88033002D01*
X128414977Y-88102500D01*
X128383454Y-88164855D01*
X128364158Y-88181575D01*
X128178597Y-88311505D01*
X128011505Y-88478597D01*
X127875965Y-88672169D01*
X127875964Y-88672171D01*
X127776098Y-88886335D01*
X127776094Y-88886344D01*
X127714938Y-89114586D01*
X127714936Y-89114596D01*
X127694341Y-89349999D01*
X127694341Y-89350000D01*
X127714936Y-89585403D01*
X127714938Y-89585413D01*
X127776094Y-89813655D01*
X127776096Y-89813659D01*
X127776097Y-89813663D01*
X127826336Y-89921401D01*
X127875965Y-90027830D01*
X127875967Y-90027834D01*
X127918443Y-90088495D01*
X128011505Y-90221401D01*
X128178599Y-90388495D01*
X128203112Y-90405659D01*
X128372165Y-90524032D01*
X128372167Y-90524033D01*
X128372170Y-90524035D01*
X128586337Y-90623903D01*
X128814592Y-90685063D01*
X129002918Y-90701539D01*
X129049999Y-90705659D01*
X129050000Y-90705659D01*
X129050001Y-90705659D01*
X129089234Y-90702226D01*
X129285408Y-90685063D01*
X129513663Y-90623903D01*
X129727830Y-90524035D01*
X129921401Y-90388495D01*
X130088495Y-90221401D01*
X130224035Y-90027830D01*
X130323903Y-89813663D01*
X130385063Y-89585408D01*
X130405659Y-89350000D01*
X130385063Y-89114592D01*
X130367756Y-89049999D01*
X139759341Y-89049999D01*
X139759341Y-89050000D01*
X139779936Y-89285403D01*
X139779938Y-89285413D01*
X139841094Y-89513655D01*
X139841096Y-89513659D01*
X139841097Y-89513663D01*
X139874555Y-89585413D01*
X139940965Y-89727830D01*
X139940967Y-89727834D01*
X140049281Y-89882521D01*
X140076505Y-89921401D01*
X140243599Y-90088495D01*
X140340384Y-90156265D01*
X140437165Y-90224032D01*
X140437167Y-90224033D01*
X140437170Y-90224035D01*
X140651337Y-90323903D01*
X140879592Y-90385063D01*
X141067918Y-90401539D01*
X141114999Y-90405659D01*
X141115000Y-90405659D01*
X141115001Y-90405659D01*
X141154234Y-90402226D01*
X141350408Y-90385063D01*
X141578663Y-90323903D01*
X141792830Y-90224035D01*
X141986401Y-90088495D01*
X142153495Y-89921401D01*
X142289035Y-89727830D01*
X142388903Y-89513663D01*
X142432756Y-89349999D01*
X148994341Y-89349999D01*
X148994341Y-89350000D01*
X149014936Y-89585403D01*
X149014938Y-89585413D01*
X149076094Y-89813655D01*
X149076096Y-89813659D01*
X149076097Y-89813663D01*
X149126336Y-89921401D01*
X149175965Y-90027830D01*
X149175967Y-90027834D01*
X149311501Y-90221395D01*
X149311506Y-90221402D01*
X149478597Y-90388493D01*
X149478603Y-90388498D01*
X149664158Y-90518425D01*
X149707783Y-90573002D01*
X149714977Y-90642500D01*
X149683454Y-90704855D01*
X149664158Y-90721575D01*
X149478597Y-90851505D01*
X149311505Y-91018597D01*
X149175965Y-91212169D01*
X149175964Y-91212171D01*
X149076098Y-91426335D01*
X149076094Y-91426344D01*
X149014938Y-91654586D01*
X149014936Y-91654596D01*
X148994341Y-91889999D01*
X148994341Y-91890000D01*
X149014936Y-92125403D01*
X149014938Y-92125413D01*
X149076094Y-92353655D01*
X149076096Y-92353659D01*
X149076097Y-92353663D01*
X149175965Y-92567830D01*
X149175967Y-92567834D01*
X149311501Y-92761395D01*
X149311506Y-92761402D01*
X149478597Y-92928493D01*
X149478603Y-92928498D01*
X149664158Y-93058425D01*
X149707783Y-93113002D01*
X149714977Y-93182500D01*
X149683454Y-93244855D01*
X149664158Y-93261575D01*
X149478597Y-93391505D01*
X149311505Y-93558597D01*
X149175965Y-93752169D01*
X149175964Y-93752171D01*
X149076098Y-93966335D01*
X149076094Y-93966344D01*
X149014938Y-94194586D01*
X149014936Y-94194596D01*
X148994341Y-94429999D01*
X148994341Y-94430000D01*
X149014936Y-94665403D01*
X149014938Y-94665413D01*
X149076094Y-94893655D01*
X149076096Y-94893659D01*
X149076097Y-94893663D01*
X149175965Y-95107830D01*
X149175967Y-95107834D01*
X149284281Y-95262521D01*
X149311505Y-95301401D01*
X149478599Y-95468495D01*
X149575384Y-95536265D01*
X149672165Y-95604032D01*
X149672167Y-95604033D01*
X149672170Y-95604035D01*
X149886337Y-95703903D01*
X150114592Y-95765063D01*
X150291034Y-95780500D01*
X150349999Y-95785659D01*
X150350000Y-95785659D01*
X150350001Y-95785659D01*
X150408966Y-95780500D01*
X150585408Y-95765063D01*
X150813663Y-95703903D01*
X151027830Y-95604035D01*
X151221401Y-95468495D01*
X151388495Y-95301401D01*
X151524035Y-95107830D01*
X151623903Y-94893663D01*
X151685063Y-94665408D01*
X151705659Y-94430000D01*
X151685063Y-94194592D01*
X151623903Y-93966337D01*
X151524035Y-93752171D01*
X151388495Y-93558599D01*
X151388494Y-93558597D01*
X151221402Y-93391506D01*
X151221396Y-93391501D01*
X151035842Y-93261575D01*
X150992217Y-93206998D01*
X150985023Y-93137500D01*
X151016546Y-93075145D01*
X151035842Y-93058425D01*
X151058026Y-93042891D01*
X151221401Y-92928495D01*
X151388495Y-92761401D01*
X151524035Y-92567830D01*
X151623903Y-92353663D01*
X151685063Y-92125408D01*
X151705659Y-91890000D01*
X151705659Y-91889999D01*
X161694341Y-91889999D01*
X161694341Y-91890000D01*
X161714936Y-92125403D01*
X161714938Y-92125413D01*
X161776094Y-92353655D01*
X161776096Y-92353659D01*
X161776097Y-92353663D01*
X161875965Y-92567830D01*
X161875967Y-92567834D01*
X161984281Y-92722521D01*
X162011505Y-92761401D01*
X162178599Y-92928495D01*
X162275384Y-92996265D01*
X162372165Y-93064032D01*
X162372167Y-93064033D01*
X162372170Y-93064035D01*
X162586337Y-93163903D01*
X162814592Y-93225063D01*
X163002918Y-93241539D01*
X163049999Y-93245659D01*
X163050000Y-93245659D01*
X163050001Y-93245659D01*
X163089234Y-93242226D01*
X163285408Y-93225063D01*
X163513663Y-93163903D01*
X163727830Y-93064035D01*
X163921401Y-92928495D01*
X164088495Y-92761401D01*
X164224035Y-92567830D01*
X164323903Y-92353663D01*
X164385063Y-92125408D01*
X164405659Y-91890000D01*
X164385063Y-91654592D01*
X164323903Y-91426337D01*
X164224035Y-91212171D01*
X164088495Y-91018599D01*
X164088494Y-91018597D01*
X163921402Y-90851506D01*
X163921395Y-90851501D01*
X163727834Y-90715967D01*
X163727830Y-90715965D01*
X163705729Y-90705659D01*
X163513663Y-90616097D01*
X163513659Y-90616096D01*
X163513655Y-90616094D01*
X163285413Y-90554938D01*
X163285403Y-90554936D01*
X163050001Y-90534341D01*
X163049999Y-90534341D01*
X162814596Y-90554936D01*
X162814586Y-90554938D01*
X162586344Y-90616094D01*
X162586335Y-90616098D01*
X162372171Y-90715964D01*
X162372169Y-90715965D01*
X162178597Y-90851505D01*
X162011505Y-91018597D01*
X161875965Y-91212169D01*
X161875964Y-91212171D01*
X161776098Y-91426335D01*
X161776094Y-91426344D01*
X161714938Y-91654586D01*
X161714936Y-91654596D01*
X161694341Y-91889999D01*
X151705659Y-91889999D01*
X151685063Y-91654592D01*
X151623903Y-91426337D01*
X151524035Y-91212171D01*
X151388495Y-91018599D01*
X151388494Y-91018597D01*
X151221402Y-90851506D01*
X151221396Y-90851501D01*
X151035842Y-90721575D01*
X150992217Y-90666998D01*
X150985023Y-90597500D01*
X151016546Y-90535145D01*
X151035842Y-90518425D01*
X151196888Y-90405659D01*
X151221401Y-90388495D01*
X151388495Y-90221401D01*
X151524035Y-90027830D01*
X151623903Y-89813663D01*
X151685063Y-89585408D01*
X151705659Y-89350000D01*
X151685063Y-89114592D01*
X151623903Y-88886337D01*
X151524035Y-88672171D01*
X151463933Y-88586335D01*
X151388494Y-88478597D01*
X151221402Y-88311506D01*
X151221395Y-88311501D01*
X151027834Y-88175967D01*
X151027830Y-88175965D01*
X151005729Y-88165659D01*
X150813663Y-88076097D01*
X150813659Y-88076096D01*
X150813655Y-88076094D01*
X150585413Y-88014938D01*
X150585403Y-88014936D01*
X150350001Y-87994341D01*
X150349999Y-87994341D01*
X150114596Y-88014936D01*
X150114586Y-88014938D01*
X149886344Y-88076094D01*
X149886335Y-88076098D01*
X149672171Y-88175964D01*
X149672169Y-88175965D01*
X149478597Y-88311505D01*
X149311505Y-88478597D01*
X149175965Y-88672169D01*
X149175964Y-88672171D01*
X149076098Y-88886335D01*
X149076094Y-88886344D01*
X149014938Y-89114586D01*
X149014936Y-89114596D01*
X148994341Y-89349999D01*
X142432756Y-89349999D01*
X142450063Y-89285408D01*
X142470659Y-89050000D01*
X142450063Y-88814592D01*
X142388903Y-88586337D01*
X142289035Y-88372171D01*
X142246557Y-88311505D01*
X142153494Y-88178597D01*
X141986402Y-88011506D01*
X141986395Y-88011501D01*
X141963036Y-87995145D01*
X141939158Y-87978425D01*
X141792834Y-87875967D01*
X141792830Y-87875965D01*
X141733927Y-87848498D01*
X141578663Y-87776097D01*
X141578659Y-87776096D01*
X141578655Y-87776094D01*
X141350413Y-87714938D01*
X141350403Y-87714936D01*
X141115001Y-87694341D01*
X141114999Y-87694341D01*
X140879596Y-87714936D01*
X140879586Y-87714938D01*
X140651344Y-87776094D01*
X140651335Y-87776098D01*
X140437171Y-87875964D01*
X140437169Y-87875965D01*
X140243597Y-88011505D01*
X140076505Y-88178597D01*
X139940965Y-88372169D01*
X139940964Y-88372171D01*
X139841098Y-88586335D01*
X139841094Y-88586344D01*
X139779938Y-88814586D01*
X139779936Y-88814596D01*
X139759341Y-89049999D01*
X130367756Y-89049999D01*
X130323903Y-88886337D01*
X130224035Y-88672171D01*
X130163933Y-88586335D01*
X130088494Y-88478597D01*
X129921402Y-88311506D01*
X129921396Y-88311501D01*
X129735842Y-88181575D01*
X129692217Y-88126998D01*
X129685023Y-88057500D01*
X129716546Y-87995145D01*
X129735842Y-87978425D01*
X129758026Y-87962891D01*
X129921401Y-87848495D01*
X130088495Y-87681401D01*
X130224035Y-87487830D01*
X130323903Y-87273663D01*
X130385063Y-87045408D01*
X130405659Y-86810000D01*
X130405659Y-86809999D01*
X161694341Y-86809999D01*
X161694341Y-86810000D01*
X161714936Y-87045403D01*
X161714938Y-87045413D01*
X161776094Y-87273655D01*
X161776096Y-87273659D01*
X161776097Y-87273663D01*
X161875965Y-87487830D01*
X161875967Y-87487834D01*
X161984281Y-87642521D01*
X162011505Y-87681401D01*
X162178599Y-87848495D01*
X162217833Y-87875967D01*
X162372165Y-87984032D01*
X162372167Y-87984033D01*
X162372170Y-87984035D01*
X162586337Y-88083903D01*
X162814592Y-88145063D01*
X163002918Y-88161539D01*
X163049999Y-88165659D01*
X163050000Y-88165659D01*
X163050001Y-88165659D01*
X163089234Y-88162226D01*
X163285408Y-88145063D01*
X163513663Y-88083903D01*
X163727830Y-87984035D01*
X163921401Y-87848495D01*
X164088495Y-87681401D01*
X164224035Y-87487830D01*
X164323903Y-87273663D01*
X164385063Y-87045408D01*
X164405659Y-86810000D01*
X164385063Y-86574592D01*
X164323903Y-86346337D01*
X164224035Y-86132171D01*
X164088495Y-85938599D01*
X164088494Y-85938597D01*
X163921402Y-85771506D01*
X163921395Y-85771501D01*
X163727834Y-85635967D01*
X163727830Y-85635965D01*
X163727828Y-85635964D01*
X163513663Y-85536097D01*
X163513659Y-85536096D01*
X163513655Y-85536094D01*
X163285413Y-85474938D01*
X163285403Y-85474936D01*
X163050001Y-85454341D01*
X163049999Y-85454341D01*
X162814596Y-85474936D01*
X162814586Y-85474938D01*
X162586344Y-85536094D01*
X162586335Y-85536098D01*
X162372171Y-85635964D01*
X162372169Y-85635965D01*
X162178597Y-85771505D01*
X162011505Y-85938597D01*
X161875965Y-86132169D01*
X161875964Y-86132171D01*
X161826133Y-86239035D01*
X161779565Y-86338901D01*
X161776098Y-86346335D01*
X161776094Y-86346344D01*
X161714938Y-86574586D01*
X161714936Y-86574596D01*
X161694341Y-86809999D01*
X130405659Y-86809999D01*
X130385063Y-86574592D01*
X130323903Y-86346337D01*
X130224035Y-86132171D01*
X130088495Y-85938599D01*
X130088494Y-85938597D01*
X129921402Y-85771506D01*
X129921396Y-85771501D01*
X129735842Y-85641575D01*
X129692217Y-85586998D01*
X129685023Y-85517500D01*
X129716546Y-85455145D01*
X129735842Y-85438425D01*
X129758026Y-85422891D01*
X129921401Y-85308495D01*
X130088495Y-85141401D01*
X130141992Y-85064999D01*
X133469341Y-85064999D01*
X133469341Y-85065000D01*
X133489936Y-85300403D01*
X133489938Y-85300413D01*
X133551094Y-85528655D01*
X133551096Y-85528659D01*
X133551097Y-85528663D01*
X133601133Y-85635965D01*
X133650965Y-85742830D01*
X133650967Y-85742834D01*
X133671043Y-85771505D01*
X133786505Y-85936401D01*
X133953599Y-86103495D01*
X133994550Y-86132169D01*
X134147165Y-86239032D01*
X134147167Y-86239033D01*
X134147170Y-86239035D01*
X134361337Y-86338903D01*
X134361343Y-86338904D01*
X134361344Y-86338905D01*
X134416285Y-86353626D01*
X134589592Y-86400063D01*
X134777918Y-86416539D01*
X134824999Y-86420659D01*
X134825000Y-86420659D01*
X134825001Y-86420659D01*
X134864234Y-86417226D01*
X135060408Y-86400063D01*
X135288663Y-86338903D01*
X135502830Y-86239035D01*
X135696401Y-86103495D01*
X135863495Y-85936401D01*
X135993425Y-85750842D01*
X136048002Y-85707217D01*
X136117500Y-85700023D01*
X136179855Y-85731546D01*
X136196575Y-85750842D01*
X136326500Y-85936395D01*
X136326505Y-85936401D01*
X136493599Y-86103495D01*
X136534550Y-86132169D01*
X136687165Y-86239032D01*
X136687167Y-86239033D01*
X136687170Y-86239035D01*
X136901337Y-86338903D01*
X136901343Y-86338904D01*
X136901344Y-86338905D01*
X136956285Y-86353626D01*
X137129592Y-86400063D01*
X137317918Y-86416539D01*
X137364999Y-86420659D01*
X137365000Y-86420659D01*
X137365001Y-86420659D01*
X137404234Y-86417226D01*
X137600408Y-86400063D01*
X137828663Y-86338903D01*
X138042830Y-86239035D01*
X138236401Y-86103495D01*
X138403495Y-85936401D01*
X138539035Y-85742830D01*
X138638903Y-85528663D01*
X138700063Y-85300408D01*
X138720659Y-85065000D01*
X138700063Y-84829592D01*
X138638903Y-84601337D01*
X138539035Y-84387171D01*
X138533425Y-84379158D01*
X138403494Y-84193597D01*
X138236402Y-84026506D01*
X138236396Y-84026501D01*
X138050842Y-83896575D01*
X138007217Y-83841998D01*
X138000023Y-83772500D01*
X138031546Y-83710145D01*
X138050842Y-83693425D01*
X138073026Y-83677891D01*
X138236401Y-83563495D01*
X138403495Y-83396401D01*
X138539035Y-83202830D01*
X138638903Y-82988663D01*
X138700063Y-82760408D01*
X138720659Y-82525000D01*
X138700063Y-82289592D01*
X138638903Y-82061337D01*
X138539035Y-81847171D01*
X138529351Y-81833340D01*
X138403494Y-81653597D01*
X138236402Y-81486506D01*
X138236395Y-81486501D01*
X138230865Y-81482629D01*
X138168154Y-81438718D01*
X138042834Y-81350967D01*
X138042830Y-81350965D01*
X138042828Y-81350964D01*
X137828663Y-81251097D01*
X137828659Y-81251096D01*
X137828655Y-81251094D01*
X137600413Y-81189938D01*
X137600403Y-81189936D01*
X137365001Y-81169341D01*
X137364999Y-81169341D01*
X137129596Y-81189936D01*
X137129586Y-81189938D01*
X136901344Y-81251094D01*
X136901335Y-81251098D01*
X136687171Y-81350964D01*
X136687169Y-81350965D01*
X136493600Y-81486503D01*
X136371673Y-81608430D01*
X136310350Y-81641914D01*
X136240658Y-81636930D01*
X136184725Y-81595058D01*
X136167810Y-81564081D01*
X136118797Y-81432671D01*
X136118793Y-81432664D01*
X136032547Y-81317455D01*
X136032544Y-81317452D01*
X135917335Y-81231206D01*
X135917328Y-81231202D01*
X135782482Y-81180908D01*
X135782483Y-81180908D01*
X135722883Y-81174501D01*
X135722881Y-81174500D01*
X135722873Y-81174500D01*
X135722864Y-81174500D01*
X133927129Y-81174500D01*
X133927123Y-81174501D01*
X133867516Y-81180908D01*
X133732671Y-81231202D01*
X133732664Y-81231206D01*
X133617455Y-81317452D01*
X133617452Y-81317455D01*
X133531206Y-81432664D01*
X133531202Y-81432671D01*
X133480908Y-81567517D01*
X133474501Y-81627116D01*
X133474500Y-81627135D01*
X133474500Y-83422870D01*
X133474501Y-83422876D01*
X133480908Y-83482483D01*
X133531202Y-83617328D01*
X133531206Y-83617335D01*
X133617452Y-83732544D01*
X133617455Y-83732547D01*
X133732664Y-83818793D01*
X133732671Y-83818797D01*
X133864081Y-83867810D01*
X133920015Y-83909681D01*
X133944432Y-83975145D01*
X133929580Y-84043418D01*
X133908430Y-84071673D01*
X133786503Y-84193600D01*
X133650965Y-84387169D01*
X133650964Y-84387171D01*
X133551098Y-84601335D01*
X133551094Y-84601344D01*
X133489938Y-84829586D01*
X133489936Y-84829596D01*
X133469341Y-85064999D01*
X130141992Y-85064999D01*
X130224035Y-84947830D01*
X130323903Y-84733663D01*
X130385063Y-84505408D01*
X130405659Y-84270000D01*
X130385063Y-84034592D01*
X130323903Y-83806337D01*
X130224035Y-83592171D01*
X130188095Y-83540842D01*
X130088494Y-83398597D01*
X129921402Y-83231506D01*
X129921395Y-83231501D01*
X129727834Y-83095967D01*
X129727830Y-83095965D01*
X129715902Y-83090403D01*
X129513663Y-82996097D01*
X129513659Y-82996096D01*
X129513655Y-82996094D01*
X129285413Y-82934938D01*
X129285403Y-82934936D01*
X129050001Y-82914341D01*
X129049999Y-82914341D01*
X128814596Y-82934936D01*
X128814586Y-82934938D01*
X128586344Y-82996094D01*
X128586335Y-82996098D01*
X128372171Y-83095964D01*
X128372169Y-83095965D01*
X128178597Y-83231505D01*
X128011505Y-83398597D01*
X127875965Y-83592169D01*
X127875964Y-83592171D01*
X127776098Y-83806335D01*
X127776094Y-83806344D01*
X127714938Y-84034586D01*
X127714936Y-84034596D01*
X127694341Y-84269999D01*
X113200500Y-84269999D01*
X113200500Y-79899999D01*
X115794592Y-79899999D01*
X115799211Y-79967525D01*
X115799500Y-79975987D01*
X115799500Y-80037676D01*
X115808377Y-80105110D01*
X115809149Y-80112830D01*
X115814201Y-80186683D01*
X115814202Y-80186687D01*
X115826683Y-80246756D01*
X115828215Y-80255793D01*
X115835440Y-80310666D01*
X115854687Y-80382497D01*
X115856314Y-80389343D01*
X115869023Y-80450503D01*
X115872665Y-80468028D01*
X115872667Y-80468036D01*
X115891083Y-80519853D01*
X115894016Y-80529278D01*
X115906705Y-80576632D01*
X115906706Y-80576636D01*
X115906708Y-80576641D01*
X115937585Y-80651186D01*
X115939864Y-80657112D01*
X115968894Y-80738792D01*
X115968896Y-80738798D01*
X115991287Y-80782011D01*
X115995749Y-80791604D01*
X116012077Y-80831021D01*
X116055598Y-80906402D01*
X116058299Y-80911336D01*
X116101098Y-80993934D01*
X116125507Y-81028515D01*
X116131587Y-81038019D01*
X116149751Y-81069479D01*
X116149756Y-81069485D01*
X116149757Y-81069487D01*
X116206586Y-81143548D01*
X116209483Y-81147482D01*
X116266811Y-81228698D01*
X116291378Y-81255003D01*
X116299120Y-81264141D01*
X116317372Y-81287928D01*
X116387877Y-81358433D01*
X116390791Y-81361449D01*
X116462939Y-81438700D01*
X116462958Y-81438718D01*
X116485932Y-81457408D01*
X116495362Y-81465918D01*
X116512073Y-81482629D01*
X116596189Y-81547173D01*
X116598958Y-81549361D01*
X116685853Y-81620055D01*
X116705760Y-81632161D01*
X116716804Y-81639724D01*
X116730521Y-81650249D01*
X116827843Y-81706437D01*
X116830192Y-81707829D01*
X116931375Y-81769361D01*
X116946915Y-81776110D01*
X116959515Y-81782459D01*
X116968967Y-81787917D01*
X116968972Y-81787919D01*
X116968979Y-81787923D01*
X117078624Y-81833340D01*
X117078646Y-81833349D01*
X117080546Y-81834155D01*
X117194942Y-81883844D01*
X117205143Y-81886702D01*
X117219128Y-81891538D01*
X117223368Y-81893295D01*
X117344255Y-81925686D01*
X117345435Y-81926010D01*
X117471642Y-81961371D01*
X117475832Y-81961946D01*
X117485329Y-81963864D01*
X117485349Y-81963767D01*
X117489319Y-81964556D01*
X117489334Y-81964560D01*
X117619708Y-81981723D01*
X117620127Y-81981779D01*
X117720712Y-81995605D01*
X117756321Y-82000500D01*
X117756322Y-82000500D01*
X118043679Y-82000500D01*
X118071890Y-81996622D01*
X118179908Y-81981774D01*
X118180230Y-81981731D01*
X118310666Y-81964560D01*
X118310683Y-81964555D01*
X118314649Y-81963767D01*
X118314668Y-81963865D01*
X118324183Y-81961944D01*
X118328358Y-81961371D01*
X118454595Y-81926001D01*
X118455748Y-81925685D01*
X118576632Y-81893295D01*
X118580867Y-81891540D01*
X118594865Y-81886699D01*
X118605058Y-81883844D01*
X118719502Y-81834133D01*
X118721353Y-81833349D01*
X118831021Y-81787923D01*
X118840488Y-81782456D01*
X118853082Y-81776111D01*
X118868625Y-81769361D01*
X118969797Y-81707834D01*
X118972138Y-81706447D01*
X119069479Y-81650249D01*
X119083202Y-81639717D01*
X119094233Y-81632164D01*
X119114147Y-81620055D01*
X119201064Y-81549342D01*
X119203766Y-81547206D01*
X119287928Y-81482628D01*
X119304653Y-81465901D01*
X119314050Y-81457421D01*
X119337053Y-81438708D01*
X119409208Y-81361447D01*
X119412122Y-81358433D01*
X119482623Y-81287933D01*
X119482623Y-81287932D01*
X119482628Y-81287928D01*
X119500878Y-81264141D01*
X119508618Y-81255006D01*
X119533189Y-81228698D01*
X119590501Y-81147502D01*
X119593409Y-81143554D01*
X119608835Y-81123450D01*
X119650249Y-81069479D01*
X119668425Y-81037995D01*
X119674485Y-81028524D01*
X119698901Y-80993936D01*
X119741700Y-80911336D01*
X119744401Y-80906402D01*
X119753746Y-80890214D01*
X119787923Y-80831021D01*
X119804261Y-80791575D01*
X119808705Y-80782023D01*
X119831104Y-80738797D01*
X119860143Y-80657085D01*
X119862400Y-80651216D01*
X119893295Y-80576632D01*
X119905981Y-80529281D01*
X119908906Y-80519880D01*
X119927334Y-80468032D01*
X119943688Y-80389322D01*
X119945306Y-80382518D01*
X119963399Y-80314999D01*
X140719341Y-80314999D01*
X140719341Y-80315000D01*
X140739936Y-80550403D01*
X140739938Y-80550413D01*
X140801094Y-80778655D01*
X140801096Y-80778659D01*
X140801097Y-80778663D01*
X140881004Y-80950023D01*
X140900965Y-80992830D01*
X140900967Y-80992834D01*
X141006499Y-81143548D01*
X141036501Y-81186396D01*
X141036506Y-81186402D01*
X141203597Y-81353493D01*
X141203603Y-81353498D01*
X141389158Y-81483425D01*
X141432783Y-81538002D01*
X141439977Y-81607500D01*
X141408454Y-81669855D01*
X141389158Y-81686575D01*
X141203597Y-81816505D01*
X141036505Y-81983597D01*
X140900965Y-82177169D01*
X140900964Y-82177171D01*
X140801098Y-82391335D01*
X140801094Y-82391344D01*
X140739938Y-82619586D01*
X140739936Y-82619596D01*
X140719341Y-82854999D01*
X140719341Y-82855000D01*
X140739936Y-83090403D01*
X140739938Y-83090413D01*
X140801094Y-83318655D01*
X140801096Y-83318659D01*
X140801097Y-83318663D01*
X140853007Y-83429984D01*
X140900965Y-83532830D01*
X140900967Y-83532834D01*
X140942516Y-83592171D01*
X141036505Y-83726401D01*
X141203599Y-83893495D01*
X141270956Y-83940659D01*
X141397165Y-84029032D01*
X141397167Y-84029033D01*
X141397170Y-84029035D01*
X141611337Y-84128903D01*
X141839592Y-84190063D01*
X142027918Y-84206539D01*
X142074999Y-84210659D01*
X142075000Y-84210659D01*
X142075001Y-84210659D01*
X142114234Y-84207226D01*
X142310408Y-84190063D01*
X142538663Y-84128903D01*
X142752830Y-84029035D01*
X142946401Y-83893495D01*
X143113495Y-83726401D01*
X143243425Y-83540842D01*
X143298002Y-83497217D01*
X143367500Y-83490023D01*
X143429855Y-83521546D01*
X143446575Y-83540842D01*
X143576500Y-83726395D01*
X143576505Y-83726401D01*
X143743599Y-83893495D01*
X143810956Y-83940659D01*
X143937165Y-84029032D01*
X143937167Y-84029033D01*
X143937170Y-84029035D01*
X144151337Y-84128903D01*
X144379592Y-84190063D01*
X144567918Y-84206539D01*
X144614999Y-84210659D01*
X144615000Y-84210659D01*
X144615001Y-84210659D01*
X144654234Y-84207226D01*
X144850408Y-84190063D01*
X145078663Y-84128903D01*
X145292830Y-84029035D01*
X145486401Y-83893495D01*
X145653495Y-83726401D01*
X145789035Y-83532830D01*
X145863969Y-83372135D01*
X148999500Y-83372135D01*
X148999500Y-85167870D01*
X148999501Y-85167876D01*
X149005908Y-85227483D01*
X149056202Y-85362328D01*
X149056206Y-85362335D01*
X149142452Y-85477544D01*
X149142455Y-85477547D01*
X149257664Y-85563793D01*
X149257671Y-85563797D01*
X149392517Y-85614091D01*
X149392516Y-85614091D01*
X149399444Y-85614835D01*
X149452127Y-85620500D01*
X151247872Y-85620499D01*
X151307483Y-85614091D01*
X151442331Y-85563796D01*
X151557546Y-85477546D01*
X151643796Y-85362331D01*
X151694091Y-85227483D01*
X151700500Y-85167873D01*
X151700499Y-83372128D01*
X151694091Y-83312517D01*
X151653180Y-83202830D01*
X151643797Y-83177671D01*
X151643793Y-83177664D01*
X151557547Y-83062455D01*
X151557544Y-83062452D01*
X151442335Y-82976206D01*
X151442328Y-82976202D01*
X151307482Y-82925908D01*
X151307483Y-82925908D01*
X151247883Y-82919501D01*
X151247881Y-82919500D01*
X151247873Y-82919500D01*
X151247864Y-82919500D01*
X149452129Y-82919500D01*
X149452123Y-82919501D01*
X149392516Y-82925908D01*
X149257671Y-82976202D01*
X149257664Y-82976206D01*
X149142455Y-83062452D01*
X149142452Y-83062455D01*
X149056206Y-83177664D01*
X149056202Y-83177671D01*
X149005908Y-83312517D01*
X149004348Y-83327032D01*
X148999501Y-83372123D01*
X148999500Y-83372135D01*
X145863969Y-83372135D01*
X145888903Y-83318663D01*
X145950063Y-83090408D01*
X145970659Y-82855000D01*
X145950063Y-82619592D01*
X145888903Y-82391337D01*
X145789035Y-82177171D01*
X145783425Y-82169158D01*
X145653494Y-81983597D01*
X145486402Y-81816506D01*
X145486396Y-81816501D01*
X145300842Y-81686575D01*
X145257217Y-81631998D01*
X145250023Y-81562500D01*
X145281546Y-81500145D01*
X145300842Y-81483425D01*
X145373336Y-81432664D01*
X145486401Y-81353495D01*
X145653495Y-81186401D01*
X145789035Y-80992830D01*
X145888903Y-80778663D01*
X145950063Y-80550408D01*
X145970659Y-80315000D01*
X145950063Y-80079592D01*
X145901942Y-79899999D01*
X159394592Y-79899999D01*
X159399211Y-79967525D01*
X159399500Y-79975987D01*
X159399500Y-80037676D01*
X159408377Y-80105110D01*
X159409149Y-80112830D01*
X159414201Y-80186683D01*
X159414202Y-80186687D01*
X159426683Y-80246756D01*
X159428215Y-80255793D01*
X159435440Y-80310666D01*
X159454687Y-80382497D01*
X159456314Y-80389343D01*
X159469023Y-80450503D01*
X159472665Y-80468028D01*
X159472667Y-80468036D01*
X159491083Y-80519853D01*
X159494016Y-80529278D01*
X159506705Y-80576632D01*
X159506706Y-80576636D01*
X159506708Y-80576641D01*
X159537585Y-80651186D01*
X159539864Y-80657112D01*
X159568894Y-80738792D01*
X159568896Y-80738798D01*
X159591287Y-80782011D01*
X159595749Y-80791604D01*
X159612077Y-80831021D01*
X159655598Y-80906402D01*
X159658299Y-80911336D01*
X159701098Y-80993934D01*
X159725507Y-81028515D01*
X159731587Y-81038019D01*
X159749751Y-81069479D01*
X159749756Y-81069485D01*
X159749757Y-81069487D01*
X159806586Y-81143548D01*
X159809483Y-81147482D01*
X159866811Y-81228698D01*
X159891378Y-81255003D01*
X159899120Y-81264141D01*
X159917372Y-81287928D01*
X159987877Y-81358433D01*
X159990791Y-81361449D01*
X160062939Y-81438700D01*
X160062958Y-81438718D01*
X160085932Y-81457408D01*
X160095362Y-81465918D01*
X160112073Y-81482629D01*
X160196189Y-81547173D01*
X160198958Y-81549361D01*
X160285853Y-81620055D01*
X160305760Y-81632161D01*
X160316804Y-81639724D01*
X160330521Y-81650249D01*
X160427843Y-81706437D01*
X160430192Y-81707829D01*
X160531375Y-81769361D01*
X160546915Y-81776110D01*
X160559515Y-81782459D01*
X160568967Y-81787917D01*
X160568972Y-81787919D01*
X160568979Y-81787923D01*
X160678624Y-81833340D01*
X160678646Y-81833349D01*
X160680546Y-81834155D01*
X160794942Y-81883844D01*
X160805143Y-81886702D01*
X160819128Y-81891538D01*
X160823368Y-81893295D01*
X160944255Y-81925686D01*
X160945435Y-81926010D01*
X161071642Y-81961371D01*
X161075832Y-81961946D01*
X161085329Y-81963864D01*
X161085349Y-81963767D01*
X161089319Y-81964556D01*
X161089334Y-81964560D01*
X161219708Y-81981723D01*
X161220127Y-81981779D01*
X161320712Y-81995605D01*
X161356321Y-82000500D01*
X161356322Y-82000500D01*
X161643679Y-82000500D01*
X161671890Y-81996622D01*
X161779908Y-81981774D01*
X161780230Y-81981731D01*
X161910666Y-81964560D01*
X161910683Y-81964555D01*
X161914649Y-81963767D01*
X161914668Y-81963865D01*
X161924183Y-81961944D01*
X161928358Y-81961371D01*
X162054595Y-81926001D01*
X162055748Y-81925685D01*
X162176632Y-81893295D01*
X162180867Y-81891540D01*
X162194865Y-81886699D01*
X162205058Y-81883844D01*
X162319502Y-81834133D01*
X162321353Y-81833349D01*
X162431021Y-81787923D01*
X162440488Y-81782456D01*
X162453082Y-81776111D01*
X162468625Y-81769361D01*
X162569797Y-81707834D01*
X162572138Y-81706447D01*
X162669479Y-81650249D01*
X162683202Y-81639717D01*
X162694233Y-81632164D01*
X162714147Y-81620055D01*
X162801064Y-81549342D01*
X162803766Y-81547206D01*
X162887928Y-81482628D01*
X162904653Y-81465901D01*
X162914050Y-81457421D01*
X162937053Y-81438708D01*
X163009208Y-81361447D01*
X163012122Y-81358433D01*
X163082623Y-81287933D01*
X163082623Y-81287932D01*
X163082628Y-81287928D01*
X163100878Y-81264141D01*
X163108618Y-81255006D01*
X163133189Y-81228698D01*
X163190501Y-81147502D01*
X163193409Y-81143554D01*
X163208835Y-81123450D01*
X163250249Y-81069479D01*
X163268425Y-81037995D01*
X163274485Y-81028524D01*
X163298901Y-80993936D01*
X163341700Y-80911336D01*
X163344401Y-80906402D01*
X163353746Y-80890214D01*
X163387923Y-80831021D01*
X163404261Y-80791575D01*
X163408705Y-80782023D01*
X163431104Y-80738797D01*
X163460143Y-80657085D01*
X163462400Y-80651216D01*
X163493295Y-80576632D01*
X163505981Y-80529281D01*
X163508906Y-80519880D01*
X163527334Y-80468032D01*
X163543688Y-80389322D01*
X163545306Y-80382518D01*
X163564560Y-80310666D01*
X163571789Y-80255745D01*
X163573309Y-80246782D01*
X163585798Y-80186686D01*
X163590850Y-80112830D01*
X163591621Y-80105113D01*
X163591622Y-80105110D01*
X163600500Y-80037674D01*
X163600500Y-79975987D01*
X163600789Y-79967525D01*
X163605408Y-79900000D01*
X163600789Y-79832473D01*
X163600500Y-79824011D01*
X163600500Y-79762332D01*
X163600499Y-79762323D01*
X163591619Y-79694874D01*
X163590849Y-79687162D01*
X163590358Y-79679977D01*
X163585798Y-79613314D01*
X163573311Y-79553225D01*
X163571785Y-79544222D01*
X163564560Y-79489334D01*
X163545309Y-79417491D01*
X163543681Y-79410640D01*
X163543680Y-79410636D01*
X163527334Y-79331968D01*
X163508906Y-79280119D01*
X163505977Y-79270701D01*
X163493771Y-79225145D01*
X163493295Y-79223368D01*
X163462399Y-79148779D01*
X163460136Y-79142893D01*
X163431104Y-79061203D01*
X163408713Y-79017990D01*
X163404252Y-79008401D01*
X163387923Y-78968979D01*
X163387918Y-78968971D01*
X163387915Y-78968963D01*
X163344406Y-78893606D01*
X163341694Y-78888652D01*
X163330646Y-78867331D01*
X163298901Y-78806064D01*
X163274487Y-78771477D01*
X163268412Y-78761979D01*
X163250252Y-78730525D01*
X163250251Y-78730523D01*
X163193425Y-78656466D01*
X163190497Y-78652488D01*
X163133191Y-78571304D01*
X163108630Y-78545006D01*
X163100876Y-78535854D01*
X163082629Y-78512074D01*
X163082628Y-78512072D01*
X163012118Y-78441562D01*
X163009207Y-78438549D01*
X162969960Y-78396527D01*
X162937053Y-78361292D01*
X162914058Y-78342584D01*
X162904636Y-78334080D01*
X162887926Y-78317370D01*
X162803809Y-78252825D01*
X162801040Y-78250637D01*
X162714153Y-78179949D01*
X162714144Y-78179943D01*
X162694244Y-78167841D01*
X162683188Y-78160270D01*
X162669480Y-78149751D01*
X162591453Y-78104703D01*
X162572165Y-78093567D01*
X162569779Y-78092153D01*
X162468620Y-78030636D01*
X162457408Y-78025766D01*
X162453086Y-78023889D01*
X162440496Y-78017547D01*
X162431021Y-78012077D01*
X162431016Y-78012075D01*
X162431007Y-78012070D01*
X162321380Y-77966660D01*
X162319433Y-77965835D01*
X162205056Y-77916155D01*
X162205052Y-77916153D01*
X162194854Y-77913296D01*
X162180862Y-77908457D01*
X162176632Y-77906705D01*
X162176630Y-77906704D01*
X162055810Y-77874329D01*
X162054452Y-77873957D01*
X161928360Y-77838629D01*
X161926237Y-77838337D01*
X161924155Y-77838051D01*
X161914665Y-77836134D01*
X161914646Y-77836231D01*
X161910664Y-77835439D01*
X161780415Y-77818292D01*
X161779715Y-77818198D01*
X161643679Y-77799500D01*
X161643678Y-77799500D01*
X161356322Y-77799500D01*
X161356321Y-77799500D01*
X161220283Y-77818198D01*
X161219583Y-77818292D01*
X161089343Y-77835438D01*
X161085364Y-77836230D01*
X161085345Y-77836134D01*
X161075859Y-77838048D01*
X161071654Y-77838626D01*
X161071638Y-77838629D01*
X160945591Y-77873945D01*
X160944233Y-77874317D01*
X160823368Y-77906703D01*
X160823367Y-77906704D01*
X160819110Y-77908467D01*
X160805146Y-77913296D01*
X160794937Y-77916157D01*
X160794935Y-77916158D01*
X160680564Y-77965835D01*
X160678619Y-77966660D01*
X160568974Y-78012079D01*
X160568966Y-78012083D01*
X160559511Y-78017542D01*
X160546923Y-78023885D01*
X160531376Y-78030638D01*
X160430237Y-78092142D01*
X160427810Y-78093580D01*
X160330523Y-78149749D01*
X160330513Y-78149756D01*
X160316798Y-78160279D01*
X160305751Y-78167844D01*
X160285856Y-78179943D01*
X160285844Y-78179951D01*
X160198948Y-78250645D01*
X160196207Y-78252811D01*
X160159566Y-78280928D01*
X160112071Y-78317372D01*
X160095362Y-78334081D01*
X160085941Y-78342584D01*
X160062950Y-78361289D01*
X160062945Y-78361293D01*
X159990819Y-78438520D01*
X159987879Y-78441562D01*
X159917378Y-78512064D01*
X159917369Y-78512074D01*
X159899117Y-78535860D01*
X159891370Y-78545005D01*
X159866811Y-78571302D01*
X159866810Y-78571303D01*
X159809507Y-78652481D01*
X159806581Y-78656456D01*
X159749751Y-78730520D01*
X159749744Y-78730531D01*
X159731586Y-78761980D01*
X159725508Y-78771481D01*
X159701098Y-78806064D01*
X159658297Y-78888665D01*
X159655587Y-78893616D01*
X159612080Y-78968971D01*
X159612072Y-78968987D01*
X159595747Y-79008397D01*
X159591288Y-79017983D01*
X159568897Y-79061198D01*
X159568894Y-79061207D01*
X159539862Y-79142893D01*
X159537583Y-79148819D01*
X159506706Y-79223363D01*
X159506705Y-79223365D01*
X159494019Y-79270709D01*
X159491086Y-79280136D01*
X159472666Y-79331966D01*
X159472665Y-79331968D01*
X159462320Y-79381753D01*
X159456318Y-79410640D01*
X159454687Y-79417500D01*
X159435440Y-79489334D01*
X159435439Y-79489336D01*
X159428215Y-79544207D01*
X159426683Y-79553246D01*
X159414201Y-79613315D01*
X159414201Y-79613316D01*
X159409149Y-79687168D01*
X159408377Y-79694887D01*
X159399500Y-79762323D01*
X159399500Y-79824011D01*
X159399211Y-79832473D01*
X159394592Y-79899999D01*
X145901942Y-79899999D01*
X145888903Y-79851337D01*
X145789035Y-79637171D01*
X145783425Y-79629158D01*
X145653494Y-79443597D01*
X145486402Y-79276506D01*
X145486396Y-79276501D01*
X145300842Y-79146575D01*
X145257217Y-79091998D01*
X145250023Y-79022500D01*
X145281546Y-78960145D01*
X145300842Y-78943425D01*
X145379066Y-78888652D01*
X145486401Y-78813495D01*
X145653495Y-78646401D01*
X145789035Y-78452830D01*
X145888903Y-78238663D01*
X145950063Y-78010408D01*
X145970659Y-77775000D01*
X145950063Y-77539592D01*
X145888903Y-77311337D01*
X145789035Y-77097171D01*
X145695634Y-76963779D01*
X145653494Y-76903597D01*
X145486402Y-76736506D01*
X145486395Y-76736501D01*
X145292834Y-76600967D01*
X145292830Y-76600965D01*
X145290658Y-76599952D01*
X145078663Y-76501097D01*
X145078659Y-76501096D01*
X145078655Y-76501094D01*
X144850413Y-76439938D01*
X144850403Y-76439936D01*
X144615001Y-76419341D01*
X144614999Y-76419341D01*
X144379596Y-76439936D01*
X144379586Y-76439938D01*
X144151344Y-76501094D01*
X144151335Y-76501098D01*
X143937171Y-76600964D01*
X143937169Y-76600965D01*
X143743600Y-76736503D01*
X143621673Y-76858430D01*
X143560350Y-76891914D01*
X143490658Y-76886930D01*
X143434725Y-76845058D01*
X143417810Y-76814081D01*
X143368797Y-76682671D01*
X143368793Y-76682664D01*
X143282547Y-76567455D01*
X143282544Y-76567452D01*
X143167335Y-76481206D01*
X143167328Y-76481202D01*
X143032482Y-76430908D01*
X143032483Y-76430908D01*
X142972883Y-76424501D01*
X142972881Y-76424500D01*
X142972873Y-76424500D01*
X142972864Y-76424500D01*
X141177129Y-76424500D01*
X141177123Y-76424501D01*
X141117516Y-76430908D01*
X140982671Y-76481202D01*
X140982664Y-76481206D01*
X140867455Y-76567452D01*
X140867452Y-76567455D01*
X140781206Y-76682664D01*
X140781202Y-76682671D01*
X140730908Y-76817517D01*
X140724501Y-76877116D01*
X140724500Y-76877135D01*
X140724500Y-78672870D01*
X140724501Y-78672876D01*
X140730908Y-78732483D01*
X140781202Y-78867328D01*
X140781206Y-78867335D01*
X140867452Y-78982544D01*
X140867455Y-78982547D01*
X140982664Y-79068793D01*
X140982671Y-79068797D01*
X141114081Y-79117810D01*
X141170015Y-79159681D01*
X141194432Y-79225145D01*
X141179580Y-79293418D01*
X141158430Y-79321673D01*
X141036503Y-79443600D01*
X140900965Y-79637169D01*
X140900964Y-79637171D01*
X140801098Y-79851335D01*
X140801094Y-79851344D01*
X140739938Y-80079586D01*
X140739936Y-80079596D01*
X140719341Y-80314999D01*
X119963399Y-80314999D01*
X119964560Y-80310666D01*
X119971789Y-80255745D01*
X119973309Y-80246782D01*
X119985798Y-80186686D01*
X119990850Y-80112830D01*
X119991621Y-80105113D01*
X119991622Y-80105110D01*
X120000500Y-80037674D01*
X120000500Y-79975987D01*
X120000789Y-79967525D01*
X120005408Y-79900000D01*
X120000789Y-79832473D01*
X120000500Y-79824011D01*
X120000500Y-79762332D01*
X120000499Y-79762323D01*
X119991619Y-79694874D01*
X119990849Y-79687162D01*
X119990358Y-79679977D01*
X119985798Y-79613314D01*
X119973311Y-79553225D01*
X119971785Y-79544222D01*
X119964560Y-79489334D01*
X119945309Y-79417491D01*
X119943681Y-79410640D01*
X119943680Y-79410636D01*
X119927334Y-79331968D01*
X119908906Y-79280119D01*
X119905977Y-79270701D01*
X119893771Y-79225145D01*
X119893295Y-79223368D01*
X119862399Y-79148779D01*
X119860136Y-79142893D01*
X119831104Y-79061203D01*
X119808713Y-79017990D01*
X119804252Y-79008401D01*
X119787923Y-78968979D01*
X119787918Y-78968971D01*
X119787915Y-78968963D01*
X119744406Y-78893606D01*
X119741694Y-78888652D01*
X119730646Y-78867331D01*
X119698901Y-78806064D01*
X119674487Y-78771477D01*
X119668412Y-78761979D01*
X119650252Y-78730525D01*
X119650251Y-78730523D01*
X119593425Y-78656466D01*
X119590497Y-78652488D01*
X119533191Y-78571304D01*
X119508630Y-78545006D01*
X119500876Y-78535854D01*
X119482629Y-78512074D01*
X119482628Y-78512072D01*
X119412118Y-78441562D01*
X119409207Y-78438549D01*
X119369960Y-78396527D01*
X119337053Y-78361292D01*
X119314058Y-78342584D01*
X119304636Y-78334080D01*
X119287926Y-78317370D01*
X119203809Y-78252825D01*
X119201040Y-78250637D01*
X119114153Y-78179949D01*
X119114144Y-78179943D01*
X119094244Y-78167841D01*
X119083188Y-78160270D01*
X119069480Y-78149751D01*
X118991453Y-78104703D01*
X118972165Y-78093567D01*
X118969779Y-78092153D01*
X118868620Y-78030636D01*
X118857408Y-78025766D01*
X118853086Y-78023889D01*
X118840496Y-78017547D01*
X118831021Y-78012077D01*
X118831016Y-78012075D01*
X118831007Y-78012070D01*
X118721380Y-77966660D01*
X118719433Y-77965835D01*
X118605056Y-77916155D01*
X118605052Y-77916153D01*
X118594854Y-77913296D01*
X118580862Y-77908457D01*
X118576632Y-77906705D01*
X118576630Y-77906704D01*
X118455810Y-77874329D01*
X118454452Y-77873957D01*
X118328360Y-77838629D01*
X118326237Y-77838337D01*
X118324155Y-77838051D01*
X118314665Y-77836134D01*
X118314646Y-77836231D01*
X118310664Y-77835439D01*
X118180415Y-77818292D01*
X118179715Y-77818198D01*
X118043679Y-77799500D01*
X118043678Y-77799500D01*
X117756322Y-77799500D01*
X117756321Y-77799500D01*
X117620283Y-77818198D01*
X117619583Y-77818292D01*
X117489343Y-77835438D01*
X117485364Y-77836230D01*
X117485345Y-77836134D01*
X117475859Y-77838048D01*
X117471654Y-77838626D01*
X117471638Y-77838629D01*
X117345591Y-77873945D01*
X117344233Y-77874317D01*
X117223368Y-77906703D01*
X117223367Y-77906704D01*
X117219110Y-77908467D01*
X117205146Y-77913296D01*
X117194937Y-77916157D01*
X117194935Y-77916158D01*
X117080564Y-77965835D01*
X117078619Y-77966660D01*
X116968974Y-78012079D01*
X116968966Y-78012083D01*
X116959511Y-78017542D01*
X116946923Y-78023885D01*
X116931376Y-78030638D01*
X116830237Y-78092142D01*
X116827810Y-78093580D01*
X116730523Y-78149749D01*
X116730513Y-78149756D01*
X116716798Y-78160279D01*
X116705751Y-78167844D01*
X116685856Y-78179943D01*
X116685844Y-78179951D01*
X116598948Y-78250645D01*
X116596207Y-78252811D01*
X116559566Y-78280928D01*
X116512071Y-78317372D01*
X116495362Y-78334081D01*
X116485941Y-78342584D01*
X116462950Y-78361289D01*
X116462945Y-78361293D01*
X116390819Y-78438520D01*
X116387879Y-78441562D01*
X116317378Y-78512064D01*
X116317369Y-78512074D01*
X116299117Y-78535860D01*
X116291370Y-78545005D01*
X116266811Y-78571302D01*
X116266810Y-78571303D01*
X116209507Y-78652481D01*
X116206581Y-78656456D01*
X116149751Y-78730520D01*
X116149744Y-78730531D01*
X116131586Y-78761980D01*
X116125508Y-78771481D01*
X116101098Y-78806064D01*
X116058297Y-78888665D01*
X116055587Y-78893616D01*
X116012080Y-78968971D01*
X116012072Y-78968987D01*
X115995747Y-79008397D01*
X115991288Y-79017983D01*
X115968897Y-79061198D01*
X115968894Y-79061207D01*
X115939862Y-79142893D01*
X115937583Y-79148819D01*
X115906706Y-79223363D01*
X115906705Y-79223365D01*
X115894019Y-79270709D01*
X115891086Y-79280136D01*
X115872666Y-79331966D01*
X115872665Y-79331968D01*
X115862320Y-79381753D01*
X115856318Y-79410640D01*
X115854687Y-79417500D01*
X115835440Y-79489334D01*
X115835439Y-79489336D01*
X115828215Y-79544207D01*
X115826683Y-79553246D01*
X115814201Y-79613315D01*
X115814201Y-79613316D01*
X115809149Y-79687168D01*
X115808377Y-79694887D01*
X115799500Y-79762323D01*
X115799500Y-79824011D01*
X115799211Y-79832473D01*
X115794592Y-79899999D01*
X113200500Y-79899999D01*
X113200500Y-78403480D01*
X113200695Y-78396527D01*
X113205140Y-78317370D01*
X113217084Y-78104691D01*
X113218638Y-78090898D01*
X113267015Y-77806167D01*
X113270109Y-77792615D01*
X113341563Y-77544596D01*
X113350061Y-77515096D01*
X113354653Y-77501975D01*
X113433618Y-77311337D01*
X113465175Y-77235151D01*
X113471195Y-77222651D01*
X113610902Y-76969868D01*
X113618297Y-76958100D01*
X113785422Y-76722559D01*
X113794077Y-76711705D01*
X113986534Y-76496346D01*
X113996346Y-76486534D01*
X114211705Y-76294077D01*
X114222559Y-76285422D01*
X114458105Y-76118293D01*
X114469868Y-76110902D01*
X114722651Y-75971195D01*
X114735151Y-75965175D01*
X115001979Y-75854651D01*
X115015096Y-75850061D01*
X115292621Y-75770107D01*
X115306167Y-75767015D01*
X115590898Y-75718638D01*
X115604691Y-75717084D01*
X115896528Y-75700695D01*
X115903481Y-75700500D01*
X115947595Y-75700500D01*
X163452405Y-75700500D01*
X163496519Y-75700500D01*
X163503472Y-75700695D01*
G37*
%TD.AperFunction*%
%TD*%
M02*
