%TF.GenerationSoftware,KiCad,Pcbnew,8.0.6-1.fc40*%
%TF.CreationDate,2024-12-02T14:58:13+01:00*%
%TF.ProjectId,PeltierDriver,50656c74-6965-4724-9472-697665722e6b,rev?*%
%TF.SameCoordinates,Original*%
%TF.FileFunction,Paste,Top*%
%TF.FilePolarity,Positive*%
%FSLAX46Y46*%
G04 Gerber Fmt 4.6, Leading zero omitted, Abs format (unit mm)*
G04 Created by KiCad (PCBNEW 8.0.6-1.fc40) date 2024-12-02 14:58:13*
%MOMM*%
%LPD*%
G01*
G04 APERTURE LIST*
G04 Aperture macros list*
%AMRoundRect*
0 Rectangle with rounded corners*
0 $1 Rounding radius*
0 $2 $3 $4 $5 $6 $7 $8 $9 X,Y pos of 4 corners*
0 Add a 4 corners polygon primitive as box body*
4,1,4,$2,$3,$4,$5,$6,$7,$8,$9,$2,$3,0*
0 Add four circle primitives for the rounded corners*
1,1,$1+$1,$2,$3*
1,1,$1+$1,$4,$5*
1,1,$1+$1,$6,$7*
1,1,$1+$1,$8,$9*
0 Add four rect primitives between the rounded corners*
20,1,$1+$1,$2,$3,$4,$5,0*
20,1,$1+$1,$4,$5,$6,$7,0*
20,1,$1+$1,$6,$7,$8,$9,0*
20,1,$1+$1,$8,$9,$2,$3,0*%
G04 Aperture macros list end*
%ADD10R,1.475000X0.450000*%
%ADD11RoundRect,0.250000X-0.337500X-0.475000X0.337500X-0.475000X0.337500X0.475000X-0.337500X0.475000X0*%
%ADD12RoundRect,0.250000X0.450000X-0.350000X0.450000X0.350000X-0.450000X0.350000X-0.450000X-0.350000X0*%
%ADD13R,5.100000X2.050000*%
%ADD14RoundRect,0.250000X0.400000X0.625000X-0.400000X0.625000X-0.400000X-0.625000X0.400000X-0.625000X0*%
G04 APERTURE END LIST*
D10*
%TO.C,IC1*%
X137162000Y-99575000D03*
X137162000Y-100225000D03*
X137162000Y-100875000D03*
X137162000Y-101525000D03*
X137162000Y-102175000D03*
X137162000Y-102825000D03*
X137162000Y-103475000D03*
X137162000Y-104125000D03*
X137162000Y-104775000D03*
X137162000Y-105425000D03*
X137162000Y-106075000D03*
X137162000Y-106725000D03*
X137162000Y-107375000D03*
X137162000Y-108025000D03*
X143038000Y-108025000D03*
X143038000Y-107375000D03*
X143038000Y-106725000D03*
X143038000Y-106075000D03*
X143038000Y-105425000D03*
X143038000Y-104775000D03*
X143038000Y-104125000D03*
X143038000Y-103475000D03*
X143038000Y-102825000D03*
X143038000Y-102175000D03*
X143038000Y-101525000D03*
X143038000Y-100875000D03*
X143038000Y-100225000D03*
X143038000Y-99575000D03*
%TD*%
D11*
%TO.C,C8*%
X135412500Y-116100000D03*
X137487500Y-116100000D03*
%TD*%
D12*
%TO.C,R1*%
X145100000Y-100300000D03*
X145100000Y-98300000D03*
%TD*%
D13*
%TO.C,L2*%
X130788000Y-105850000D03*
X130788000Y-110200000D03*
%TD*%
D11*
%TO.C,C7*%
X136250500Y-110275000D03*
X138325500Y-110275000D03*
%TD*%
D14*
%TO.C,R3*%
X140450000Y-112550000D03*
X137350000Y-112550000D03*
%TD*%
D12*
%TO.C,R2*%
X143086863Y-97639693D03*
X143086863Y-95639693D03*
%TD*%
D13*
%TO.C,L1*%
X149100000Y-105375000D03*
X149100000Y-109725000D03*
%TD*%
M02*
