%TF.GenerationSoftware,KiCad,Pcbnew,8.0.6-1.fc40*%
%TF.CreationDate,2024-12-02T14:58:13+01:00*%
%TF.ProjectId,PeltierDriver,50656c74-6965-4724-9472-697665722e6b,rev?*%
%TF.SameCoordinates,Original*%
%TF.FileFunction,Soldermask,Bot*%
%TF.FilePolarity,Negative*%
%FSLAX46Y46*%
G04 Gerber Fmt 4.6, Leading zero omitted, Abs format (unit mm)*
G04 Created by KiCad (PCBNEW 8.0.6-1.fc40) date 2024-12-02 14:58:13*
%MOMM*%
%LPD*%
G01*
G04 APERTURE LIST*
G04 Aperture macros list*
%AMRoundRect*
0 Rectangle with rounded corners*
0 $1 Rounding radius*
0 $2 $3 $4 $5 $6 $7 $8 $9 X,Y pos of 4 corners*
0 Add a 4 corners polygon primitive as box body*
4,1,4,$2,$3,$4,$5,$6,$7,$8,$9,$2,$3,0*
0 Add four circle primitives for the rounded corners*
1,1,$1+$1,$2,$3*
1,1,$1+$1,$4,$5*
1,1,$1+$1,$6,$7*
1,1,$1+$1,$8,$9*
0 Add four rect primitives between the rounded corners*
20,1,$1+$1,$2,$3,$4,$5,0*
20,1,$1+$1,$4,$5,$6,$7,0*
20,1,$1+$1,$6,$7,$8,$9,0*
20,1,$1+$1,$8,$9,$2,$3,0*%
G04 Aperture macros list end*
%ADD10R,1.700000X1.700000*%
%ADD11O,1.700000X1.700000*%
%ADD12C,3.200000*%
%ADD13RoundRect,0.250000X-0.475000X0.337500X-0.475000X-0.337500X0.475000X-0.337500X0.475000X0.337500X0*%
%ADD14RoundRect,0.250000X0.350000X0.450000X-0.350000X0.450000X-0.350000X-0.450000X0.350000X-0.450000X0*%
%ADD15RoundRect,0.250000X-0.337500X-0.475000X0.337500X-0.475000X0.337500X0.475000X-0.337500X0.475000X0*%
%ADD16RoundRect,0.250000X-0.350000X-0.450000X0.350000X-0.450000X0.350000X0.450000X-0.350000X0.450000X0*%
%ADD17RoundRect,0.250000X0.475000X-0.337500X0.475000X0.337500X-0.475000X0.337500X-0.475000X-0.337500X0*%
%ADD18RoundRect,0.250000X0.337500X0.475000X-0.337500X0.475000X-0.337500X-0.475000X0.337500X-0.475000X0*%
%ADD19R,1.350000X0.450000*%
G04 APERTURE END LIST*
D10*
%TO.C,VIBR1*%
X129050000Y-94430000D03*
D11*
X129050000Y-91890000D03*
X129050000Y-89350000D03*
X129050000Y-86810000D03*
X129050000Y-84270000D03*
X116350000Y-91890000D03*
X116350000Y-86810000D03*
%TD*%
D12*
%TO.C,REF\u002A\u002A*%
X117900000Y-79900000D03*
%TD*%
D10*
%TO.C,J2*%
X115700000Y-106875000D03*
D11*
X115700000Y-104335000D03*
%TD*%
D10*
%TO.C,Flex1*%
X152675000Y-115600000D03*
D11*
X155215000Y-115600000D03*
%TD*%
D10*
%TO.C,TH1*%
X143675000Y-115600000D03*
D11*
X146215000Y-115600000D03*
%TD*%
D10*
%TO.C,J4*%
X134825000Y-82525000D03*
D11*
X137365000Y-82525000D03*
X134825000Y-85065000D03*
X137365000Y-85065000D03*
%TD*%
D10*
%TO.C,J6*%
X142075000Y-77775000D03*
D11*
X144615000Y-77775000D03*
X142075000Y-80315000D03*
X144615000Y-80315000D03*
X142075000Y-82855000D03*
X144615000Y-82855000D03*
%TD*%
D10*
%TO.C,PE1*%
X132575000Y-115400000D03*
D11*
X130035000Y-115400000D03*
%TD*%
D10*
%TO.C,VIBR2*%
X150350000Y-84270000D03*
D11*
X150350000Y-86810000D03*
X150350000Y-89350000D03*
X150350000Y-91890000D03*
X150350000Y-94430000D03*
X163050000Y-86810000D03*
X163050000Y-91890000D03*
%TD*%
D10*
%TO.C,J1*%
X138575000Y-89050000D03*
D11*
X141115000Y-89050000D03*
%TD*%
D10*
%TO.C,J3*%
X163700000Y-104325000D03*
D11*
X163700000Y-106865000D03*
%TD*%
D12*
%TO.C,REF\u002A\u002A*%
X161450000Y-113500000D03*
%TD*%
%TO.C,REF\u002A\u002A*%
X117900000Y-113500000D03*
%TD*%
D13*
%TO.C,C2*%
X137146960Y-105512500D03*
X137146960Y-107587500D03*
%TD*%
D14*
%TO.C,R6*%
X154950000Y-103600000D03*
X152950000Y-103600000D03*
%TD*%
D15*
%TO.C,C9*%
X152912500Y-101600000D03*
X154987500Y-101600000D03*
%TD*%
D16*
%TO.C,R5*%
X152700000Y-109850000D03*
X154700000Y-109850000D03*
%TD*%
D15*
%TO.C,C1*%
X137062500Y-99775000D03*
X139137500Y-99775000D03*
%TD*%
D17*
%TO.C,C5*%
X145600000Y-101837500D03*
X145600000Y-99762500D03*
%TD*%
D13*
%TO.C,C4*%
X137125925Y-101663889D03*
X137125925Y-103738889D03*
%TD*%
D15*
%TO.C,C10*%
X148412500Y-101600000D03*
X150487500Y-101600000D03*
%TD*%
D14*
%TO.C,R7*%
X150450000Y-103600000D03*
X148450000Y-103600000D03*
%TD*%
D18*
%TO.C,C6*%
X142537500Y-109400000D03*
X140462500Y-109400000D03*
%TD*%
D16*
%TO.C,R4*%
X148700000Y-109850000D03*
X150700000Y-109850000D03*
%TD*%
D19*
%TO.C,U1*%
X154800000Y-105600000D03*
X154800000Y-106250000D03*
X154800000Y-106900000D03*
X154800000Y-107550000D03*
X148700000Y-107550000D03*
X148700000Y-106900000D03*
X148700000Y-106250000D03*
X148700000Y-105600000D03*
%TD*%
D13*
%TO.C,C3*%
X143100000Y-105262500D03*
X143100000Y-107337500D03*
%TD*%
D12*
%TO.C,REF\u002A\u002A*%
X161500000Y-79900000D03*
%TD*%
M02*
