%TF.GenerationSoftware,KiCad,Pcbnew,8.0.6-1.fc40*%
%TF.CreationDate,2024-12-02T14:58:13+01:00*%
%TF.ProjectId,PeltierDriver,50656c74-6965-4724-9472-697665722e6b,rev?*%
%TF.SameCoordinates,Original*%
%TF.FileFunction,Legend,Top*%
%TF.FilePolarity,Positive*%
%FSLAX46Y46*%
G04 Gerber Fmt 4.6, Leading zero omitted, Abs format (unit mm)*
G04 Created by KiCad (PCBNEW 8.0.6-1.fc40) date 2024-12-02 14:58:13*
%MOMM*%
%LPD*%
G01*
G04 APERTURE LIST*
%ADD10C,0.200000*%
%ADD11C,0.254000*%
%ADD12C,0.150000*%
%ADD13C,0.050000*%
%ADD14C,0.120000*%
%ADD15C,0.100000*%
G04 APERTURE END LIST*
D10*
X122152219Y-91397618D02*
X123152219Y-91064285D01*
X123152219Y-91064285D02*
X122152219Y-90730952D01*
X123152219Y-90397618D02*
X122152219Y-90397618D01*
X122628409Y-89588095D02*
X122676028Y-89445238D01*
X122676028Y-89445238D02*
X122723647Y-89397619D01*
X122723647Y-89397619D02*
X122818885Y-89350000D01*
X122818885Y-89350000D02*
X122961742Y-89350000D01*
X122961742Y-89350000D02*
X123056980Y-89397619D01*
X123056980Y-89397619D02*
X123104600Y-89445238D01*
X123104600Y-89445238D02*
X123152219Y-89540476D01*
X123152219Y-89540476D02*
X123152219Y-89921428D01*
X123152219Y-89921428D02*
X122152219Y-89921428D01*
X122152219Y-89921428D02*
X122152219Y-89588095D01*
X122152219Y-89588095D02*
X122199838Y-89492857D01*
X122199838Y-89492857D02*
X122247457Y-89445238D01*
X122247457Y-89445238D02*
X122342695Y-89397619D01*
X122342695Y-89397619D02*
X122437933Y-89397619D01*
X122437933Y-89397619D02*
X122533171Y-89445238D01*
X122533171Y-89445238D02*
X122580790Y-89492857D01*
X122580790Y-89492857D02*
X122628409Y-89588095D01*
X122628409Y-89588095D02*
X122628409Y-89921428D01*
X123152219Y-88350000D02*
X122676028Y-88683333D01*
X123152219Y-88921428D02*
X122152219Y-88921428D01*
X122152219Y-88921428D02*
X122152219Y-88540476D01*
X122152219Y-88540476D02*
X122199838Y-88445238D01*
X122199838Y-88445238D02*
X122247457Y-88397619D01*
X122247457Y-88397619D02*
X122342695Y-88350000D01*
X122342695Y-88350000D02*
X122485552Y-88350000D01*
X122485552Y-88350000D02*
X122580790Y-88397619D01*
X122580790Y-88397619D02*
X122628409Y-88445238D01*
X122628409Y-88445238D02*
X122676028Y-88540476D01*
X122676028Y-88540476D02*
X122676028Y-88921428D01*
X123152219Y-87397619D02*
X123152219Y-87969047D01*
X123152219Y-87683333D02*
X122152219Y-87683333D01*
X122152219Y-87683333D02*
X122295076Y-87778571D01*
X122295076Y-87778571D02*
X122390314Y-87873809D01*
X122390314Y-87873809D02*
X122437933Y-87969047D01*
D11*
X138860237Y-104374318D02*
X138860237Y-103104318D01*
X140190714Y-104253365D02*
X140130238Y-104313842D01*
X140130238Y-104313842D02*
X139948809Y-104374318D01*
X139948809Y-104374318D02*
X139827857Y-104374318D01*
X139827857Y-104374318D02*
X139646428Y-104313842D01*
X139646428Y-104313842D02*
X139525476Y-104192889D01*
X139525476Y-104192889D02*
X139464999Y-104071937D01*
X139464999Y-104071937D02*
X139404523Y-103830032D01*
X139404523Y-103830032D02*
X139404523Y-103648603D01*
X139404523Y-103648603D02*
X139464999Y-103406699D01*
X139464999Y-103406699D02*
X139525476Y-103285746D01*
X139525476Y-103285746D02*
X139646428Y-103164794D01*
X139646428Y-103164794D02*
X139827857Y-103104318D01*
X139827857Y-103104318D02*
X139948809Y-103104318D01*
X139948809Y-103104318D02*
X140130238Y-103164794D01*
X140130238Y-103164794D02*
X140190714Y-103225270D01*
X141400238Y-104374318D02*
X140674523Y-104374318D01*
X141037380Y-104374318D02*
X141037380Y-103104318D01*
X141037380Y-103104318D02*
X140916428Y-103285746D01*
X140916428Y-103285746D02*
X140795476Y-103406699D01*
X140795476Y-103406699D02*
X140674523Y-103467175D01*
D12*
X136283333Y-114779580D02*
X136235714Y-114827200D01*
X136235714Y-114827200D02*
X136092857Y-114874819D01*
X136092857Y-114874819D02*
X135997619Y-114874819D01*
X135997619Y-114874819D02*
X135854762Y-114827200D01*
X135854762Y-114827200D02*
X135759524Y-114731961D01*
X135759524Y-114731961D02*
X135711905Y-114636723D01*
X135711905Y-114636723D02*
X135664286Y-114446247D01*
X135664286Y-114446247D02*
X135664286Y-114303390D01*
X135664286Y-114303390D02*
X135711905Y-114112914D01*
X135711905Y-114112914D02*
X135759524Y-114017676D01*
X135759524Y-114017676D02*
X135854762Y-113922438D01*
X135854762Y-113922438D02*
X135997619Y-113874819D01*
X135997619Y-113874819D02*
X136092857Y-113874819D01*
X136092857Y-113874819D02*
X136235714Y-113922438D01*
X136235714Y-113922438D02*
X136283333Y-113970057D01*
X136854762Y-114303390D02*
X136759524Y-114255771D01*
X136759524Y-114255771D02*
X136711905Y-114208152D01*
X136711905Y-114208152D02*
X136664286Y-114112914D01*
X136664286Y-114112914D02*
X136664286Y-114065295D01*
X136664286Y-114065295D02*
X136711905Y-113970057D01*
X136711905Y-113970057D02*
X136759524Y-113922438D01*
X136759524Y-113922438D02*
X136854762Y-113874819D01*
X136854762Y-113874819D02*
X137045238Y-113874819D01*
X137045238Y-113874819D02*
X137140476Y-113922438D01*
X137140476Y-113922438D02*
X137188095Y-113970057D01*
X137188095Y-113970057D02*
X137235714Y-114065295D01*
X137235714Y-114065295D02*
X137235714Y-114112914D01*
X137235714Y-114112914D02*
X137188095Y-114208152D01*
X137188095Y-114208152D02*
X137140476Y-114255771D01*
X137140476Y-114255771D02*
X137045238Y-114303390D01*
X137045238Y-114303390D02*
X136854762Y-114303390D01*
X136854762Y-114303390D02*
X136759524Y-114351009D01*
X136759524Y-114351009D02*
X136711905Y-114398628D01*
X136711905Y-114398628D02*
X136664286Y-114493866D01*
X136664286Y-114493866D02*
X136664286Y-114684342D01*
X136664286Y-114684342D02*
X136711905Y-114779580D01*
X136711905Y-114779580D02*
X136759524Y-114827200D01*
X136759524Y-114827200D02*
X136854762Y-114874819D01*
X136854762Y-114874819D02*
X137045238Y-114874819D01*
X137045238Y-114874819D02*
X137140476Y-114827200D01*
X137140476Y-114827200D02*
X137188095Y-114779580D01*
X137188095Y-114779580D02*
X137235714Y-114684342D01*
X137235714Y-114684342D02*
X137235714Y-114493866D01*
X137235714Y-114493866D02*
X137188095Y-114398628D01*
X137188095Y-114398628D02*
X137140476Y-114351009D01*
X137140476Y-114351009D02*
X137045238Y-114303390D01*
X118116666Y-107304819D02*
X118116666Y-108019104D01*
X118116666Y-108019104D02*
X118069047Y-108161961D01*
X118069047Y-108161961D02*
X117973809Y-108257200D01*
X117973809Y-108257200D02*
X117830952Y-108304819D01*
X117830952Y-108304819D02*
X117735714Y-108304819D01*
X118545238Y-107400057D02*
X118592857Y-107352438D01*
X118592857Y-107352438D02*
X118688095Y-107304819D01*
X118688095Y-107304819D02*
X118926190Y-107304819D01*
X118926190Y-107304819D02*
X119021428Y-107352438D01*
X119021428Y-107352438D02*
X119069047Y-107400057D01*
X119069047Y-107400057D02*
X119116666Y-107495295D01*
X119116666Y-107495295D02*
X119116666Y-107590533D01*
X119116666Y-107590533D02*
X119069047Y-107733390D01*
X119069047Y-107733390D02*
X118497619Y-108304819D01*
X118497619Y-108304819D02*
X119116666Y-108304819D01*
X147154819Y-99766666D02*
X146678628Y-100099999D01*
X147154819Y-100338094D02*
X146154819Y-100338094D01*
X146154819Y-100338094D02*
X146154819Y-99957142D01*
X146154819Y-99957142D02*
X146202438Y-99861904D01*
X146202438Y-99861904D02*
X146250057Y-99814285D01*
X146250057Y-99814285D02*
X146345295Y-99766666D01*
X146345295Y-99766666D02*
X146488152Y-99766666D01*
X146488152Y-99766666D02*
X146583390Y-99814285D01*
X146583390Y-99814285D02*
X146631009Y-99861904D01*
X146631009Y-99861904D02*
X146678628Y-99957142D01*
X146678628Y-99957142D02*
X146678628Y-100338094D01*
X147154819Y-98814285D02*
X147154819Y-99385713D01*
X147154819Y-99099999D02*
X146154819Y-99099999D01*
X146154819Y-99099999D02*
X146297676Y-99195237D01*
X146297676Y-99195237D02*
X146392914Y-99290475D01*
X146392914Y-99290475D02*
X146440533Y-99385713D01*
X153521428Y-113031009D02*
X153188095Y-113031009D01*
X153188095Y-113554819D02*
X153188095Y-112554819D01*
X153188095Y-112554819D02*
X153664285Y-112554819D01*
X154188095Y-113554819D02*
X154092857Y-113507200D01*
X154092857Y-113507200D02*
X154045238Y-113411961D01*
X154045238Y-113411961D02*
X154045238Y-112554819D01*
X154950000Y-113507200D02*
X154854762Y-113554819D01*
X154854762Y-113554819D02*
X154664286Y-113554819D01*
X154664286Y-113554819D02*
X154569048Y-113507200D01*
X154569048Y-113507200D02*
X154521429Y-113411961D01*
X154521429Y-113411961D02*
X154521429Y-113031009D01*
X154521429Y-113031009D02*
X154569048Y-112935771D01*
X154569048Y-112935771D02*
X154664286Y-112888152D01*
X154664286Y-112888152D02*
X154854762Y-112888152D01*
X154854762Y-112888152D02*
X154950000Y-112935771D01*
X154950000Y-112935771D02*
X154997619Y-113031009D01*
X154997619Y-113031009D02*
X154997619Y-113126247D01*
X154997619Y-113126247D02*
X154521429Y-113221485D01*
X155330953Y-113554819D02*
X155854762Y-112888152D01*
X155330953Y-112888152D02*
X155854762Y-113554819D01*
X156759524Y-113554819D02*
X156188096Y-113554819D01*
X156473810Y-113554819D02*
X156473810Y-112554819D01*
X156473810Y-112554819D02*
X156378572Y-112697676D01*
X156378572Y-112697676D02*
X156283334Y-112792914D01*
X156283334Y-112792914D02*
X156188096Y-112840533D01*
X139664286Y-116304819D02*
X140235714Y-116304819D01*
X139950000Y-117304819D02*
X139950000Y-116304819D01*
X140569048Y-117304819D02*
X140569048Y-116304819D01*
X140569048Y-116781009D02*
X141140476Y-116781009D01*
X141140476Y-117304819D02*
X141140476Y-116304819D01*
X142140476Y-117304819D02*
X141569048Y-117304819D01*
X141854762Y-117304819D02*
X141854762Y-116304819D01*
X141854762Y-116304819D02*
X141759524Y-116447676D01*
X141759524Y-116447676D02*
X141664286Y-116542914D01*
X141664286Y-116542914D02*
X141569048Y-116590533D01*
X135761666Y-79649819D02*
X135761666Y-80364104D01*
X135761666Y-80364104D02*
X135714047Y-80506961D01*
X135714047Y-80506961D02*
X135618809Y-80602200D01*
X135618809Y-80602200D02*
X135475952Y-80649819D01*
X135475952Y-80649819D02*
X135380714Y-80649819D01*
X136666428Y-79983152D02*
X136666428Y-80649819D01*
X136428333Y-79602200D02*
X136190238Y-80316485D01*
X136190238Y-80316485D02*
X136809285Y-80316485D01*
D11*
X130576333Y-108599318D02*
X129971571Y-108599318D01*
X129971571Y-108599318D02*
X129971571Y-107329318D01*
X130939190Y-107450270D02*
X130999666Y-107389794D01*
X130999666Y-107389794D02*
X131120619Y-107329318D01*
X131120619Y-107329318D02*
X131423000Y-107329318D01*
X131423000Y-107329318D02*
X131543952Y-107389794D01*
X131543952Y-107389794D02*
X131604428Y-107450270D01*
X131604428Y-107450270D02*
X131664905Y-107571222D01*
X131664905Y-107571222D02*
X131664905Y-107692175D01*
X131664905Y-107692175D02*
X131604428Y-107873603D01*
X131604428Y-107873603D02*
X130878714Y-108599318D01*
X130878714Y-108599318D02*
X131664905Y-108599318D01*
D12*
X135033333Y-108959580D02*
X134985714Y-109007200D01*
X134985714Y-109007200D02*
X134842857Y-109054819D01*
X134842857Y-109054819D02*
X134747619Y-109054819D01*
X134747619Y-109054819D02*
X134604762Y-109007200D01*
X134604762Y-109007200D02*
X134509524Y-108911961D01*
X134509524Y-108911961D02*
X134461905Y-108816723D01*
X134461905Y-108816723D02*
X134414286Y-108626247D01*
X134414286Y-108626247D02*
X134414286Y-108483390D01*
X134414286Y-108483390D02*
X134461905Y-108292914D01*
X134461905Y-108292914D02*
X134509524Y-108197676D01*
X134509524Y-108197676D02*
X134604762Y-108102438D01*
X134604762Y-108102438D02*
X134747619Y-108054819D01*
X134747619Y-108054819D02*
X134842857Y-108054819D01*
X134842857Y-108054819D02*
X134985714Y-108102438D01*
X134985714Y-108102438D02*
X135033333Y-108150057D01*
X135366667Y-108054819D02*
X136033333Y-108054819D01*
X136033333Y-108054819D02*
X135604762Y-109054819D01*
X139116666Y-77054819D02*
X139116666Y-77769104D01*
X139116666Y-77769104D02*
X139069047Y-77911961D01*
X139069047Y-77911961D02*
X138973809Y-78007200D01*
X138973809Y-78007200D02*
X138830952Y-78054819D01*
X138830952Y-78054819D02*
X138735714Y-78054819D01*
X140021428Y-77054819D02*
X139830952Y-77054819D01*
X139830952Y-77054819D02*
X139735714Y-77102438D01*
X139735714Y-77102438D02*
X139688095Y-77150057D01*
X139688095Y-77150057D02*
X139592857Y-77292914D01*
X139592857Y-77292914D02*
X139545238Y-77483390D01*
X139545238Y-77483390D02*
X139545238Y-77864342D01*
X139545238Y-77864342D02*
X139592857Y-77959580D01*
X139592857Y-77959580D02*
X139640476Y-78007200D01*
X139640476Y-78007200D02*
X139735714Y-78054819D01*
X139735714Y-78054819D02*
X139926190Y-78054819D01*
X139926190Y-78054819D02*
X140021428Y-78007200D01*
X140021428Y-78007200D02*
X140069047Y-77959580D01*
X140069047Y-77959580D02*
X140116666Y-77864342D01*
X140116666Y-77864342D02*
X140116666Y-77626247D01*
X140116666Y-77626247D02*
X140069047Y-77531009D01*
X140069047Y-77531009D02*
X140021428Y-77483390D01*
X140021428Y-77483390D02*
X139926190Y-77435771D01*
X139926190Y-77435771D02*
X139735714Y-77435771D01*
X139735714Y-77435771D02*
X139640476Y-77483390D01*
X139640476Y-77483390D02*
X139592857Y-77531009D01*
X139592857Y-77531009D02*
X139545238Y-77626247D01*
X125759524Y-116554819D02*
X125759524Y-115554819D01*
X125759524Y-115554819D02*
X126140476Y-115554819D01*
X126140476Y-115554819D02*
X126235714Y-115602438D01*
X126235714Y-115602438D02*
X126283333Y-115650057D01*
X126283333Y-115650057D02*
X126330952Y-115745295D01*
X126330952Y-115745295D02*
X126330952Y-115888152D01*
X126330952Y-115888152D02*
X126283333Y-115983390D01*
X126283333Y-115983390D02*
X126235714Y-116031009D01*
X126235714Y-116031009D02*
X126140476Y-116078628D01*
X126140476Y-116078628D02*
X125759524Y-116078628D01*
X126759524Y-116031009D02*
X127092857Y-116031009D01*
X127235714Y-116554819D02*
X126759524Y-116554819D01*
X126759524Y-116554819D02*
X126759524Y-115554819D01*
X126759524Y-115554819D02*
X127235714Y-115554819D01*
X128188095Y-116554819D02*
X127616667Y-116554819D01*
X127902381Y-116554819D02*
X127902381Y-115554819D01*
X127902381Y-115554819D02*
X127807143Y-115697676D01*
X127807143Y-115697676D02*
X127711905Y-115792914D01*
X127711905Y-115792914D02*
X127616667Y-115840533D01*
D10*
X157747780Y-87302381D02*
X156747780Y-87635714D01*
X156747780Y-87635714D02*
X157747780Y-87969047D01*
X156747780Y-88302381D02*
X157747780Y-88302381D01*
X157271590Y-89111904D02*
X157223971Y-89254761D01*
X157223971Y-89254761D02*
X157176352Y-89302380D01*
X157176352Y-89302380D02*
X157081114Y-89349999D01*
X157081114Y-89349999D02*
X156938257Y-89349999D01*
X156938257Y-89349999D02*
X156843019Y-89302380D01*
X156843019Y-89302380D02*
X156795400Y-89254761D01*
X156795400Y-89254761D02*
X156747780Y-89159523D01*
X156747780Y-89159523D02*
X156747780Y-88778571D01*
X156747780Y-88778571D02*
X157747780Y-88778571D01*
X157747780Y-88778571D02*
X157747780Y-89111904D01*
X157747780Y-89111904D02*
X157700161Y-89207142D01*
X157700161Y-89207142D02*
X157652542Y-89254761D01*
X157652542Y-89254761D02*
X157557304Y-89302380D01*
X157557304Y-89302380D02*
X157462066Y-89302380D01*
X157462066Y-89302380D02*
X157366828Y-89254761D01*
X157366828Y-89254761D02*
X157319209Y-89207142D01*
X157319209Y-89207142D02*
X157271590Y-89111904D01*
X157271590Y-89111904D02*
X157271590Y-88778571D01*
X156747780Y-90349999D02*
X157223971Y-90016666D01*
X156747780Y-89778571D02*
X157747780Y-89778571D01*
X157747780Y-89778571D02*
X157747780Y-90159523D01*
X157747780Y-90159523D02*
X157700161Y-90254761D01*
X157700161Y-90254761D02*
X157652542Y-90302380D01*
X157652542Y-90302380D02*
X157557304Y-90349999D01*
X157557304Y-90349999D02*
X157414447Y-90349999D01*
X157414447Y-90349999D02*
X157319209Y-90302380D01*
X157319209Y-90302380D02*
X157271590Y-90254761D01*
X157271590Y-90254761D02*
X157223971Y-90159523D01*
X157223971Y-90159523D02*
X157223971Y-89778571D01*
X157652542Y-90730952D02*
X157700161Y-90778571D01*
X157700161Y-90778571D02*
X157747780Y-90873809D01*
X157747780Y-90873809D02*
X157747780Y-91111904D01*
X157747780Y-91111904D02*
X157700161Y-91207142D01*
X157700161Y-91207142D02*
X157652542Y-91254761D01*
X157652542Y-91254761D02*
X157557304Y-91302380D01*
X157557304Y-91302380D02*
X157462066Y-91302380D01*
X157462066Y-91302380D02*
X157319209Y-91254761D01*
X157319209Y-91254761D02*
X156747780Y-90683333D01*
X156747780Y-90683333D02*
X156747780Y-91302380D01*
D12*
X135699819Y-89383333D02*
X136414104Y-89383333D01*
X136414104Y-89383333D02*
X136556961Y-89430952D01*
X136556961Y-89430952D02*
X136652200Y-89526190D01*
X136652200Y-89526190D02*
X136699819Y-89669047D01*
X136699819Y-89669047D02*
X136699819Y-89764285D01*
X136699819Y-88383333D02*
X136699819Y-88954761D01*
X136699819Y-88669047D02*
X135699819Y-88669047D01*
X135699819Y-88669047D02*
X135842676Y-88764285D01*
X135842676Y-88764285D02*
X135937914Y-88859523D01*
X135937914Y-88859523D02*
X135985533Y-88954761D01*
X138733333Y-114824819D02*
X138400000Y-114348628D01*
X138161905Y-114824819D02*
X138161905Y-113824819D01*
X138161905Y-113824819D02*
X138542857Y-113824819D01*
X138542857Y-113824819D02*
X138638095Y-113872438D01*
X138638095Y-113872438D02*
X138685714Y-113920057D01*
X138685714Y-113920057D02*
X138733333Y-114015295D01*
X138733333Y-114015295D02*
X138733333Y-114158152D01*
X138733333Y-114158152D02*
X138685714Y-114253390D01*
X138685714Y-114253390D02*
X138638095Y-114301009D01*
X138638095Y-114301009D02*
X138542857Y-114348628D01*
X138542857Y-114348628D02*
X138161905Y-114348628D01*
X139066667Y-113824819D02*
X139685714Y-113824819D01*
X139685714Y-113824819D02*
X139352381Y-114205771D01*
X139352381Y-114205771D02*
X139495238Y-114205771D01*
X139495238Y-114205771D02*
X139590476Y-114253390D01*
X139590476Y-114253390D02*
X139638095Y-114301009D01*
X139638095Y-114301009D02*
X139685714Y-114396247D01*
X139685714Y-114396247D02*
X139685714Y-114634342D01*
X139685714Y-114634342D02*
X139638095Y-114729580D01*
X139638095Y-114729580D02*
X139590476Y-114777200D01*
X139590476Y-114777200D02*
X139495238Y-114824819D01*
X139495238Y-114824819D02*
X139209524Y-114824819D01*
X139209524Y-114824819D02*
X139114286Y-114777200D01*
X139114286Y-114777200D02*
X139066667Y-114729580D01*
X141891682Y-96806359D02*
X141415491Y-97139692D01*
X141891682Y-97377787D02*
X140891682Y-97377787D01*
X140891682Y-97377787D02*
X140891682Y-96996835D01*
X140891682Y-96996835D02*
X140939301Y-96901597D01*
X140939301Y-96901597D02*
X140986920Y-96853978D01*
X140986920Y-96853978D02*
X141082158Y-96806359D01*
X141082158Y-96806359D02*
X141225015Y-96806359D01*
X141225015Y-96806359D02*
X141320253Y-96853978D01*
X141320253Y-96853978D02*
X141367872Y-96901597D01*
X141367872Y-96901597D02*
X141415491Y-96996835D01*
X141415491Y-96996835D02*
X141415491Y-97377787D01*
X140986920Y-96425406D02*
X140939301Y-96377787D01*
X140939301Y-96377787D02*
X140891682Y-96282549D01*
X140891682Y-96282549D02*
X140891682Y-96044454D01*
X140891682Y-96044454D02*
X140939301Y-95949216D01*
X140939301Y-95949216D02*
X140986920Y-95901597D01*
X140986920Y-95901597D02*
X141082158Y-95853978D01*
X141082158Y-95853978D02*
X141177396Y-95853978D01*
X141177396Y-95853978D02*
X141320253Y-95901597D01*
X141320253Y-95901597D02*
X141891682Y-96473025D01*
X141891682Y-96473025D02*
X141891682Y-95853978D01*
X160616666Y-107054819D02*
X160616666Y-107769104D01*
X160616666Y-107769104D02*
X160569047Y-107911961D01*
X160569047Y-107911961D02*
X160473809Y-108007200D01*
X160473809Y-108007200D02*
X160330952Y-108054819D01*
X160330952Y-108054819D02*
X160235714Y-108054819D01*
X160997619Y-107054819D02*
X161616666Y-107054819D01*
X161616666Y-107054819D02*
X161283333Y-107435771D01*
X161283333Y-107435771D02*
X161426190Y-107435771D01*
X161426190Y-107435771D02*
X161521428Y-107483390D01*
X161521428Y-107483390D02*
X161569047Y-107531009D01*
X161569047Y-107531009D02*
X161616666Y-107626247D01*
X161616666Y-107626247D02*
X161616666Y-107864342D01*
X161616666Y-107864342D02*
X161569047Y-107959580D01*
X161569047Y-107959580D02*
X161521428Y-108007200D01*
X161521428Y-108007200D02*
X161426190Y-108054819D01*
X161426190Y-108054819D02*
X161140476Y-108054819D01*
X161140476Y-108054819D02*
X161045238Y-108007200D01*
X161045238Y-108007200D02*
X160997619Y-107959580D01*
D11*
X148888333Y-108124318D02*
X148283571Y-108124318D01*
X148283571Y-108124318D02*
X148283571Y-106854318D01*
X149976905Y-108124318D02*
X149251190Y-108124318D01*
X149614047Y-108124318D02*
X149614047Y-106854318D01*
X149614047Y-106854318D02*
X149493095Y-107035746D01*
X149493095Y-107035746D02*
X149372143Y-107156699D01*
X149372143Y-107156699D02*
X149251190Y-107217175D01*
D13*
%TO.C,VIBR1*%
X114550000Y-82480000D02*
X114550000Y-96230000D01*
X114550000Y-96230000D02*
X130850000Y-96230000D01*
D14*
X127720000Y-93160000D02*
X127720000Y-82940000D01*
X130380000Y-82940000D02*
X127720000Y-82940000D01*
X130380000Y-93160000D02*
X127720000Y-93160000D01*
X130380000Y-93160000D02*
X130380000Y-82940000D01*
X130380000Y-94430000D02*
X130380000Y-95760000D01*
X130380000Y-95760000D02*
X129050000Y-95760000D01*
D13*
X130850000Y-82480000D02*
X114550000Y-82480000D01*
X130850000Y-96230000D02*
X130850000Y-82480000D01*
D15*
X113800000Y-102250000D02*
X131600000Y-102250000D01*
X131600000Y-76450000D01*
X113800000Y-76450000D01*
X113800000Y-102250000D01*
D10*
%TO.C,IC1*%
X136425000Y-99000000D02*
X137900000Y-99000000D01*
X138250000Y-98950000D02*
X141950000Y-98950000D01*
X138250000Y-108650000D02*
X138250000Y-98950000D01*
X141950000Y-98950000D02*
X141950000Y-108650000D01*
X141950000Y-108650000D02*
X138250000Y-108650000D01*
D14*
%TO.C,C8*%
X136188748Y-115365000D02*
X136711252Y-115365000D01*
X136188748Y-116835000D02*
X136711252Y-116835000D01*
%TO.C,J2*%
X114370000Y-105605000D02*
X114370000Y-103005000D01*
X117030000Y-103005000D02*
X114370000Y-103005000D01*
X117030000Y-105605000D02*
X114370000Y-105605000D01*
X117030000Y-105605000D02*
X117030000Y-103005000D01*
X117030000Y-106875000D02*
X117030000Y-108205000D01*
X117030000Y-108205000D02*
X115700000Y-108205000D01*
%TO.C,R1*%
X144365000Y-99527064D02*
X144365000Y-99072936D01*
X145835000Y-99527064D02*
X145835000Y-99072936D01*
%TO.C,Flex1*%
X151345000Y-116930000D02*
X151345000Y-115600000D01*
X152675000Y-116930000D02*
X151345000Y-116930000D01*
X153945000Y-114270000D02*
X156545000Y-114270000D01*
X153945000Y-116930000D02*
X153945000Y-114270000D01*
X153945000Y-116930000D02*
X156545000Y-116930000D01*
X156545000Y-116930000D02*
X156545000Y-114270000D01*
%TO.C,TH1*%
X142345000Y-116930000D02*
X142345000Y-115600000D01*
X143675000Y-116930000D02*
X142345000Y-116930000D01*
X144945000Y-114270000D02*
X147545000Y-114270000D01*
X144945000Y-116930000D02*
X144945000Y-114270000D01*
X144945000Y-116930000D02*
X147545000Y-116930000D01*
X147545000Y-116930000D02*
X147545000Y-114270000D01*
%TO.C,J4*%
X133495000Y-81195000D02*
X134825000Y-81195000D01*
X133495000Y-82525000D02*
X133495000Y-81195000D01*
X133495000Y-83795000D02*
X133495000Y-86395000D01*
X133495000Y-83795000D02*
X136095000Y-83795000D01*
X133495000Y-86395000D02*
X138695000Y-86395000D01*
X136095000Y-81195000D02*
X138695000Y-81195000D01*
X136095000Y-83795000D02*
X136095000Y-81195000D01*
X138695000Y-81195000D02*
X138695000Y-86395000D01*
%TO.C,C7*%
X137026748Y-109540000D02*
X137549252Y-109540000D01*
X137026748Y-111010000D02*
X137549252Y-111010000D01*
%TO.C,J6*%
X140745000Y-76445000D02*
X142075000Y-76445000D01*
X140745000Y-77775000D02*
X140745000Y-76445000D01*
X140745000Y-79045000D02*
X140745000Y-84185000D01*
X140745000Y-79045000D02*
X143345000Y-79045000D01*
X140745000Y-84185000D02*
X145945000Y-84185000D01*
X143345000Y-76445000D02*
X145945000Y-76445000D01*
X143345000Y-79045000D02*
X143345000Y-76445000D01*
X145945000Y-76445000D02*
X145945000Y-84185000D01*
%TO.C,PE1*%
X128705000Y-114070000D02*
X128705000Y-116730000D01*
X131305000Y-114070000D02*
X128705000Y-114070000D01*
X131305000Y-114070000D02*
X131305000Y-116730000D01*
X131305000Y-116730000D02*
X128705000Y-116730000D01*
X132575000Y-114070000D02*
X133905000Y-114070000D01*
X133905000Y-114070000D02*
X133905000Y-115400000D01*
D13*
%TO.C,VIBR2*%
X148550000Y-82470000D02*
X148550000Y-96220000D01*
X148550000Y-96220000D02*
X164850000Y-96220000D01*
D14*
X149020000Y-82940000D02*
X150350000Y-82940000D01*
X149020000Y-84270000D02*
X149020000Y-82940000D01*
X149020000Y-85540000D02*
X149020000Y-95760000D01*
X149020000Y-85540000D02*
X151680000Y-85540000D01*
X149020000Y-95760000D02*
X151680000Y-95760000D01*
X151680000Y-85540000D02*
X151680000Y-95760000D01*
D13*
X164850000Y-82470000D02*
X148550000Y-82470000D01*
X164850000Y-96220000D02*
X164850000Y-82470000D01*
D15*
X165600000Y-76450000D02*
X147800000Y-76450000D01*
X147800000Y-102250000D01*
X165600000Y-102250000D01*
X165600000Y-76450000D01*
D14*
%TO.C,J1*%
X137245000Y-90380000D02*
X137245000Y-89050000D01*
X138575000Y-90380000D02*
X137245000Y-90380000D01*
X139845000Y-87720000D02*
X142445000Y-87720000D01*
X139845000Y-90380000D02*
X139845000Y-87720000D01*
X139845000Y-90380000D02*
X142445000Y-90380000D01*
X142445000Y-90380000D02*
X142445000Y-87720000D01*
%TO.C,R3*%
X139627064Y-111640000D02*
X138172936Y-111640000D01*
X139627064Y-113460000D02*
X138172936Y-113460000D01*
%TO.C,R2*%
X142351863Y-96866757D02*
X142351863Y-96412629D01*
X143821863Y-96866757D02*
X143821863Y-96412629D01*
%TO.C,J3*%
X162370000Y-102995000D02*
X163700000Y-102995000D01*
X162370000Y-104325000D02*
X162370000Y-102995000D01*
X162370000Y-105595000D02*
X162370000Y-108195000D01*
X162370000Y-105595000D02*
X165030000Y-105595000D01*
X162370000Y-108195000D02*
X165030000Y-108195000D01*
X165030000Y-105595000D02*
X165030000Y-108195000D01*
%TD*%
M02*
