%TF.GenerationSoftware,KiCad,Pcbnew,8.0.6-1.fc40*%
%TF.CreationDate,2024-12-02T14:58:21+01:00*%
%TF.ProjectId,PeltierDriver,50656c74-6965-4724-9472-697665722e6b,rev?*%
%TF.SameCoordinates,Original*%
%TF.FileFunction,Plated,1,4,PTH,Drill*%
%TF.FilePolarity,Positive*%
%FSLAX46Y46*%
G04 Gerber Fmt 4.6, Leading zero omitted, Abs format (unit mm)*
G04 Created by KiCad (PCBNEW 8.0.6-1.fc40) date 2024-12-02 14:58:21*
%MOMM*%
%LPD*%
G01*
G04 APERTURE LIST*
%TA.AperFunction,ViaDrill*%
%ADD10C,0.300000*%
%TD*%
%TA.AperFunction,ComponentDrill*%
%ADD11C,1.000000*%
%TD*%
%TA.AperFunction,ComponentDrill*%
%ADD12C,3.200000*%
%TD*%
G04 APERTURE END LIST*
D10*
X135325000Y-97725000D03*
X135600000Y-100050000D03*
X135850000Y-107050000D03*
X136800000Y-98500000D03*
X138300000Y-98600000D03*
X138315739Y-101377031D03*
X138344511Y-102199317D03*
X138350000Y-103300000D03*
X138399502Y-104105000D03*
X138450000Y-107600000D03*
X138600000Y-108800000D03*
X138822257Y-106877902D03*
X138900000Y-105400000D03*
X140500000Y-108200000D03*
X141300000Y-105500000D03*
X141500000Y-110600000D03*
X141700000Y-107600000D03*
X141770000Y-100550000D03*
X141770000Y-101850000D03*
X141770000Y-103300000D03*
X144200000Y-95100000D03*
X144350000Y-101800000D03*
X146350000Y-98550000D03*
X148851238Y-114501238D03*
X149950000Y-100350000D03*
X154200000Y-108850000D03*
X154450000Y-100350000D03*
X155975002Y-107350000D03*
D11*
%TO.C,J2*%
X115700000Y-104335000D03*
X115700000Y-106875000D03*
%TO.C,VIBR1*%
X116350000Y-86810000D03*
X116350000Y-91890000D03*
X129050000Y-84270000D03*
X129050000Y-86810000D03*
X129050000Y-89350000D03*
X129050000Y-91890000D03*
X129050000Y-94430000D03*
%TO.C,PE1*%
X130035000Y-115400000D03*
X132575000Y-115400000D03*
%TO.C,J4*%
X134825000Y-82525000D03*
X134825000Y-85065000D03*
X137365000Y-82525000D03*
X137365000Y-85065000D03*
%TO.C,J1*%
X138575000Y-89050000D03*
X141115000Y-89050000D03*
%TO.C,J6*%
X142075000Y-77775000D03*
X142075000Y-80315000D03*
X142075000Y-82855000D03*
%TO.C,TH1*%
X143675000Y-115600000D03*
%TO.C,J6*%
X144615000Y-77775000D03*
X144615000Y-80315000D03*
X144615000Y-82855000D03*
%TO.C,TH1*%
X146215000Y-115600000D03*
%TO.C,VIBR2*%
X150350000Y-84270000D03*
X150350000Y-86810000D03*
X150350000Y-89350000D03*
X150350000Y-91890000D03*
X150350000Y-94430000D03*
%TO.C,Flex1*%
X152675000Y-115600000D03*
X155215000Y-115600000D03*
%TO.C,VIBR2*%
X163050000Y-86810000D03*
X163050000Y-91890000D03*
%TO.C,J3*%
X163700000Y-104325000D03*
X163700000Y-106865000D03*
D12*
%TO.C,REF\u002A\u002A*%
X117900000Y-79900000D03*
X117900000Y-113500000D03*
X161450000Y-113500000D03*
X161500000Y-79900000D03*
M02*
