%TF.GenerationSoftware,KiCad,Pcbnew,8.0.6-1.fc40*%
%TF.CreationDate,2024-12-02T14:58:13+01:00*%
%TF.ProjectId,PeltierDriver,50656c74-6965-4724-9472-697665722e6b,rev?*%
%TF.SameCoordinates,Original*%
%TF.FileFunction,Legend,Bot*%
%TF.FilePolarity,Positive*%
%FSLAX46Y46*%
G04 Gerber Fmt 4.6, Leading zero omitted, Abs format (unit mm)*
G04 Created by KiCad (PCBNEW 8.0.6-1.fc40) date 2024-12-02 14:58:13*
%MOMM*%
%LPD*%
G01*
G04 APERTURE LIST*
%ADD10C,0.200000*%
%ADD11C,0.150000*%
%ADD12C,0.254000*%
%ADD13C,0.120000*%
G04 APERTURE END LIST*
D10*
X124742724Y-108844612D02*
X124028439Y-108844612D01*
X124028439Y-108844612D02*
X123885582Y-108892231D01*
X123885582Y-108892231D02*
X123790344Y-108987469D01*
X123790344Y-108987469D02*
X123742724Y-109130326D01*
X123742724Y-109130326D02*
X123742724Y-109225564D01*
X123742724Y-108225564D02*
X123790344Y-108320802D01*
X123790344Y-108320802D02*
X123837963Y-108368421D01*
X123837963Y-108368421D02*
X123933201Y-108416040D01*
X123933201Y-108416040D02*
X124218915Y-108416040D01*
X124218915Y-108416040D02*
X124314153Y-108368421D01*
X124314153Y-108368421D02*
X124361772Y-108320802D01*
X124361772Y-108320802D02*
X124409391Y-108225564D01*
X124409391Y-108225564D02*
X124409391Y-108082707D01*
X124409391Y-108082707D02*
X124361772Y-107987469D01*
X124361772Y-107987469D02*
X124314153Y-107939850D01*
X124314153Y-107939850D02*
X124218915Y-107892231D01*
X124218915Y-107892231D02*
X123933201Y-107892231D01*
X123933201Y-107892231D02*
X123837963Y-107939850D01*
X123837963Y-107939850D02*
X123790344Y-107987469D01*
X123790344Y-107987469D02*
X123742724Y-108082707D01*
X123742724Y-108082707D02*
X123742724Y-108225564D01*
X124409391Y-107463659D02*
X123742724Y-107463659D01*
X124314153Y-107463659D02*
X124361772Y-107416040D01*
X124361772Y-107416040D02*
X124409391Y-107320802D01*
X124409391Y-107320802D02*
X124409391Y-107177945D01*
X124409391Y-107177945D02*
X124361772Y-107082707D01*
X124361772Y-107082707D02*
X124266534Y-107035088D01*
X124266534Y-107035088D02*
X123742724Y-107035088D01*
X123742724Y-106130326D02*
X124266534Y-106130326D01*
X124266534Y-106130326D02*
X124361772Y-106177945D01*
X124361772Y-106177945D02*
X124409391Y-106273183D01*
X124409391Y-106273183D02*
X124409391Y-106463659D01*
X124409391Y-106463659D02*
X124361772Y-106558897D01*
X123790344Y-106130326D02*
X123742724Y-106225564D01*
X123742724Y-106225564D02*
X123742724Y-106463659D01*
X123742724Y-106463659D02*
X123790344Y-106558897D01*
X123790344Y-106558897D02*
X123885582Y-106606516D01*
X123885582Y-106606516D02*
X123980820Y-106606516D01*
X123980820Y-106606516D02*
X124076058Y-106558897D01*
X124076058Y-106558897D02*
X124123677Y-106463659D01*
X124123677Y-106463659D02*
X124123677Y-106225564D01*
X124123677Y-106225564D02*
X124171296Y-106130326D01*
X124409391Y-105796992D02*
X124409391Y-105416040D01*
X124742724Y-105654135D02*
X123885582Y-105654135D01*
X123885582Y-105654135D02*
X123790344Y-105606516D01*
X123790344Y-105606516D02*
X123742724Y-105511278D01*
X123742724Y-105511278D02*
X123742724Y-105416040D01*
X123742724Y-105082706D02*
X124742724Y-105082706D01*
X123742724Y-104654135D02*
X124266534Y-104654135D01*
X124266534Y-104654135D02*
X124361772Y-104701754D01*
X124361772Y-104701754D02*
X124409391Y-104796992D01*
X124409391Y-104796992D02*
X124409391Y-104939849D01*
X124409391Y-104939849D02*
X124361772Y-105035087D01*
X124361772Y-105035087D02*
X124314153Y-105082706D01*
X123742724Y-103749373D02*
X124266534Y-103749373D01*
X124266534Y-103749373D02*
X124361772Y-103796992D01*
X124361772Y-103796992D02*
X124409391Y-103892230D01*
X124409391Y-103892230D02*
X124409391Y-104082706D01*
X124409391Y-104082706D02*
X124361772Y-104177944D01*
X123790344Y-103749373D02*
X123742724Y-103844611D01*
X123742724Y-103844611D02*
X123742724Y-104082706D01*
X123742724Y-104082706D02*
X123790344Y-104177944D01*
X123790344Y-104177944D02*
X123885582Y-104225563D01*
X123885582Y-104225563D02*
X123980820Y-104225563D01*
X123980820Y-104225563D02*
X124076058Y-104177944D01*
X124076058Y-104177944D02*
X124123677Y-104082706D01*
X124123677Y-104082706D02*
X124123677Y-103844611D01*
X124123677Y-103844611D02*
X124171296Y-103749373D01*
X124409391Y-103273182D02*
X123742724Y-103273182D01*
X124314153Y-103273182D02*
X124361772Y-103225563D01*
X124361772Y-103225563D02*
X124409391Y-103130325D01*
X124409391Y-103130325D02*
X124409391Y-102987468D01*
X124409391Y-102987468D02*
X124361772Y-102892230D01*
X124361772Y-102892230D02*
X124266534Y-102844611D01*
X124266534Y-102844611D02*
X123742724Y-102844611D01*
X124742724Y-101749372D02*
X123742724Y-101416039D01*
X123742724Y-101416039D02*
X124742724Y-101082706D01*
X123742724Y-100320801D02*
X124266534Y-100320801D01*
X124266534Y-100320801D02*
X124361772Y-100368420D01*
X124361772Y-100368420D02*
X124409391Y-100463658D01*
X124409391Y-100463658D02*
X124409391Y-100654134D01*
X124409391Y-100654134D02*
X124361772Y-100749372D01*
X123790344Y-100320801D02*
X123742724Y-100416039D01*
X123742724Y-100416039D02*
X123742724Y-100654134D01*
X123742724Y-100654134D02*
X123790344Y-100749372D01*
X123790344Y-100749372D02*
X123885582Y-100796991D01*
X123885582Y-100796991D02*
X123980820Y-100796991D01*
X123980820Y-100796991D02*
X124076058Y-100749372D01*
X124076058Y-100749372D02*
X124123677Y-100654134D01*
X124123677Y-100654134D02*
X124123677Y-100416039D01*
X124123677Y-100416039D02*
X124171296Y-100320801D01*
X123742724Y-99701753D02*
X123790344Y-99796991D01*
X123790344Y-99796991D02*
X123885582Y-99844610D01*
X123885582Y-99844610D02*
X124742724Y-99844610D01*
X124409391Y-98892229D02*
X123599867Y-98892229D01*
X123599867Y-98892229D02*
X123504629Y-98939848D01*
X123504629Y-98939848D02*
X123457010Y-98987467D01*
X123457010Y-98987467D02*
X123409391Y-99082705D01*
X123409391Y-99082705D02*
X123409391Y-99225562D01*
X123409391Y-99225562D02*
X123457010Y-99320800D01*
X123790344Y-98892229D02*
X123742724Y-98987467D01*
X123742724Y-98987467D02*
X123742724Y-99177943D01*
X123742724Y-99177943D02*
X123790344Y-99273181D01*
X123790344Y-99273181D02*
X123837963Y-99320800D01*
X123837963Y-99320800D02*
X123933201Y-99368419D01*
X123933201Y-99368419D02*
X124218915Y-99368419D01*
X124218915Y-99368419D02*
X124314153Y-99320800D01*
X124314153Y-99320800D02*
X124361772Y-99273181D01*
X124361772Y-99273181D02*
X124409391Y-99177943D01*
X124409391Y-99177943D02*
X124409391Y-98987467D01*
X124409391Y-98987467D02*
X124361772Y-98892229D01*
X123742724Y-97987467D02*
X124266534Y-97987467D01*
X124266534Y-97987467D02*
X124361772Y-98035086D01*
X124361772Y-98035086D02*
X124409391Y-98130324D01*
X124409391Y-98130324D02*
X124409391Y-98320800D01*
X124409391Y-98320800D02*
X124361772Y-98416038D01*
X123790344Y-97987467D02*
X123742724Y-98082705D01*
X123742724Y-98082705D02*
X123742724Y-98320800D01*
X123742724Y-98320800D02*
X123790344Y-98416038D01*
X123790344Y-98416038D02*
X123885582Y-98463657D01*
X123885582Y-98463657D02*
X123980820Y-98463657D01*
X123980820Y-98463657D02*
X124076058Y-98416038D01*
X124076058Y-98416038D02*
X124123677Y-98320800D01*
X124123677Y-98320800D02*
X124123677Y-98082705D01*
X124123677Y-98082705D02*
X124171296Y-97987467D01*
X123790344Y-97130324D02*
X123742724Y-97225562D01*
X123742724Y-97225562D02*
X123742724Y-97416038D01*
X123742724Y-97416038D02*
X123790344Y-97511276D01*
X123790344Y-97511276D02*
X123885582Y-97558895D01*
X123885582Y-97558895D02*
X124266534Y-97558895D01*
X124266534Y-97558895D02*
X124361772Y-97511276D01*
X124361772Y-97511276D02*
X124409391Y-97416038D01*
X124409391Y-97416038D02*
X124409391Y-97225562D01*
X124409391Y-97225562D02*
X124361772Y-97130324D01*
X124361772Y-97130324D02*
X124266534Y-97082705D01*
X124266534Y-97082705D02*
X124171296Y-97082705D01*
X124171296Y-97082705D02*
X124076058Y-97558895D01*
X123742724Y-96654133D02*
X124409391Y-96654133D01*
X124218915Y-96654133D02*
X124314153Y-96606514D01*
X124314153Y-96606514D02*
X124361772Y-96558895D01*
X124361772Y-96558895D02*
X124409391Y-96463657D01*
X124409391Y-96463657D02*
X124409391Y-96368419D01*
X123790344Y-95654133D02*
X123742724Y-95749371D01*
X123742724Y-95749371D02*
X123742724Y-95939847D01*
X123742724Y-95939847D02*
X123790344Y-96035085D01*
X123790344Y-96035085D02*
X123885582Y-96082704D01*
X123885582Y-96082704D02*
X124266534Y-96082704D01*
X124266534Y-96082704D02*
X124361772Y-96035085D01*
X124361772Y-96035085D02*
X124409391Y-95939847D01*
X124409391Y-95939847D02*
X124409391Y-95749371D01*
X124409391Y-95749371D02*
X124361772Y-95654133D01*
X124361772Y-95654133D02*
X124266534Y-95606514D01*
X124266534Y-95606514D02*
X124171296Y-95606514D01*
X124171296Y-95606514D02*
X124076058Y-96082704D01*
X124409391Y-95177942D02*
X123742724Y-95177942D01*
X124314153Y-95177942D02*
X124361772Y-95130323D01*
X124361772Y-95130323D02*
X124409391Y-95035085D01*
X124409391Y-95035085D02*
X124409391Y-94892228D01*
X124409391Y-94892228D02*
X124361772Y-94796990D01*
X124361772Y-94796990D02*
X124266534Y-94749371D01*
X124266534Y-94749371D02*
X123742724Y-94749371D01*
X123742724Y-92701751D02*
X123742724Y-92749371D01*
X123742724Y-92749371D02*
X123790344Y-92844609D01*
X123790344Y-92844609D02*
X123933201Y-92987466D01*
X123933201Y-92987466D02*
X124218915Y-93225561D01*
X124218915Y-93225561D02*
X124361772Y-93320799D01*
X124361772Y-93320799D02*
X124504629Y-93368418D01*
X124504629Y-93368418D02*
X124599867Y-93368418D01*
X124599867Y-93368418D02*
X124695105Y-93320799D01*
X124695105Y-93320799D02*
X124742724Y-93225561D01*
X124742724Y-93225561D02*
X124742724Y-93177942D01*
X124742724Y-93177942D02*
X124695105Y-93082704D01*
X124695105Y-93082704D02*
X124599867Y-93035085D01*
X124599867Y-93035085D02*
X124552248Y-93035085D01*
X124552248Y-93035085D02*
X124457010Y-93082704D01*
X124457010Y-93082704D02*
X124409391Y-93130323D01*
X124409391Y-93130323D02*
X124218915Y-93416037D01*
X124218915Y-93416037D02*
X124171296Y-93463656D01*
X124171296Y-93463656D02*
X124076058Y-93511275D01*
X124076058Y-93511275D02*
X123933201Y-93511275D01*
X123933201Y-93511275D02*
X123837963Y-93463656D01*
X123837963Y-93463656D02*
X123790344Y-93416037D01*
X123790344Y-93416037D02*
X123742724Y-93320799D01*
X123742724Y-93320799D02*
X123742724Y-93177942D01*
X123742724Y-93177942D02*
X123790344Y-93082704D01*
X123790344Y-93082704D02*
X123837963Y-93035085D01*
X123837963Y-93035085D02*
X124028439Y-92892228D01*
X124028439Y-92892228D02*
X124171296Y-92844609D01*
X124171296Y-92844609D02*
X124266534Y-92844609D01*
X124742724Y-91654132D02*
X123742724Y-91320799D01*
X123742724Y-91320799D02*
X124742724Y-90987466D01*
X123742724Y-90654132D02*
X124409391Y-90654132D01*
X124742724Y-90654132D02*
X124695105Y-90701751D01*
X124695105Y-90701751D02*
X124647486Y-90654132D01*
X124647486Y-90654132D02*
X124695105Y-90606513D01*
X124695105Y-90606513D02*
X124742724Y-90654132D01*
X124742724Y-90654132D02*
X124647486Y-90654132D01*
X124409391Y-90273180D02*
X123742724Y-90035085D01*
X123742724Y-90035085D02*
X124409391Y-89796990D01*
X123742724Y-89416037D02*
X124409391Y-89416037D01*
X124742724Y-89416037D02*
X124695105Y-89463656D01*
X124695105Y-89463656D02*
X124647486Y-89416037D01*
X124647486Y-89416037D02*
X124695105Y-89368418D01*
X124695105Y-89368418D02*
X124742724Y-89416037D01*
X124742724Y-89416037D02*
X124647486Y-89416037D01*
X123742724Y-88511276D02*
X124266534Y-88511276D01*
X124266534Y-88511276D02*
X124361772Y-88558895D01*
X124361772Y-88558895D02*
X124409391Y-88654133D01*
X124409391Y-88654133D02*
X124409391Y-88844609D01*
X124409391Y-88844609D02*
X124361772Y-88939847D01*
X123790344Y-88511276D02*
X123742724Y-88606514D01*
X123742724Y-88606514D02*
X123742724Y-88844609D01*
X123742724Y-88844609D02*
X123790344Y-88939847D01*
X123790344Y-88939847D02*
X123885582Y-88987466D01*
X123885582Y-88987466D02*
X123980820Y-88987466D01*
X123980820Y-88987466D02*
X124076058Y-88939847D01*
X124076058Y-88939847D02*
X124123677Y-88844609D01*
X124123677Y-88844609D02*
X124123677Y-88606514D01*
X124123677Y-88606514D02*
X124171296Y-88511276D01*
X124409391Y-88035085D02*
X123742724Y-88035085D01*
X124314153Y-88035085D02*
X124361772Y-87987466D01*
X124361772Y-87987466D02*
X124409391Y-87892228D01*
X124409391Y-87892228D02*
X124409391Y-87749371D01*
X124409391Y-87749371D02*
X124361772Y-87654133D01*
X124361772Y-87654133D02*
X124266534Y-87606514D01*
X124266534Y-87606514D02*
X123742724Y-87606514D01*
X124742724Y-86511275D02*
X124742724Y-85939847D01*
X123742724Y-86225561D02*
X124742724Y-86225561D01*
X123790344Y-85654132D02*
X123742724Y-85558894D01*
X123742724Y-85558894D02*
X123742724Y-85368418D01*
X123742724Y-85368418D02*
X123790344Y-85273180D01*
X123790344Y-85273180D02*
X123885582Y-85225561D01*
X123885582Y-85225561D02*
X123933201Y-85225561D01*
X123933201Y-85225561D02*
X124028439Y-85273180D01*
X124028439Y-85273180D02*
X124076058Y-85368418D01*
X124076058Y-85368418D02*
X124076058Y-85511275D01*
X124076058Y-85511275D02*
X124123677Y-85606513D01*
X124123677Y-85606513D02*
X124218915Y-85654132D01*
X124218915Y-85654132D02*
X124266534Y-85654132D01*
X124266534Y-85654132D02*
X124361772Y-85606513D01*
X124361772Y-85606513D02*
X124409391Y-85511275D01*
X124409391Y-85511275D02*
X124409391Y-85368418D01*
X124409391Y-85368418D02*
X124361772Y-85273180D01*
X123742724Y-84368418D02*
X124266534Y-84368418D01*
X124266534Y-84368418D02*
X124361772Y-84416037D01*
X124361772Y-84416037D02*
X124409391Y-84511275D01*
X124409391Y-84511275D02*
X124409391Y-84701751D01*
X124409391Y-84701751D02*
X124361772Y-84796989D01*
X123790344Y-84368418D02*
X123742724Y-84463656D01*
X123742724Y-84463656D02*
X123742724Y-84701751D01*
X123742724Y-84701751D02*
X123790344Y-84796989D01*
X123790344Y-84796989D02*
X123885582Y-84844608D01*
X123885582Y-84844608D02*
X123980820Y-84844608D01*
X123980820Y-84844608D02*
X124076058Y-84796989D01*
X124076058Y-84796989D02*
X124123677Y-84701751D01*
X124123677Y-84701751D02*
X124123677Y-84463656D01*
X124123677Y-84463656D02*
X124171296Y-84368418D01*
X124409391Y-83892227D02*
X123742724Y-83892227D01*
X124314153Y-83892227D02*
X124361772Y-83844608D01*
X124361772Y-83844608D02*
X124409391Y-83749370D01*
X124409391Y-83749370D02*
X124409391Y-83606513D01*
X124409391Y-83606513D02*
X124361772Y-83511275D01*
X124361772Y-83511275D02*
X124266534Y-83463656D01*
X124266534Y-83463656D02*
X123742724Y-83463656D01*
X124409391Y-82558894D02*
X123599867Y-82558894D01*
X123599867Y-82558894D02*
X123504629Y-82606513D01*
X123504629Y-82606513D02*
X123457010Y-82654132D01*
X123457010Y-82654132D02*
X123409391Y-82749370D01*
X123409391Y-82749370D02*
X123409391Y-82892227D01*
X123409391Y-82892227D02*
X123457010Y-82987465D01*
X123790344Y-82558894D02*
X123742724Y-82654132D01*
X123742724Y-82654132D02*
X123742724Y-82844608D01*
X123742724Y-82844608D02*
X123790344Y-82939846D01*
X123790344Y-82939846D02*
X123837963Y-82987465D01*
X123837963Y-82987465D02*
X123933201Y-83035084D01*
X123933201Y-83035084D02*
X124218915Y-83035084D01*
X124218915Y-83035084D02*
X124314153Y-82987465D01*
X124314153Y-82987465D02*
X124361772Y-82939846D01*
X124361772Y-82939846D02*
X124409391Y-82844608D01*
X124409391Y-82844608D02*
X124409391Y-82654132D01*
X124409391Y-82654132D02*
X124361772Y-82558894D01*
X122132780Y-109130326D02*
X123132780Y-109130326D01*
X123132780Y-109130326D02*
X122418495Y-108796993D01*
X122418495Y-108796993D02*
X123132780Y-108463660D01*
X123132780Y-108463660D02*
X122132780Y-108463660D01*
X122132780Y-107558898D02*
X122656590Y-107558898D01*
X122656590Y-107558898D02*
X122751828Y-107606517D01*
X122751828Y-107606517D02*
X122799447Y-107701755D01*
X122799447Y-107701755D02*
X122799447Y-107892231D01*
X122799447Y-107892231D02*
X122751828Y-107987469D01*
X122180400Y-107558898D02*
X122132780Y-107654136D01*
X122132780Y-107654136D02*
X122132780Y-107892231D01*
X122132780Y-107892231D02*
X122180400Y-107987469D01*
X122180400Y-107987469D02*
X122275638Y-108035088D01*
X122275638Y-108035088D02*
X122370876Y-108035088D01*
X122370876Y-108035088D02*
X122466114Y-107987469D01*
X122466114Y-107987469D02*
X122513733Y-107892231D01*
X122513733Y-107892231D02*
X122513733Y-107654136D01*
X122513733Y-107654136D02*
X122561352Y-107558898D01*
X122180400Y-107130326D02*
X122132780Y-107035088D01*
X122132780Y-107035088D02*
X122132780Y-106844612D01*
X122132780Y-106844612D02*
X122180400Y-106749374D01*
X122180400Y-106749374D02*
X122275638Y-106701755D01*
X122275638Y-106701755D02*
X122323257Y-106701755D01*
X122323257Y-106701755D02*
X122418495Y-106749374D01*
X122418495Y-106749374D02*
X122466114Y-106844612D01*
X122466114Y-106844612D02*
X122466114Y-106987469D01*
X122466114Y-106987469D02*
X122513733Y-107082707D01*
X122513733Y-107082707D02*
X122608971Y-107130326D01*
X122608971Y-107130326D02*
X122656590Y-107130326D01*
X122656590Y-107130326D02*
X122751828Y-107082707D01*
X122751828Y-107082707D02*
X122799447Y-106987469D01*
X122799447Y-106987469D02*
X122799447Y-106844612D01*
X122799447Y-106844612D02*
X122751828Y-106749374D01*
X122799447Y-106416040D02*
X122799447Y-106035088D01*
X123132780Y-106273183D02*
X122275638Y-106273183D01*
X122275638Y-106273183D02*
X122180400Y-106225564D01*
X122180400Y-106225564D02*
X122132780Y-106130326D01*
X122132780Y-106130326D02*
X122132780Y-106035088D01*
X122180400Y-105320802D02*
X122132780Y-105416040D01*
X122132780Y-105416040D02*
X122132780Y-105606516D01*
X122132780Y-105606516D02*
X122180400Y-105701754D01*
X122180400Y-105701754D02*
X122275638Y-105749373D01*
X122275638Y-105749373D02*
X122656590Y-105749373D01*
X122656590Y-105749373D02*
X122751828Y-105701754D01*
X122751828Y-105701754D02*
X122799447Y-105606516D01*
X122799447Y-105606516D02*
X122799447Y-105416040D01*
X122799447Y-105416040D02*
X122751828Y-105320802D01*
X122751828Y-105320802D02*
X122656590Y-105273183D01*
X122656590Y-105273183D02*
X122561352Y-105273183D01*
X122561352Y-105273183D02*
X122466114Y-105749373D01*
X122132780Y-104844611D02*
X122799447Y-104844611D01*
X122608971Y-104844611D02*
X122704209Y-104796992D01*
X122704209Y-104796992D02*
X122751828Y-104749373D01*
X122751828Y-104749373D02*
X122799447Y-104654135D01*
X122799447Y-104654135D02*
X122799447Y-104558897D01*
X123132780Y-103606515D02*
X123132780Y-103035087D01*
X122132780Y-103320801D02*
X123132780Y-103320801D01*
X122132780Y-102701753D02*
X123132780Y-102701753D01*
X122132780Y-102273182D02*
X122656590Y-102273182D01*
X122656590Y-102273182D02*
X122751828Y-102320801D01*
X122751828Y-102320801D02*
X122799447Y-102416039D01*
X122799447Y-102416039D02*
X122799447Y-102558896D01*
X122799447Y-102558896D02*
X122751828Y-102654134D01*
X122751828Y-102654134D02*
X122704209Y-102701753D01*
X122180400Y-101416039D02*
X122132780Y-101511277D01*
X122132780Y-101511277D02*
X122132780Y-101701753D01*
X122132780Y-101701753D02*
X122180400Y-101796991D01*
X122180400Y-101796991D02*
X122275638Y-101844610D01*
X122275638Y-101844610D02*
X122656590Y-101844610D01*
X122656590Y-101844610D02*
X122751828Y-101796991D01*
X122751828Y-101796991D02*
X122799447Y-101701753D01*
X122799447Y-101701753D02*
X122799447Y-101511277D01*
X122799447Y-101511277D02*
X122751828Y-101416039D01*
X122751828Y-101416039D02*
X122656590Y-101368420D01*
X122656590Y-101368420D02*
X122561352Y-101368420D01*
X122561352Y-101368420D02*
X122466114Y-101844610D01*
X122180400Y-100987467D02*
X122132780Y-100892229D01*
X122132780Y-100892229D02*
X122132780Y-100701753D01*
X122132780Y-100701753D02*
X122180400Y-100606515D01*
X122180400Y-100606515D02*
X122275638Y-100558896D01*
X122275638Y-100558896D02*
X122323257Y-100558896D01*
X122323257Y-100558896D02*
X122418495Y-100606515D01*
X122418495Y-100606515D02*
X122466114Y-100701753D01*
X122466114Y-100701753D02*
X122466114Y-100844610D01*
X122466114Y-100844610D02*
X122513733Y-100939848D01*
X122513733Y-100939848D02*
X122608971Y-100987467D01*
X122608971Y-100987467D02*
X122656590Y-100987467D01*
X122656590Y-100987467D02*
X122751828Y-100939848D01*
X122751828Y-100939848D02*
X122799447Y-100844610D01*
X122799447Y-100844610D02*
X122799447Y-100701753D01*
X122799447Y-100701753D02*
X122751828Y-100606515D01*
X122132780Y-100130324D02*
X122799447Y-100130324D01*
X123132780Y-100130324D02*
X123085161Y-100177943D01*
X123085161Y-100177943D02*
X123037542Y-100130324D01*
X123037542Y-100130324D02*
X123085161Y-100082705D01*
X123085161Y-100082705D02*
X123132780Y-100130324D01*
X123132780Y-100130324D02*
X123037542Y-100130324D01*
X122180400Y-99701753D02*
X122132780Y-99606515D01*
X122132780Y-99606515D02*
X122132780Y-99416039D01*
X122132780Y-99416039D02*
X122180400Y-99320801D01*
X122180400Y-99320801D02*
X122275638Y-99273182D01*
X122275638Y-99273182D02*
X122323257Y-99273182D01*
X122323257Y-99273182D02*
X122418495Y-99320801D01*
X122418495Y-99320801D02*
X122466114Y-99416039D01*
X122466114Y-99416039D02*
X122466114Y-99558896D01*
X122466114Y-99558896D02*
X122513733Y-99654134D01*
X122513733Y-99654134D02*
X122608971Y-99701753D01*
X122608971Y-99701753D02*
X122656590Y-99701753D01*
X122656590Y-99701753D02*
X122751828Y-99654134D01*
X122751828Y-99654134D02*
X122799447Y-99558896D01*
X122799447Y-99558896D02*
X122799447Y-99416039D01*
X122799447Y-99416039D02*
X122751828Y-99320801D01*
X122228019Y-98844610D02*
X122180400Y-98796991D01*
X122180400Y-98796991D02*
X122132780Y-98844610D01*
X122132780Y-98844610D02*
X122180400Y-98892229D01*
X122180400Y-98892229D02*
X122228019Y-98844610D01*
X122228019Y-98844610D02*
X122132780Y-98844610D01*
X122751828Y-98844610D02*
X122704209Y-98796991D01*
X122704209Y-98796991D02*
X122656590Y-98844610D01*
X122656590Y-98844610D02*
X122704209Y-98892229D01*
X122704209Y-98892229D02*
X122751828Y-98844610D01*
X122751828Y-98844610D02*
X122656590Y-98844610D01*
X122132780Y-97606515D02*
X123132780Y-97606515D01*
X122656590Y-97606515D02*
X122656590Y-97035087D01*
X122132780Y-97035087D02*
X123132780Y-97035087D01*
X122132780Y-96558896D02*
X123132780Y-96558896D01*
X123132780Y-96558896D02*
X123132780Y-96177944D01*
X123132780Y-96177944D02*
X123085161Y-96082706D01*
X123085161Y-96082706D02*
X123037542Y-96035087D01*
X123037542Y-96035087D02*
X122942304Y-95987468D01*
X122942304Y-95987468D02*
X122799447Y-95987468D01*
X122799447Y-95987468D02*
X122704209Y-96035087D01*
X122704209Y-96035087D02*
X122656590Y-96082706D01*
X122656590Y-96082706D02*
X122608971Y-96177944D01*
X122608971Y-96177944D02*
X122608971Y-96558896D01*
X122228019Y-94987468D02*
X122180400Y-95035087D01*
X122180400Y-95035087D02*
X122132780Y-95177944D01*
X122132780Y-95177944D02*
X122132780Y-95273182D01*
X122132780Y-95273182D02*
X122180400Y-95416039D01*
X122180400Y-95416039D02*
X122275638Y-95511277D01*
X122275638Y-95511277D02*
X122370876Y-95558896D01*
X122370876Y-95558896D02*
X122561352Y-95606515D01*
X122561352Y-95606515D02*
X122704209Y-95606515D01*
X122704209Y-95606515D02*
X122894685Y-95558896D01*
X122894685Y-95558896D02*
X122989923Y-95511277D01*
X122989923Y-95511277D02*
X123085161Y-95416039D01*
X123085161Y-95416039D02*
X123132780Y-95273182D01*
X123132780Y-95273182D02*
X123132780Y-95177944D01*
X123132780Y-95177944D02*
X123085161Y-95035087D01*
X123085161Y-95035087D02*
X123037542Y-94987468D01*
X123132780Y-94701753D02*
X123132780Y-94130325D01*
X122132780Y-94416039D02*
X123132780Y-94416039D01*
D11*
X135826540Y-106383333D02*
X135874160Y-106335714D01*
X135874160Y-106335714D02*
X135921779Y-106192857D01*
X135921779Y-106192857D02*
X135921779Y-106097619D01*
X135921779Y-106097619D02*
X135874160Y-105954762D01*
X135874160Y-105954762D02*
X135778921Y-105859524D01*
X135778921Y-105859524D02*
X135683683Y-105811905D01*
X135683683Y-105811905D02*
X135493207Y-105764286D01*
X135493207Y-105764286D02*
X135350350Y-105764286D01*
X135350350Y-105764286D02*
X135159874Y-105811905D01*
X135159874Y-105811905D02*
X135064636Y-105859524D01*
X135064636Y-105859524D02*
X134969398Y-105954762D01*
X134969398Y-105954762D02*
X134921779Y-106097619D01*
X134921779Y-106097619D02*
X134921779Y-106192857D01*
X134921779Y-106192857D02*
X134969398Y-106335714D01*
X134969398Y-106335714D02*
X135017017Y-106383333D01*
X135017017Y-106764286D02*
X134969398Y-106811905D01*
X134969398Y-106811905D02*
X134921779Y-106907143D01*
X134921779Y-106907143D02*
X134921779Y-107145238D01*
X134921779Y-107145238D02*
X134969398Y-107240476D01*
X134969398Y-107240476D02*
X135017017Y-107288095D01*
X135017017Y-107288095D02*
X135112255Y-107335714D01*
X135112255Y-107335714D02*
X135207493Y-107335714D01*
X135207493Y-107335714D02*
X135350350Y-107288095D01*
X135350350Y-107288095D02*
X135921779Y-106716667D01*
X135921779Y-106716667D02*
X135921779Y-107335714D01*
X156866666Y-104054819D02*
X157199999Y-103578628D01*
X157438094Y-104054819D02*
X157438094Y-103054819D01*
X157438094Y-103054819D02*
X157057142Y-103054819D01*
X157057142Y-103054819D02*
X156961904Y-103102438D01*
X156961904Y-103102438D02*
X156914285Y-103150057D01*
X156914285Y-103150057D02*
X156866666Y-103245295D01*
X156866666Y-103245295D02*
X156866666Y-103388152D01*
X156866666Y-103388152D02*
X156914285Y-103483390D01*
X156914285Y-103483390D02*
X156961904Y-103531009D01*
X156961904Y-103531009D02*
X157057142Y-103578628D01*
X157057142Y-103578628D02*
X157438094Y-103578628D01*
X156009523Y-103054819D02*
X156199999Y-103054819D01*
X156199999Y-103054819D02*
X156295237Y-103102438D01*
X156295237Y-103102438D02*
X156342856Y-103150057D01*
X156342856Y-103150057D02*
X156438094Y-103292914D01*
X156438094Y-103292914D02*
X156485713Y-103483390D01*
X156485713Y-103483390D02*
X156485713Y-103864342D01*
X156485713Y-103864342D02*
X156438094Y-103959580D01*
X156438094Y-103959580D02*
X156390475Y-104007200D01*
X156390475Y-104007200D02*
X156295237Y-104054819D01*
X156295237Y-104054819D02*
X156104761Y-104054819D01*
X156104761Y-104054819D02*
X156009523Y-104007200D01*
X156009523Y-104007200D02*
X155961904Y-103959580D01*
X155961904Y-103959580D02*
X155914285Y-103864342D01*
X155914285Y-103864342D02*
X155914285Y-103626247D01*
X155914285Y-103626247D02*
X155961904Y-103531009D01*
X155961904Y-103531009D02*
X156009523Y-103483390D01*
X156009523Y-103483390D02*
X156104761Y-103435771D01*
X156104761Y-103435771D02*
X156295237Y-103435771D01*
X156295237Y-103435771D02*
X156390475Y-103483390D01*
X156390475Y-103483390D02*
X156438094Y-103531009D01*
X156438094Y-103531009D02*
X156485713Y-103626247D01*
X156866666Y-101959580D02*
X156914285Y-102007200D01*
X156914285Y-102007200D02*
X157057142Y-102054819D01*
X157057142Y-102054819D02*
X157152380Y-102054819D01*
X157152380Y-102054819D02*
X157295237Y-102007200D01*
X157295237Y-102007200D02*
X157390475Y-101911961D01*
X157390475Y-101911961D02*
X157438094Y-101816723D01*
X157438094Y-101816723D02*
X157485713Y-101626247D01*
X157485713Y-101626247D02*
X157485713Y-101483390D01*
X157485713Y-101483390D02*
X157438094Y-101292914D01*
X157438094Y-101292914D02*
X157390475Y-101197676D01*
X157390475Y-101197676D02*
X157295237Y-101102438D01*
X157295237Y-101102438D02*
X157152380Y-101054819D01*
X157152380Y-101054819D02*
X157057142Y-101054819D01*
X157057142Y-101054819D02*
X156914285Y-101102438D01*
X156914285Y-101102438D02*
X156866666Y-101150057D01*
X156390475Y-102054819D02*
X156199999Y-102054819D01*
X156199999Y-102054819D02*
X156104761Y-102007200D01*
X156104761Y-102007200D02*
X156057142Y-101959580D01*
X156057142Y-101959580D02*
X155961904Y-101816723D01*
X155961904Y-101816723D02*
X155914285Y-101626247D01*
X155914285Y-101626247D02*
X155914285Y-101245295D01*
X155914285Y-101245295D02*
X155961904Y-101150057D01*
X155961904Y-101150057D02*
X156009523Y-101102438D01*
X156009523Y-101102438D02*
X156104761Y-101054819D01*
X156104761Y-101054819D02*
X156295237Y-101054819D01*
X156295237Y-101054819D02*
X156390475Y-101102438D01*
X156390475Y-101102438D02*
X156438094Y-101150057D01*
X156438094Y-101150057D02*
X156485713Y-101245295D01*
X156485713Y-101245295D02*
X156485713Y-101483390D01*
X156485713Y-101483390D02*
X156438094Y-101578628D01*
X156438094Y-101578628D02*
X156390475Y-101626247D01*
X156390475Y-101626247D02*
X156295237Y-101673866D01*
X156295237Y-101673866D02*
X156104761Y-101673866D01*
X156104761Y-101673866D02*
X156009523Y-101626247D01*
X156009523Y-101626247D02*
X155961904Y-101578628D01*
X155961904Y-101578628D02*
X155914285Y-101483390D01*
X154116666Y-112054819D02*
X154449999Y-111578628D01*
X154688094Y-112054819D02*
X154688094Y-111054819D01*
X154688094Y-111054819D02*
X154307142Y-111054819D01*
X154307142Y-111054819D02*
X154211904Y-111102438D01*
X154211904Y-111102438D02*
X154164285Y-111150057D01*
X154164285Y-111150057D02*
X154116666Y-111245295D01*
X154116666Y-111245295D02*
X154116666Y-111388152D01*
X154116666Y-111388152D02*
X154164285Y-111483390D01*
X154164285Y-111483390D02*
X154211904Y-111531009D01*
X154211904Y-111531009D02*
X154307142Y-111578628D01*
X154307142Y-111578628D02*
X154688094Y-111578628D01*
X153211904Y-111054819D02*
X153688094Y-111054819D01*
X153688094Y-111054819D02*
X153735713Y-111531009D01*
X153735713Y-111531009D02*
X153688094Y-111483390D01*
X153688094Y-111483390D02*
X153592856Y-111435771D01*
X153592856Y-111435771D02*
X153354761Y-111435771D01*
X153354761Y-111435771D02*
X153259523Y-111483390D01*
X153259523Y-111483390D02*
X153211904Y-111531009D01*
X153211904Y-111531009D02*
X153164285Y-111626247D01*
X153164285Y-111626247D02*
X153164285Y-111864342D01*
X153164285Y-111864342D02*
X153211904Y-111959580D01*
X153211904Y-111959580D02*
X153259523Y-112007200D01*
X153259523Y-112007200D02*
X153354761Y-112054819D01*
X153354761Y-112054819D02*
X153592856Y-112054819D01*
X153592856Y-112054819D02*
X153688094Y-112007200D01*
X153688094Y-112007200D02*
X153735713Y-111959580D01*
X138416666Y-98109580D02*
X138464285Y-98157200D01*
X138464285Y-98157200D02*
X138607142Y-98204819D01*
X138607142Y-98204819D02*
X138702380Y-98204819D01*
X138702380Y-98204819D02*
X138845237Y-98157200D01*
X138845237Y-98157200D02*
X138940475Y-98061961D01*
X138940475Y-98061961D02*
X138988094Y-97966723D01*
X138988094Y-97966723D02*
X139035713Y-97776247D01*
X139035713Y-97776247D02*
X139035713Y-97633390D01*
X139035713Y-97633390D02*
X138988094Y-97442914D01*
X138988094Y-97442914D02*
X138940475Y-97347676D01*
X138940475Y-97347676D02*
X138845237Y-97252438D01*
X138845237Y-97252438D02*
X138702380Y-97204819D01*
X138702380Y-97204819D02*
X138607142Y-97204819D01*
X138607142Y-97204819D02*
X138464285Y-97252438D01*
X138464285Y-97252438D02*
X138416666Y-97300057D01*
X137464285Y-98204819D02*
X138035713Y-98204819D01*
X137749999Y-98204819D02*
X137749999Y-97204819D01*
X137749999Y-97204819D02*
X137845237Y-97347676D01*
X137845237Y-97347676D02*
X137940475Y-97442914D01*
X137940475Y-97442914D02*
X138035713Y-97490533D01*
X145166666Y-98359580D02*
X145214285Y-98407200D01*
X145214285Y-98407200D02*
X145357142Y-98454819D01*
X145357142Y-98454819D02*
X145452380Y-98454819D01*
X145452380Y-98454819D02*
X145595237Y-98407200D01*
X145595237Y-98407200D02*
X145690475Y-98311961D01*
X145690475Y-98311961D02*
X145738094Y-98216723D01*
X145738094Y-98216723D02*
X145785713Y-98026247D01*
X145785713Y-98026247D02*
X145785713Y-97883390D01*
X145785713Y-97883390D02*
X145738094Y-97692914D01*
X145738094Y-97692914D02*
X145690475Y-97597676D01*
X145690475Y-97597676D02*
X145595237Y-97502438D01*
X145595237Y-97502438D02*
X145452380Y-97454819D01*
X145452380Y-97454819D02*
X145357142Y-97454819D01*
X145357142Y-97454819D02*
X145214285Y-97502438D01*
X145214285Y-97502438D02*
X145166666Y-97550057D01*
X144261904Y-97454819D02*
X144738094Y-97454819D01*
X144738094Y-97454819D02*
X144785713Y-97931009D01*
X144785713Y-97931009D02*
X144738094Y-97883390D01*
X144738094Y-97883390D02*
X144642856Y-97835771D01*
X144642856Y-97835771D02*
X144404761Y-97835771D01*
X144404761Y-97835771D02*
X144309523Y-97883390D01*
X144309523Y-97883390D02*
X144261904Y-97931009D01*
X144261904Y-97931009D02*
X144214285Y-98026247D01*
X144214285Y-98026247D02*
X144214285Y-98264342D01*
X144214285Y-98264342D02*
X144261904Y-98359580D01*
X144261904Y-98359580D02*
X144309523Y-98407200D01*
X144309523Y-98407200D02*
X144404761Y-98454819D01*
X144404761Y-98454819D02*
X144642856Y-98454819D01*
X144642856Y-98454819D02*
X144738094Y-98407200D01*
X144738094Y-98407200D02*
X144785713Y-98359580D01*
X135805505Y-102534722D02*
X135853125Y-102487103D01*
X135853125Y-102487103D02*
X135900744Y-102344246D01*
X135900744Y-102344246D02*
X135900744Y-102249008D01*
X135900744Y-102249008D02*
X135853125Y-102106151D01*
X135853125Y-102106151D02*
X135757886Y-102010913D01*
X135757886Y-102010913D02*
X135662648Y-101963294D01*
X135662648Y-101963294D02*
X135472172Y-101915675D01*
X135472172Y-101915675D02*
X135329315Y-101915675D01*
X135329315Y-101915675D02*
X135138839Y-101963294D01*
X135138839Y-101963294D02*
X135043601Y-102010913D01*
X135043601Y-102010913D02*
X134948363Y-102106151D01*
X134948363Y-102106151D02*
X134900744Y-102249008D01*
X134900744Y-102249008D02*
X134900744Y-102344246D01*
X134900744Y-102344246D02*
X134948363Y-102487103D01*
X134948363Y-102487103D02*
X134995982Y-102534722D01*
X135234077Y-103391865D02*
X135900744Y-103391865D01*
X134853125Y-103153770D02*
X135567410Y-102915675D01*
X135567410Y-102915675D02*
X135567410Y-103534722D01*
X150592857Y-99709580D02*
X150640476Y-99757200D01*
X150640476Y-99757200D02*
X150783333Y-99804819D01*
X150783333Y-99804819D02*
X150878571Y-99804819D01*
X150878571Y-99804819D02*
X151021428Y-99757200D01*
X151021428Y-99757200D02*
X151116666Y-99661961D01*
X151116666Y-99661961D02*
X151164285Y-99566723D01*
X151164285Y-99566723D02*
X151211904Y-99376247D01*
X151211904Y-99376247D02*
X151211904Y-99233390D01*
X151211904Y-99233390D02*
X151164285Y-99042914D01*
X151164285Y-99042914D02*
X151116666Y-98947676D01*
X151116666Y-98947676D02*
X151021428Y-98852438D01*
X151021428Y-98852438D02*
X150878571Y-98804819D01*
X150878571Y-98804819D02*
X150783333Y-98804819D01*
X150783333Y-98804819D02*
X150640476Y-98852438D01*
X150640476Y-98852438D02*
X150592857Y-98900057D01*
X149640476Y-99804819D02*
X150211904Y-99804819D01*
X149926190Y-99804819D02*
X149926190Y-98804819D01*
X149926190Y-98804819D02*
X150021428Y-98947676D01*
X150021428Y-98947676D02*
X150116666Y-99042914D01*
X150116666Y-99042914D02*
X150211904Y-99090533D01*
X149021428Y-98804819D02*
X148926190Y-98804819D01*
X148926190Y-98804819D02*
X148830952Y-98852438D01*
X148830952Y-98852438D02*
X148783333Y-98900057D01*
X148783333Y-98900057D02*
X148735714Y-98995295D01*
X148735714Y-98995295D02*
X148688095Y-99185771D01*
X148688095Y-99185771D02*
X148688095Y-99423866D01*
X148688095Y-99423866D02*
X148735714Y-99614342D01*
X148735714Y-99614342D02*
X148783333Y-99709580D01*
X148783333Y-99709580D02*
X148830952Y-99757200D01*
X148830952Y-99757200D02*
X148926190Y-99804819D01*
X148926190Y-99804819D02*
X149021428Y-99804819D01*
X149021428Y-99804819D02*
X149116666Y-99757200D01*
X149116666Y-99757200D02*
X149164285Y-99709580D01*
X149164285Y-99709580D02*
X149211904Y-99614342D01*
X149211904Y-99614342D02*
X149259523Y-99423866D01*
X149259523Y-99423866D02*
X149259523Y-99185771D01*
X149259523Y-99185771D02*
X149211904Y-98995295D01*
X149211904Y-98995295D02*
X149164285Y-98900057D01*
X149164285Y-98900057D02*
X149116666Y-98852438D01*
X149116666Y-98852438D02*
X149021428Y-98804819D01*
X146866666Y-104054819D02*
X147199999Y-103578628D01*
X147438094Y-104054819D02*
X147438094Y-103054819D01*
X147438094Y-103054819D02*
X147057142Y-103054819D01*
X147057142Y-103054819D02*
X146961904Y-103102438D01*
X146961904Y-103102438D02*
X146914285Y-103150057D01*
X146914285Y-103150057D02*
X146866666Y-103245295D01*
X146866666Y-103245295D02*
X146866666Y-103388152D01*
X146866666Y-103388152D02*
X146914285Y-103483390D01*
X146914285Y-103483390D02*
X146961904Y-103531009D01*
X146961904Y-103531009D02*
X147057142Y-103578628D01*
X147057142Y-103578628D02*
X147438094Y-103578628D01*
X146533332Y-103054819D02*
X145866666Y-103054819D01*
X145866666Y-103054819D02*
X146295237Y-104054819D01*
X139286789Y-109145530D02*
X139334409Y-109097911D01*
X139334409Y-109097911D02*
X139382028Y-108955054D01*
X139382028Y-108955054D02*
X139382028Y-108859816D01*
X139382028Y-108859816D02*
X139334409Y-108716959D01*
X139334409Y-108716959D02*
X139239170Y-108621721D01*
X139239170Y-108621721D02*
X139143932Y-108574102D01*
X139143932Y-108574102D02*
X138953456Y-108526483D01*
X138953456Y-108526483D02*
X138810599Y-108526483D01*
X138810599Y-108526483D02*
X138620123Y-108574102D01*
X138620123Y-108574102D02*
X138524885Y-108621721D01*
X138524885Y-108621721D02*
X138429647Y-108716959D01*
X138429647Y-108716959D02*
X138382028Y-108859816D01*
X138382028Y-108859816D02*
X138382028Y-108955054D01*
X138382028Y-108955054D02*
X138429647Y-109097911D01*
X138429647Y-109097911D02*
X138477266Y-109145530D01*
X138382028Y-110002673D02*
X138382028Y-109812197D01*
X138382028Y-109812197D02*
X138429647Y-109716959D01*
X138429647Y-109716959D02*
X138477266Y-109669340D01*
X138477266Y-109669340D02*
X138620123Y-109574102D01*
X138620123Y-109574102D02*
X138810599Y-109526483D01*
X138810599Y-109526483D02*
X139191551Y-109526483D01*
X139191551Y-109526483D02*
X139286789Y-109574102D01*
X139286789Y-109574102D02*
X139334409Y-109621721D01*
X139334409Y-109621721D02*
X139382028Y-109716959D01*
X139382028Y-109716959D02*
X139382028Y-109907435D01*
X139382028Y-109907435D02*
X139334409Y-110002673D01*
X139334409Y-110002673D02*
X139286789Y-110050292D01*
X139286789Y-110050292D02*
X139191551Y-110097911D01*
X139191551Y-110097911D02*
X138953456Y-110097911D01*
X138953456Y-110097911D02*
X138858218Y-110050292D01*
X138858218Y-110050292D02*
X138810599Y-110002673D01*
X138810599Y-110002673D02*
X138762980Y-109907435D01*
X138762980Y-109907435D02*
X138762980Y-109716959D01*
X138762980Y-109716959D02*
X138810599Y-109621721D01*
X138810599Y-109621721D02*
X138858218Y-109574102D01*
X138858218Y-109574102D02*
X138953456Y-109526483D01*
X150116666Y-112054819D02*
X150449999Y-111578628D01*
X150688094Y-112054819D02*
X150688094Y-111054819D01*
X150688094Y-111054819D02*
X150307142Y-111054819D01*
X150307142Y-111054819D02*
X150211904Y-111102438D01*
X150211904Y-111102438D02*
X150164285Y-111150057D01*
X150164285Y-111150057D02*
X150116666Y-111245295D01*
X150116666Y-111245295D02*
X150116666Y-111388152D01*
X150116666Y-111388152D02*
X150164285Y-111483390D01*
X150164285Y-111483390D02*
X150211904Y-111531009D01*
X150211904Y-111531009D02*
X150307142Y-111578628D01*
X150307142Y-111578628D02*
X150688094Y-111578628D01*
X149259523Y-111388152D02*
X149259523Y-112054819D01*
X149497618Y-111007200D02*
X149735713Y-111721485D01*
X149735713Y-111721485D02*
X149116666Y-111721485D01*
D12*
X153279619Y-106154318D02*
X153279619Y-107182413D01*
X153279619Y-107182413D02*
X153219142Y-107303365D01*
X153219142Y-107303365D02*
X153158666Y-107363842D01*
X153158666Y-107363842D02*
X153037714Y-107424318D01*
X153037714Y-107424318D02*
X152795809Y-107424318D01*
X152795809Y-107424318D02*
X152674857Y-107363842D01*
X152674857Y-107363842D02*
X152614380Y-107303365D01*
X152614380Y-107303365D02*
X152553904Y-107182413D01*
X152553904Y-107182413D02*
X152553904Y-106154318D01*
X151283904Y-107424318D02*
X152009619Y-107424318D01*
X151646762Y-107424318D02*
X151646762Y-106154318D01*
X151646762Y-106154318D02*
X151767714Y-106335746D01*
X151767714Y-106335746D02*
X151888666Y-106456699D01*
X151888666Y-106456699D02*
X152009619Y-106517175D01*
D11*
X141779580Y-106133333D02*
X141827200Y-106085714D01*
X141827200Y-106085714D02*
X141874819Y-105942857D01*
X141874819Y-105942857D02*
X141874819Y-105847619D01*
X141874819Y-105847619D02*
X141827200Y-105704762D01*
X141827200Y-105704762D02*
X141731961Y-105609524D01*
X141731961Y-105609524D02*
X141636723Y-105561905D01*
X141636723Y-105561905D02*
X141446247Y-105514286D01*
X141446247Y-105514286D02*
X141303390Y-105514286D01*
X141303390Y-105514286D02*
X141112914Y-105561905D01*
X141112914Y-105561905D02*
X141017676Y-105609524D01*
X141017676Y-105609524D02*
X140922438Y-105704762D01*
X140922438Y-105704762D02*
X140874819Y-105847619D01*
X140874819Y-105847619D02*
X140874819Y-105942857D01*
X140874819Y-105942857D02*
X140922438Y-106085714D01*
X140922438Y-106085714D02*
X140970057Y-106133333D01*
X140874819Y-106466667D02*
X140874819Y-107085714D01*
X140874819Y-107085714D02*
X141255771Y-106752381D01*
X141255771Y-106752381D02*
X141255771Y-106895238D01*
X141255771Y-106895238D02*
X141303390Y-106990476D01*
X141303390Y-106990476D02*
X141351009Y-107038095D01*
X141351009Y-107038095D02*
X141446247Y-107085714D01*
X141446247Y-107085714D02*
X141684342Y-107085714D01*
X141684342Y-107085714D02*
X141779580Y-107038095D01*
X141779580Y-107038095D02*
X141827200Y-106990476D01*
X141827200Y-106990476D02*
X141874819Y-106895238D01*
X141874819Y-106895238D02*
X141874819Y-106609524D01*
X141874819Y-106609524D02*
X141827200Y-106514286D01*
X141827200Y-106514286D02*
X141779580Y-106466667D01*
D13*
%TO.C,C2*%
X136411960Y-106811252D02*
X136411960Y-106288748D01*
X137881960Y-106811252D02*
X137881960Y-106288748D01*
%TO.C,R6*%
X153722936Y-102865000D02*
X154177064Y-102865000D01*
X153722936Y-104335000D02*
X154177064Y-104335000D01*
%TO.C,C9*%
X154211252Y-100865000D02*
X153688748Y-100865000D01*
X154211252Y-102335000D02*
X153688748Y-102335000D01*
%TO.C,R5*%
X153927064Y-109115000D02*
X153472936Y-109115000D01*
X153927064Y-110585000D02*
X153472936Y-110585000D01*
%TO.C,C1*%
X138361252Y-99040000D02*
X137838748Y-99040000D01*
X138361252Y-100510000D02*
X137838748Y-100510000D01*
%TO.C,C5*%
X144865000Y-100538748D02*
X144865000Y-101061252D01*
X146335000Y-100538748D02*
X146335000Y-101061252D01*
%TO.C,C4*%
X136390925Y-102962641D02*
X136390925Y-102440137D01*
X137860925Y-102962641D02*
X137860925Y-102440137D01*
%TO.C,C10*%
X149711252Y-100865000D02*
X149188748Y-100865000D01*
X149711252Y-102335000D02*
X149188748Y-102335000D01*
%TO.C,R7*%
X149222936Y-102865000D02*
X149677064Y-102865000D01*
X149222936Y-104335000D02*
X149677064Y-104335000D01*
%TO.C,C6*%
X141238748Y-108665000D02*
X141761252Y-108665000D01*
X141238748Y-110135000D02*
X141761252Y-110135000D01*
%TO.C,R4*%
X149927064Y-109115000D02*
X149472936Y-109115000D01*
X149927064Y-110585000D02*
X149472936Y-110585000D01*
D10*
%TO.C,U1*%
X149725000Y-105075000D02*
X153775000Y-105075000D01*
X149725000Y-108075000D02*
X149725000Y-105075000D01*
X153775000Y-105075000D02*
X153775000Y-108075000D01*
X153775000Y-108075000D02*
X149725000Y-108075000D01*
X154125000Y-105025000D02*
X155475000Y-105025000D01*
D13*
%TO.C,C3*%
X142365000Y-106561252D02*
X142365000Y-106038748D01*
X143835000Y-106561252D02*
X143835000Y-106038748D01*
%TD*%
M02*
